G75*
%MOIN*%
%OFA0B0*%
%FSLAX25Y25*%
%IPPOS*%
%LPD*%
%AMOC8*
5,1,8,0,0,1.08239X$1,22.5*
%
%ADD10R,0.02362X0.08661*%
%ADD11R,0.08661X0.02362*%
%ADD12R,0.05900X0.07900*%
%ADD13R,0.15000X0.07900*%
%ADD14R,0.05000X0.30000*%
%ADD15R,0.04724X0.00945*%
%ADD16R,0.00945X0.04724*%
%ADD17R,0.04331X0.03937*%
%ADD18R,0.13780X0.06299*%
%ADD19OC8,0.06300*%
%ADD20R,0.03937X0.04331*%
%ADD21R,0.03937X0.05512*%
%ADD22R,0.04724X0.04724*%
%ADD23C,0.05150*%
%ADD24C,0.08268*%
%ADD25C,0.03962*%
%ADD26C,0.04000*%
%ADD27C,0.02400*%
%ADD28C,0.01600*%
%ADD29C,0.01000*%
D10*
X0297303Y0186512D03*
X0302303Y0186512D03*
X0307303Y0186512D03*
X0312303Y0186512D03*
X0317303Y0186512D03*
X0322303Y0186512D03*
X0327303Y0186512D03*
X0332303Y0186512D03*
X0337303Y0186512D03*
X0342303Y0186512D03*
X0347303Y0186512D03*
X0352303Y0186512D03*
X0357303Y0186512D03*
X0362303Y0186512D03*
X0367303Y0186512D03*
X0372303Y0186512D03*
X0353185Y0159189D03*
X0348185Y0159189D03*
X0343185Y0159189D03*
X0338185Y0159189D03*
X0333185Y0159189D03*
X0328185Y0159189D03*
X0323185Y0159189D03*
X0323185Y0104858D03*
X0328185Y0104858D03*
X0333185Y0104858D03*
X0338185Y0104858D03*
X0343185Y0104858D03*
X0348185Y0104858D03*
X0353185Y0104858D03*
X0352303Y0237031D03*
X0347303Y0237031D03*
X0342303Y0237031D03*
X0337303Y0237031D03*
X0332303Y0237031D03*
X0327303Y0237031D03*
X0322303Y0237031D03*
X0317303Y0237031D03*
X0312303Y0237031D03*
X0307303Y0237031D03*
X0302303Y0237031D03*
X0297303Y0237031D03*
X0357303Y0237031D03*
X0362303Y0237031D03*
X0367303Y0237031D03*
X0372303Y0237031D03*
D11*
X0360626Y0152024D03*
X0360626Y0147024D03*
X0360626Y0142024D03*
X0360626Y0137024D03*
X0360626Y0132024D03*
X0360626Y0127024D03*
X0360626Y0122024D03*
X0360626Y0117024D03*
X0360626Y0112024D03*
X0315744Y0112024D03*
X0315744Y0117024D03*
X0315744Y0122024D03*
X0315744Y0127024D03*
X0315744Y0132024D03*
X0315744Y0137024D03*
X0315744Y0142024D03*
X0315744Y0147024D03*
X0315744Y0152024D03*
D12*
X0075785Y0115206D03*
X0066785Y0115206D03*
X0057785Y0115206D03*
D13*
X0066685Y0140006D03*
D14*
X0129114Y0025000D03*
X0139114Y0020000D03*
X0149114Y0020000D03*
X0159114Y0020000D03*
X0169114Y0020000D03*
X0179114Y0020000D03*
X0189114Y0020000D03*
X0199114Y0020000D03*
X0209114Y0020000D03*
X0219114Y0020000D03*
X0229114Y0020000D03*
X0239114Y0020000D03*
X0249114Y0020000D03*
X0259114Y0020000D03*
X0269114Y0020000D03*
X0279114Y0020000D03*
X0289114Y0020000D03*
X0299114Y0020000D03*
X0309114Y0020000D03*
X0319114Y0020000D03*
X0329114Y0020000D03*
X0339114Y0020000D03*
X0119114Y0020000D03*
X0109114Y0020000D03*
X0099114Y0020000D03*
D15*
X0183819Y0136220D03*
X0183819Y0138189D03*
X0183819Y0140157D03*
X0183819Y0142126D03*
X0183819Y0144094D03*
X0183819Y0146063D03*
X0183819Y0148031D03*
X0183819Y0150000D03*
X0183819Y0151969D03*
X0183819Y0153937D03*
X0183819Y0155906D03*
X0183819Y0157874D03*
X0183819Y0159843D03*
X0183819Y0161811D03*
X0183819Y0163780D03*
X0183819Y0165748D03*
X0183819Y0167717D03*
X0183819Y0169685D03*
X0183819Y0171654D03*
X0183819Y0173622D03*
X0183819Y0175591D03*
X0183819Y0177559D03*
X0183819Y0179528D03*
X0183819Y0181496D03*
X0183819Y0183465D03*
X0246811Y0183465D03*
X0246811Y0181496D03*
X0246811Y0179528D03*
X0246811Y0177559D03*
X0246811Y0175591D03*
X0246811Y0173622D03*
X0246811Y0171654D03*
X0246811Y0169685D03*
X0246811Y0167717D03*
X0246811Y0165748D03*
X0246811Y0163780D03*
X0246811Y0161811D03*
X0246811Y0159843D03*
X0246811Y0157874D03*
X0246811Y0155906D03*
X0246811Y0153937D03*
X0246811Y0151969D03*
X0246811Y0150000D03*
X0246811Y0148031D03*
X0246811Y0146063D03*
X0246811Y0144094D03*
X0246811Y0142126D03*
X0246811Y0140157D03*
X0246811Y0138189D03*
X0246811Y0136220D03*
D16*
X0238937Y0128346D03*
X0236969Y0128346D03*
X0235000Y0128346D03*
X0233031Y0128346D03*
X0231063Y0128346D03*
X0229094Y0128346D03*
X0227126Y0128346D03*
X0225157Y0128346D03*
X0223189Y0128346D03*
X0221220Y0128346D03*
X0219252Y0128346D03*
X0217283Y0128346D03*
X0215315Y0128346D03*
X0213346Y0128346D03*
X0211378Y0128346D03*
X0209409Y0128346D03*
X0207441Y0128346D03*
X0205472Y0128346D03*
X0203504Y0128346D03*
X0201535Y0128346D03*
X0199567Y0128346D03*
X0197598Y0128346D03*
X0195630Y0128346D03*
X0193661Y0128346D03*
X0191693Y0128346D03*
X0191693Y0191339D03*
X0193661Y0191339D03*
X0195630Y0191339D03*
X0197598Y0191339D03*
X0199567Y0191339D03*
X0201535Y0191339D03*
X0203504Y0191339D03*
X0205472Y0191339D03*
X0207441Y0191339D03*
X0209409Y0191339D03*
X0211378Y0191339D03*
X0213346Y0191339D03*
X0215315Y0191339D03*
X0217283Y0191339D03*
X0219252Y0191339D03*
X0221220Y0191339D03*
X0223189Y0191339D03*
X0225157Y0191339D03*
X0227126Y0191339D03*
X0229094Y0191339D03*
X0231063Y0191339D03*
X0233031Y0191339D03*
X0235000Y0191339D03*
X0236969Y0191339D03*
X0238937Y0191339D03*
D17*
X0281882Y0233992D03*
X0288575Y0233992D03*
X0340429Y0171717D03*
X0347122Y0171717D03*
X0092795Y0139760D03*
X0086102Y0139760D03*
X0066531Y0102150D03*
X0059839Y0102150D03*
D18*
X0058055Y0074331D03*
X0079315Y0074331D03*
D19*
X0015685Y0194331D03*
X0015685Y0204331D03*
X0015685Y0214331D03*
X0015685Y0224331D03*
X0015685Y0234331D03*
X0015685Y0244331D03*
D20*
X0075354Y0230315D03*
X0082047Y0230315D03*
X0098976Y0196850D03*
X0105669Y0196850D03*
X0151606Y0192087D03*
X0158299Y0192087D03*
X0158299Y0180693D03*
X0151606Y0180693D03*
X0151732Y0203543D03*
X0158425Y0203543D03*
X0122598Y0127165D03*
X0115906Y0127165D03*
D21*
X0114331Y0224409D03*
X0106850Y0224409D03*
X0110591Y0233071D03*
D22*
X0096614Y0249606D03*
X0088346Y0249606D03*
D23*
X0178701Y0246457D03*
X0186575Y0246457D03*
X0194449Y0246457D03*
X0222402Y0246457D03*
X0230276Y0246457D03*
X0238150Y0246457D03*
D24*
X0246417Y0246457D03*
X0214134Y0246457D03*
X0202717Y0246457D03*
X0170433Y0246457D03*
D25*
X0181850Y0233465D03*
X0164134Y0225591D03*
X0157835Y0225591D03*
X0151929Y0225591D03*
X0159016Y0213780D03*
X0151535Y0211024D03*
X0162165Y0209449D03*
X0165315Y0205118D03*
X0164528Y0196063D03*
X0164921Y0190551D03*
X0166890Y0185433D03*
X0183819Y0191339D03*
X0196024Y0197244D03*
X0194843Y0204331D03*
X0187362Y0203543D03*
X0185000Y0208661D03*
X0190906Y0212598D03*
X0181850Y0213386D03*
X0199567Y0213780D03*
X0207441Y0207874D03*
X0213346Y0205906D03*
X0209409Y0198819D03*
X0219252Y0198031D03*
X0226339Y0200000D03*
X0227126Y0205512D03*
X0235787Y0202362D03*
X0238543Y0198031D03*
X0249961Y0198819D03*
X0248386Y0191339D03*
X0233031Y0179921D03*
X0227913Y0183858D03*
X0203504Y0183071D03*
X0203504Y0174016D03*
X0205472Y0157480D03*
X0222008Y0143701D03*
X0228307Y0143701D03*
X0233819Y0143701D03*
X0240512Y0142913D03*
X0247598Y0129921D03*
X0264134Y0122835D03*
X0268858Y0134646D03*
X0290118Y0150394D03*
X0303504Y0155512D03*
X0313740Y0161024D03*
X0299961Y0166929D03*
X0294449Y0170866D03*
X0311772Y0170866D03*
X0317283Y0171654D03*
X0312953Y0178740D03*
X0321614Y0178740D03*
X0326732Y0178740D03*
X0331850Y0178740D03*
X0336575Y0166929D03*
X0350748Y0179134D03*
X0354291Y0170079D03*
X0361378Y0161811D03*
X0357441Y0156299D03*
X0352323Y0146850D03*
X0349567Y0142126D03*
X0340906Y0151575D03*
X0335787Y0151575D03*
X0328701Y0151181D03*
X0324370Y0147638D03*
X0329094Y0141339D03*
X0325157Y0137795D03*
X0324764Y0125984D03*
X0333819Y0124803D03*
X0337362Y0121260D03*
X0345630Y0124409D03*
X0350748Y0115354D03*
X0345630Y0112205D03*
X0364528Y0107087D03*
X0362165Y0100394D03*
X0372008Y0107480D03*
X0375945Y0112992D03*
X0368465Y0115748D03*
X0375945Y0122441D03*
X0372008Y0125984D03*
X0368858Y0130315D03*
X0372402Y0137008D03*
X0370039Y0142126D03*
X0325945Y0114567D03*
X0306654Y0124016D03*
X0306654Y0130709D03*
X0304685Y0110236D03*
X0314134Y0094488D03*
X0323189Y0093701D03*
X0328307Y0087795D03*
X0338937Y0089764D03*
X0336575Y0080315D03*
X0351142Y0077953D03*
X0364134Y0083465D03*
X0377520Y0088583D03*
X0361772Y0093701D03*
X0381850Y0076772D03*
X0372402Y0066929D03*
X0368465Y0070866D03*
X0356260Y0064567D03*
X0318071Y0055512D03*
X0294055Y0041339D03*
X0284185Y0041331D03*
X0274185Y0041331D03*
X0264185Y0041331D03*
X0254185Y0041331D03*
X0244185Y0041331D03*
X0234185Y0041331D03*
X0224185Y0041331D03*
X0214185Y0041331D03*
X0204185Y0041331D03*
X0194185Y0041331D03*
X0184185Y0041331D03*
X0174185Y0041331D03*
X0164185Y0041331D03*
X0154185Y0041331D03*
X0149173Y0045669D03*
X0144185Y0041331D03*
X0154291Y0051575D03*
X0159016Y0057480D03*
X0164134Y0062598D03*
X0169252Y0067323D03*
X0174370Y0072835D03*
X0179094Y0077953D03*
X0188937Y0077953D03*
X0194055Y0074016D03*
X0199173Y0070079D03*
X0204291Y0066142D03*
X0209016Y0062205D03*
X0224370Y0062205D03*
X0229094Y0075197D03*
X0219252Y0084646D03*
X0234213Y0096850D03*
X0238937Y0092520D03*
X0254291Y0069291D03*
X0249173Y0066535D03*
X0244449Y0063386D03*
X0268858Y0069291D03*
X0279094Y0062598D03*
X0279114Y0062598D03*
X0199173Y0089764D03*
X0194055Y0094094D03*
X0183819Y0085039D03*
X0136181Y0073622D03*
X0130276Y0068504D03*
X0129882Y0054724D03*
X0123189Y0054724D03*
X0109185Y0054331D03*
X0086575Y0092913D03*
X0086575Y0100787D03*
X0086969Y0113386D03*
X0049961Y0107480D03*
X0049961Y0123622D03*
X0029094Y0131496D03*
X0021220Y0098425D03*
X0079882Y0145669D03*
X0110984Y0145669D03*
X0113346Y0140157D03*
X0138150Y0122835D03*
X0136181Y0099606D03*
X0193268Y0137795D03*
X0201535Y0134646D03*
X0215315Y0138976D03*
X0222402Y0134646D03*
X0255472Y0161811D03*
X0255472Y0173622D03*
X0253504Y0178740D03*
X0280669Y0192520D03*
X0289724Y0187402D03*
X0303110Y0202362D03*
X0310197Y0195276D03*
X0309016Y0208268D03*
X0307835Y0220079D03*
X0298386Y0226772D03*
X0288543Y0225591D03*
X0275157Y0233858D03*
X0269646Y0242913D03*
X0251929Y0239764D03*
X0247598Y0233465D03*
X0246811Y0227953D03*
X0244055Y0214173D03*
X0267283Y0211811D03*
X0284606Y0209449D03*
X0288543Y0205906D03*
X0322402Y0224409D03*
X0327520Y0227559D03*
X0336575Y0223622D03*
X0342087Y0225591D03*
X0337362Y0229528D03*
X0352323Y0222835D03*
X0347205Y0206693D03*
X0347205Y0196850D03*
X0327913Y0201575D03*
X0368858Y0196063D03*
X0378701Y0198425D03*
X0378307Y0211024D03*
X0379488Y0219291D03*
X0374370Y0225591D03*
X0382244Y0246850D03*
X0353898Y0247244D03*
X0334213Y0245669D03*
X0317283Y0244488D03*
X0307441Y0244488D03*
X0302323Y0244488D03*
X0290512Y0243307D03*
X0217677Y0217717D03*
X0210591Y0213780D03*
X0140512Y0176772D03*
X0127913Y0195276D03*
X0127913Y0205512D03*
X0114921Y0196850D03*
X0125945Y0218504D03*
X0090118Y0218504D03*
X0064528Y0225984D03*
X0058228Y0230315D03*
X0057835Y0209055D03*
X0059409Y0199213D03*
X0039331Y0206299D03*
X0062165Y0168504D03*
X0081063Y0166142D03*
X0149567Y0146063D03*
X0173976Y0140945D03*
X0374370Y0174409D03*
D26*
X0128685Y0041331D02*
X0128685Y0024331D01*
X0129114Y0025000D01*
X0119114Y0020000D02*
X0118799Y0041331D01*
X0118685Y0041331D01*
X0118799Y0041331D02*
X0128685Y0041331D01*
X0109185Y0054331D02*
X0109185Y0058331D01*
X0093185Y0074331D01*
X0079315Y0074331D01*
X0079315Y0089370D01*
X0078528Y0090157D02*
X0078528Y0112464D01*
X0075785Y0115206D01*
D27*
X0086969Y0113386D02*
X0086969Y0127953D01*
X0087756Y0127165D01*
X0115906Y0127165D01*
X0086969Y0127953D02*
X0086969Y0138894D01*
X0086102Y0139760D01*
X0079882Y0139760D01*
X0079882Y0145669D01*
X0079882Y0139760D02*
X0066931Y0139760D01*
X0066685Y0140006D01*
X0066928Y0139764D01*
X0066785Y0139906D02*
X0066685Y0140006D01*
X0065353Y0141339D01*
X0029094Y0141339D01*
X0029094Y0131496D01*
X0029094Y0141339D02*
X0020039Y0150394D01*
X0020039Y0173622D01*
X0028701Y0182283D01*
X0028701Y0185827D01*
X0027126Y0187402D01*
X0022614Y0187402D01*
X0015685Y0194331D01*
X0028701Y0182283D02*
X0054291Y0182283D01*
X0060591Y0188583D01*
X0133031Y0188583D01*
X0147205Y0202756D01*
X0147205Y0203543D01*
X0147205Y0216535D01*
X0139331Y0224409D01*
X0114331Y0224409D01*
X0147205Y0217323D02*
X0147205Y0216535D01*
X0147205Y0217323D02*
X0150354Y0220472D01*
X0192874Y0220472D01*
X0199567Y0213780D01*
X0195630Y0185827D02*
X0195630Y0184252D01*
X0196811Y0183071D01*
X0203504Y0183071D01*
X0214134Y0183071D01*
X0215315Y0184252D01*
X0215315Y0185827D01*
X0203504Y0174016D02*
X0190118Y0174016D01*
X0188543Y0175591D01*
X0151606Y0180693D02*
X0151606Y0192087D01*
X0151606Y0203417D01*
X0151732Y0203543D01*
X0147205Y0203543D01*
X0240512Y0147244D02*
X0241299Y0148031D01*
X0240512Y0147244D02*
X0240512Y0142913D01*
X0240512Y0137008D01*
X0241299Y0136220D01*
X0215315Y0133858D02*
X0215315Y0138976D01*
X0193268Y0137795D02*
X0193268Y0137402D01*
X0191693Y0135827D01*
X0191693Y0133858D01*
X0079315Y0089370D02*
X0078528Y0090157D01*
X0053110Y0090157D01*
X0044843Y0098425D01*
X0021220Y0098425D01*
X0066531Y0102150D02*
X0066531Y0114953D01*
X0066785Y0115206D01*
X0066785Y0129528D01*
X0066982Y0129331D01*
X0066785Y0129528D02*
X0066785Y0139906D01*
X0246811Y0227953D02*
X0253504Y0221260D01*
X0296417Y0221260D01*
X0298386Y0223228D01*
X0298386Y0226772D01*
X0297303Y0227854D01*
X0297303Y0237031D01*
X0297280Y0237008D01*
X0290512Y0237008D01*
X0288575Y0235071D01*
X0288575Y0233992D01*
X0317283Y0171654D02*
X0340366Y0171654D01*
X0340429Y0171717D01*
X0341693Y0170453D01*
X0341693Y0169685D01*
X0343185Y0168193D01*
X0343185Y0159189D01*
D28*
X0049170Y0090138D02*
X0049170Y0060981D01*
X0092569Y0060981D01*
X0094333Y0060250D01*
X0095683Y0058900D01*
X0096414Y0057136D01*
X0096414Y0037331D01*
X0115258Y0037331D01*
X0115214Y0040303D01*
X0115085Y0040615D01*
X0115085Y0042047D01*
X0115633Y0043370D01*
X0116646Y0044383D01*
X0117969Y0044931D01*
X0118773Y0044931D01*
X0119462Y0044941D01*
X0119488Y0044931D01*
X0129401Y0044931D01*
X0130724Y0044383D01*
X0131737Y0043370D01*
X0132167Y0042331D01*
X0134685Y0042331D01*
X0134685Y0037331D01*
X0147073Y0037331D01*
X0147073Y0039154D01*
X0146214Y0038295D01*
X0144897Y0037750D01*
X0143473Y0037750D01*
X0142157Y0038295D01*
X0141149Y0039302D01*
X0140604Y0040618D01*
X0140604Y0042043D01*
X0141149Y0043359D01*
X0141955Y0044165D01*
X0141955Y0135516D01*
X0143185Y0136746D01*
X0143185Y0136746D01*
X0162214Y0155774D01*
X0150830Y0155774D01*
X0136313Y0141256D01*
X0136313Y0125950D01*
X0137437Y0126416D01*
X0138862Y0126416D01*
X0140178Y0125871D01*
X0141186Y0124863D01*
X0141731Y0123547D01*
X0141731Y0122122D01*
X0141186Y0120806D01*
X0140250Y0119870D01*
X0140250Y0110547D01*
X0132376Y0102673D01*
X0132376Y0071468D01*
X0133271Y0071468D01*
X0133145Y0071594D02*
X0134153Y0070586D01*
X0135469Y0070041D01*
X0136893Y0070041D01*
X0138210Y0070586D01*
X0139217Y0071594D01*
X0139762Y0072910D01*
X0139762Y0074334D01*
X0139217Y0075651D01*
X0138281Y0076586D01*
X0138281Y0096642D01*
X0139217Y0097578D01*
X0139762Y0098894D01*
X0139762Y0100319D01*
X0139217Y0101635D01*
X0138210Y0102642D01*
X0136893Y0103187D01*
X0135469Y0103187D01*
X0134153Y0102642D01*
X0133145Y0101635D01*
X0132600Y0100319D01*
X0132600Y0098894D01*
X0133145Y0097578D01*
X0134081Y0096642D01*
X0134081Y0076586D01*
X0133145Y0075651D01*
X0132600Y0074334D01*
X0132600Y0072910D01*
X0133145Y0071594D01*
X0132376Y0071468D02*
X0133311Y0070532D01*
X0133857Y0069216D01*
X0133857Y0067792D01*
X0133311Y0066475D01*
X0132304Y0065468D01*
X0130988Y0064923D01*
X0129563Y0064923D01*
X0128247Y0065468D01*
X0127240Y0066475D01*
X0126694Y0067792D01*
X0126694Y0069216D01*
X0127240Y0070532D01*
X0128176Y0071468D01*
X0128176Y0104413D01*
X0129406Y0105643D01*
X0136050Y0112287D01*
X0136050Y0113434D01*
X0128832Y0106217D01*
X0127602Y0104987D01*
X0103193Y0104987D01*
X0090643Y0092437D01*
X0089978Y0091772D01*
X0089611Y0090885D01*
X0088603Y0089877D01*
X0087287Y0089332D01*
X0085862Y0089332D01*
X0084546Y0089877D01*
X0083539Y0090885D01*
X0082994Y0092201D01*
X0082994Y0093626D01*
X0083539Y0094942D01*
X0084546Y0095949D01*
X0085862Y0096494D01*
X0087287Y0096494D01*
X0088329Y0096063D01*
X0101453Y0109187D01*
X0125862Y0109187D01*
X0132113Y0115437D01*
X0132113Y0118552D01*
X0125289Y0111729D01*
X0124059Y0110498D01*
X0099256Y0110498D01*
X0090156Y0101399D01*
X0090156Y0100075D01*
X0089611Y0098759D01*
X0088603Y0097751D01*
X0087287Y0097206D01*
X0085862Y0097206D01*
X0084546Y0097751D01*
X0083539Y0098759D01*
X0082994Y0100075D01*
X0082994Y0101500D01*
X0083539Y0102816D01*
X0084546Y0103823D01*
X0085862Y0104368D01*
X0087186Y0104368D01*
X0097516Y0114698D01*
X0122319Y0114698D01*
X0129750Y0122130D01*
X0129750Y0142962D01*
X0128832Y0142044D01*
X0128832Y0128264D01*
X0126864Y0126295D01*
X0126167Y0125599D01*
X0126167Y0124337D01*
X0125230Y0123400D01*
X0119967Y0123400D01*
X0119252Y0124115D01*
X0118537Y0123400D01*
X0113274Y0123400D01*
X0112337Y0124337D01*
X0112337Y0124365D01*
X0089768Y0124365D01*
X0089768Y0115650D01*
X0090004Y0115414D01*
X0090550Y0114098D01*
X0090550Y0112673D01*
X0090004Y0111357D01*
X0088997Y0110350D01*
X0087681Y0109805D01*
X0086256Y0109805D01*
X0084940Y0110350D01*
X0083933Y0111357D01*
X0083387Y0112673D01*
X0083387Y0114098D01*
X0083933Y0115414D01*
X0084169Y0115650D01*
X0084169Y0136191D01*
X0083274Y0136191D01*
X0082506Y0136960D01*
X0075785Y0136960D01*
X0075785Y0135394D01*
X0074848Y0134456D01*
X0069585Y0134456D01*
X0069585Y0130363D01*
X0069782Y0129888D01*
X0069782Y0128774D01*
X0069585Y0128298D01*
X0069585Y0120756D01*
X0070398Y0120756D01*
X0071285Y0119869D01*
X0072172Y0120756D01*
X0079398Y0120756D01*
X0080335Y0119819D01*
X0080335Y0115747D01*
X0081579Y0114503D01*
X0082128Y0113180D01*
X0082128Y0091649D01*
X0082367Y0091409D01*
X0082915Y0090086D01*
X0082915Y0079080D01*
X0086867Y0079080D01*
X0087805Y0078143D01*
X0087805Y0077931D01*
X0093901Y0077931D01*
X0095224Y0077383D01*
X0096237Y0076370D01*
X0112237Y0060370D01*
X0112785Y0059047D01*
X0112785Y0053615D01*
X0112237Y0052291D01*
X0111224Y0051279D01*
X0109901Y0050731D01*
X0108469Y0050731D01*
X0107146Y0051279D01*
X0106133Y0052291D01*
X0105585Y0053615D01*
X0105585Y0056840D01*
X0091694Y0070731D01*
X0087805Y0070731D01*
X0087805Y0070518D01*
X0086867Y0069581D01*
X0071762Y0069581D01*
X0070825Y0070518D01*
X0070825Y0078143D01*
X0071762Y0079080D01*
X0075715Y0079080D01*
X0075715Y0087357D01*
X0052553Y0087357D01*
X0051524Y0087784D01*
X0050737Y0088571D01*
X0049170Y0090138D01*
X0049170Y0089052D02*
X0050256Y0089052D01*
X0049170Y0087453D02*
X0052322Y0087453D01*
X0049170Y0085855D02*
X0075715Y0085855D01*
X0075715Y0084256D02*
X0049170Y0084256D01*
X0049170Y0082658D02*
X0075715Y0082658D01*
X0075715Y0081059D02*
X0049170Y0081059D01*
X0049170Y0079461D02*
X0075715Y0079461D01*
X0082915Y0079461D02*
X0098342Y0079461D01*
X0097535Y0080267D02*
X0100078Y0077724D01*
X0103193Y0075926D01*
X0106666Y0074995D01*
X0110263Y0074995D01*
X0113736Y0075926D01*
X0116851Y0077724D01*
X0119394Y0080267D01*
X0121192Y0083382D01*
X0122123Y0086855D01*
X0122123Y0090452D01*
X0121192Y0093925D01*
X0119394Y0097040D01*
X0116851Y0099583D01*
X0113736Y0101381D01*
X0110263Y0102312D01*
X0106666Y0102312D01*
X0103193Y0101381D01*
X0100078Y0099583D01*
X0097535Y0097040D01*
X0095737Y0093925D01*
X0094806Y0090452D01*
X0094806Y0086855D01*
X0095737Y0083382D01*
X0097535Y0080267D01*
X0097078Y0081059D02*
X0082915Y0081059D01*
X0082915Y0082658D02*
X0096155Y0082658D01*
X0095503Y0084256D02*
X0082915Y0084256D01*
X0082915Y0085855D02*
X0095074Y0085855D01*
X0094806Y0087453D02*
X0082915Y0087453D01*
X0082915Y0089052D02*
X0094806Y0089052D01*
X0094860Y0090650D02*
X0089376Y0090650D01*
X0090455Y0092249D02*
X0095288Y0092249D01*
X0095716Y0093847D02*
X0092053Y0093847D01*
X0093652Y0095446D02*
X0096615Y0095446D01*
X0097540Y0097044D02*
X0095250Y0097044D01*
X0096849Y0098643D02*
X0099138Y0098643D01*
X0098447Y0100241D02*
X0101219Y0100241D01*
X0100046Y0101840D02*
X0104905Y0101840D01*
X0101644Y0103438D02*
X0128176Y0103438D01*
X0128176Y0101840D02*
X0112024Y0101840D01*
X0115710Y0100241D02*
X0128176Y0100241D01*
X0128176Y0098643D02*
X0117791Y0098643D01*
X0119389Y0097044D02*
X0128176Y0097044D01*
X0128176Y0095446D02*
X0120314Y0095446D01*
X0121213Y0093847D02*
X0128176Y0093847D01*
X0128176Y0092249D02*
X0121641Y0092249D01*
X0122070Y0090650D02*
X0128176Y0090650D01*
X0128176Y0089052D02*
X0122123Y0089052D01*
X0122123Y0087453D02*
X0128176Y0087453D01*
X0128176Y0085855D02*
X0121855Y0085855D01*
X0121426Y0084256D02*
X0128176Y0084256D01*
X0128176Y0082658D02*
X0120774Y0082658D01*
X0119851Y0081059D02*
X0128176Y0081059D01*
X0128176Y0079461D02*
X0118587Y0079461D01*
X0116989Y0077862D02*
X0128176Y0077862D01*
X0128176Y0076264D02*
X0114321Y0076264D01*
X0102608Y0076264D02*
X0096343Y0076264D01*
X0097942Y0074665D02*
X0128176Y0074665D01*
X0128176Y0073067D02*
X0099540Y0073067D01*
X0101139Y0071468D02*
X0128175Y0071468D01*
X0126965Y0069870D02*
X0102737Y0069870D01*
X0104336Y0068271D02*
X0126694Y0068271D01*
X0127158Y0066673D02*
X0105934Y0066673D01*
X0107533Y0065074D02*
X0129198Y0065074D01*
X0131353Y0065074D02*
X0141955Y0065074D01*
X0141955Y0063476D02*
X0109131Y0063476D01*
X0110730Y0061877D02*
X0141955Y0061877D01*
X0141955Y0060279D02*
X0112275Y0060279D01*
X0112785Y0058680D02*
X0141955Y0058680D01*
X0141955Y0057082D02*
X0112785Y0057082D01*
X0112785Y0055483D02*
X0141955Y0055483D01*
X0141955Y0053885D02*
X0112785Y0053885D01*
X0112232Y0052286D02*
X0141955Y0052286D01*
X0141955Y0050688D02*
X0096414Y0050688D01*
X0096414Y0052286D02*
X0106139Y0052286D01*
X0105585Y0053885D02*
X0096414Y0053885D01*
X0096414Y0055483D02*
X0105585Y0055483D01*
X0105343Y0057082D02*
X0096414Y0057082D01*
X0095775Y0058680D02*
X0103744Y0058680D01*
X0102146Y0060279D02*
X0094265Y0060279D01*
X0098949Y0063476D02*
X0049170Y0063476D01*
X0049170Y0065074D02*
X0097350Y0065074D01*
X0095752Y0066673D02*
X0049170Y0066673D01*
X0049170Y0068271D02*
X0094153Y0068271D01*
X0092555Y0069870D02*
X0087156Y0069870D01*
X0094066Y0077862D02*
X0099940Y0077862D01*
X0083773Y0090650D02*
X0082681Y0090650D01*
X0082994Y0092249D02*
X0082128Y0092249D01*
X0082128Y0093847D02*
X0083086Y0093847D01*
X0084043Y0095446D02*
X0082128Y0095446D01*
X0082128Y0097044D02*
X0089311Y0097044D01*
X0089495Y0098643D02*
X0090909Y0098643D01*
X0090156Y0100241D02*
X0092508Y0100241D01*
X0094106Y0101840D02*
X0090597Y0101840D01*
X0092196Y0103438D02*
X0095705Y0103438D01*
X0097303Y0105037D02*
X0093794Y0105037D01*
X0095393Y0106635D02*
X0098902Y0106635D01*
X0100500Y0108234D02*
X0096991Y0108234D01*
X0098590Y0109832D02*
X0126508Y0109832D01*
X0124991Y0111431D02*
X0128107Y0111431D01*
X0126590Y0113029D02*
X0129705Y0113029D01*
X0128188Y0114628D02*
X0131304Y0114628D01*
X0132113Y0116227D02*
X0129787Y0116227D01*
X0131385Y0117825D02*
X0132113Y0117825D01*
X0135645Y0113029D02*
X0136050Y0113029D01*
X0135193Y0111431D02*
X0134046Y0111431D01*
X0133595Y0109832D02*
X0132448Y0109832D01*
X0131996Y0108234D02*
X0130849Y0108234D01*
X0130398Y0106635D02*
X0129251Y0106635D01*
X0128799Y0105037D02*
X0127652Y0105037D01*
X0132376Y0101840D02*
X0133350Y0101840D01*
X0133141Y0103438D02*
X0141955Y0103438D01*
X0141955Y0101840D02*
X0139012Y0101840D01*
X0139762Y0100241D02*
X0141955Y0100241D01*
X0141955Y0098643D02*
X0139658Y0098643D01*
X0138684Y0097044D02*
X0141955Y0097044D01*
X0141955Y0095446D02*
X0138281Y0095446D01*
X0138281Y0093847D02*
X0141955Y0093847D01*
X0141955Y0092249D02*
X0138281Y0092249D01*
X0138281Y0090650D02*
X0141955Y0090650D01*
X0141955Y0089052D02*
X0138281Y0089052D01*
X0138281Y0087453D02*
X0141955Y0087453D01*
X0141955Y0085855D02*
X0138281Y0085855D01*
X0138281Y0084256D02*
X0141955Y0084256D01*
X0141955Y0082658D02*
X0138281Y0082658D01*
X0138281Y0081059D02*
X0141955Y0081059D01*
X0141955Y0079461D02*
X0138281Y0079461D01*
X0138281Y0077862D02*
X0141955Y0077862D01*
X0141955Y0076264D02*
X0138604Y0076264D01*
X0139625Y0074665D02*
X0141955Y0074665D01*
X0141955Y0073067D02*
X0139762Y0073067D01*
X0139092Y0071468D02*
X0141955Y0071468D01*
X0141955Y0069870D02*
X0133586Y0069870D01*
X0133857Y0068271D02*
X0141955Y0068271D01*
X0141955Y0066673D02*
X0133393Y0066673D01*
X0132600Y0073067D02*
X0132376Y0073067D01*
X0132376Y0074665D02*
X0132737Y0074665D01*
X0132376Y0076264D02*
X0133758Y0076264D01*
X0134081Y0077862D02*
X0132376Y0077862D01*
X0132376Y0079461D02*
X0134081Y0079461D01*
X0134081Y0081059D02*
X0132376Y0081059D01*
X0132376Y0082658D02*
X0134081Y0082658D01*
X0134081Y0084256D02*
X0132376Y0084256D01*
X0132376Y0085855D02*
X0134081Y0085855D01*
X0134081Y0087453D02*
X0132376Y0087453D01*
X0132376Y0089052D02*
X0134081Y0089052D01*
X0134081Y0090650D02*
X0132376Y0090650D01*
X0132376Y0092249D02*
X0134081Y0092249D01*
X0134081Y0093847D02*
X0132376Y0093847D01*
X0132376Y0095446D02*
X0134081Y0095446D01*
X0133679Y0097044D02*
X0132376Y0097044D01*
X0132376Y0098643D02*
X0132704Y0098643D01*
X0132600Y0100241D02*
X0132376Y0100241D01*
X0134739Y0105037D02*
X0141955Y0105037D01*
X0141955Y0106635D02*
X0136338Y0106635D01*
X0137936Y0108234D02*
X0141955Y0108234D01*
X0141955Y0109832D02*
X0139535Y0109832D01*
X0140250Y0111431D02*
X0141955Y0111431D01*
X0141955Y0113029D02*
X0140250Y0113029D01*
X0140250Y0114628D02*
X0141955Y0114628D01*
X0141955Y0116227D02*
X0140250Y0116227D01*
X0140250Y0117825D02*
X0141955Y0117825D01*
X0141955Y0119424D02*
X0140250Y0119424D01*
X0141275Y0121022D02*
X0141955Y0121022D01*
X0141955Y0122621D02*
X0141731Y0122621D01*
X0141955Y0124219D02*
X0141452Y0124219D01*
X0141955Y0125818D02*
X0140231Y0125818D01*
X0141955Y0127416D02*
X0136313Y0127416D01*
X0136313Y0129015D02*
X0141955Y0129015D01*
X0141955Y0130613D02*
X0136313Y0130613D01*
X0136313Y0132212D02*
X0141955Y0132212D01*
X0141955Y0133810D02*
X0136313Y0133810D01*
X0136313Y0135409D02*
X0141955Y0135409D01*
X0143447Y0137007D02*
X0136313Y0137007D01*
X0136313Y0138606D02*
X0145045Y0138606D01*
X0146644Y0140204D02*
X0136313Y0140204D01*
X0136859Y0141803D02*
X0148242Y0141803D01*
X0149841Y0143401D02*
X0138458Y0143401D01*
X0140056Y0145000D02*
X0151439Y0145000D01*
X0153038Y0146598D02*
X0141655Y0146598D01*
X0143253Y0148197D02*
X0154636Y0148197D01*
X0156235Y0149795D02*
X0144852Y0149795D01*
X0146450Y0151394D02*
X0157833Y0151394D01*
X0159432Y0152992D02*
X0148049Y0152992D01*
X0149647Y0154591D02*
X0161030Y0154591D01*
X0146859Y0169817D02*
X0141775Y0169817D01*
X0137887Y0173704D01*
X0136657Y0174935D01*
X0124322Y0174935D01*
X0124895Y0175508D01*
X0129177Y0179790D01*
X0143185Y0179790D01*
X0143530Y0179445D01*
X0143530Y0173146D01*
X0144760Y0171916D01*
X0146859Y0169817D01*
X0146100Y0170576D02*
X0141016Y0170576D01*
X0139417Y0172174D02*
X0144501Y0172174D01*
X0143530Y0173773D02*
X0137819Y0173773D01*
X0143530Y0175371D02*
X0124759Y0175371D01*
X0126357Y0176970D02*
X0143530Y0176970D01*
X0143530Y0178568D02*
X0127956Y0178568D01*
X0125213Y0181765D02*
X0057733Y0181765D01*
X0056135Y0180167D02*
X0123614Y0180167D01*
X0122016Y0178568D02*
X0028946Y0178568D01*
X0029861Y0179483D02*
X0054848Y0179483D01*
X0055877Y0179910D01*
X0061750Y0185783D01*
X0133588Y0185783D01*
X0134618Y0186209D01*
X0135405Y0186997D01*
X0148644Y0200235D01*
X0148806Y0200073D01*
X0148806Y0195683D01*
X0148038Y0194915D01*
X0148038Y0189259D01*
X0148806Y0188490D01*
X0148806Y0184289D01*
X0148038Y0183521D01*
X0148038Y0177865D01*
X0148975Y0176928D01*
X0154238Y0176928D01*
X0154953Y0177643D01*
X0155668Y0176928D01*
X0160930Y0176928D01*
X0161868Y0177865D01*
X0161868Y0178609D01*
X0162641Y0178609D01*
X0163872Y0179839D01*
X0165971Y0181938D01*
X0166177Y0181852D01*
X0167602Y0181852D01*
X0168918Y0182397D01*
X0169854Y0183333D01*
X0173500Y0183333D01*
X0177174Y0179659D01*
X0174288Y0179659D01*
X0167201Y0172572D01*
X0150043Y0172572D01*
X0147730Y0174886D01*
X0147730Y0181185D01*
X0146155Y0182760D01*
X0144925Y0183990D01*
X0127437Y0183990D01*
X0121925Y0178478D01*
X0064445Y0178478D01*
X0061295Y0175328D01*
X0060065Y0174098D01*
X0060065Y0171468D01*
X0059129Y0170532D01*
X0058584Y0169216D01*
X0058584Y0167792D01*
X0059129Y0166475D01*
X0060137Y0165468D01*
X0061453Y0164923D01*
X0062878Y0164923D01*
X0064194Y0165468D01*
X0065201Y0166475D01*
X0065746Y0167792D01*
X0065746Y0169216D01*
X0065201Y0170532D01*
X0064265Y0171468D01*
X0064265Y0172358D01*
X0066185Y0174278D01*
X0119694Y0174278D01*
X0119120Y0173704D01*
X0113658Y0168242D01*
X0084027Y0168242D01*
X0083092Y0169178D01*
X0081775Y0169723D01*
X0080351Y0169723D01*
X0079034Y0169178D01*
X0078027Y0168170D01*
X0077482Y0166854D01*
X0077482Y0165429D01*
X0078027Y0164113D01*
X0079034Y0163106D01*
X0080351Y0162561D01*
X0081775Y0162561D01*
X0083092Y0163106D01*
X0084027Y0164042D01*
X0115397Y0164042D01*
X0116628Y0165272D01*
X0122090Y0170735D01*
X0125858Y0170735D01*
X0124383Y0169259D01*
X0123172Y0166337D01*
X0123172Y0163175D01*
X0124383Y0160253D01*
X0126619Y0158017D01*
X0129541Y0156806D01*
X0132703Y0156806D01*
X0134436Y0157524D01*
X0124681Y0147769D01*
X0113949Y0147769D01*
X0113013Y0148705D01*
X0111697Y0149250D01*
X0110272Y0149250D01*
X0108956Y0148705D01*
X0107948Y0147698D01*
X0107403Y0146382D01*
X0107403Y0144957D01*
X0107948Y0143641D01*
X0108956Y0142633D01*
X0110272Y0142088D01*
X0111697Y0142088D01*
X0113013Y0142633D01*
X0113949Y0143569D01*
X0124632Y0143569D01*
X0124632Y0130931D01*
X0119967Y0130931D01*
X0119252Y0130215D01*
X0118537Y0130931D01*
X0113274Y0130931D01*
X0112337Y0129993D01*
X0112337Y0129965D01*
X0089768Y0129965D01*
X0089768Y0136210D01*
X0089935Y0136114D01*
X0090393Y0135991D01*
X0092611Y0135991D01*
X0092611Y0139576D01*
X0092980Y0139576D01*
X0092980Y0139944D01*
X0096761Y0139944D01*
X0096761Y0141965D01*
X0096638Y0142423D01*
X0096401Y0142834D01*
X0096066Y0143169D01*
X0095655Y0143406D01*
X0095198Y0143528D01*
X0092980Y0143528D01*
X0092980Y0139944D01*
X0092611Y0139944D01*
X0092611Y0143528D01*
X0090393Y0143528D01*
X0089935Y0143406D01*
X0089525Y0143169D01*
X0089307Y0142951D01*
X0088930Y0143328D01*
X0083274Y0143328D01*
X0082682Y0142736D01*
X0082682Y0143405D01*
X0082918Y0143641D01*
X0083463Y0144957D01*
X0083463Y0146382D01*
X0082918Y0147698D01*
X0081910Y0148705D01*
X0080594Y0149250D01*
X0079170Y0149250D01*
X0077853Y0148705D01*
X0076846Y0147698D01*
X0076301Y0146382D01*
X0076301Y0144957D01*
X0076846Y0143641D01*
X0077082Y0143405D01*
X0077082Y0142560D01*
X0075785Y0142560D01*
X0075785Y0144619D01*
X0074848Y0145556D01*
X0058522Y0145556D01*
X0057585Y0144619D01*
X0057585Y0144139D01*
X0030254Y0144139D01*
X0022839Y0151553D01*
X0022839Y0172462D01*
X0029861Y0179483D01*
X0027347Y0176970D02*
X0062937Y0176970D01*
X0061339Y0175371D02*
X0025749Y0175371D01*
X0024150Y0173773D02*
X0060065Y0173773D01*
X0060065Y0172174D02*
X0022839Y0172174D01*
X0022839Y0170576D02*
X0044414Y0170576D01*
X0044499Y0170661D02*
X0042540Y0168701D01*
X0041480Y0166141D01*
X0041480Y0163370D01*
X0042540Y0160810D01*
X0044499Y0158851D01*
X0047059Y0157791D01*
X0049830Y0157791D01*
X0052390Y0158851D01*
X0054350Y0160810D01*
X0055410Y0163370D01*
X0055410Y0166141D01*
X0054350Y0168701D01*
X0052390Y0170661D01*
X0049830Y0171721D01*
X0047059Y0171721D01*
X0044499Y0170661D01*
X0042816Y0168977D02*
X0022839Y0168977D01*
X0022839Y0167379D02*
X0041992Y0167379D01*
X0041480Y0165780D02*
X0022839Y0165780D01*
X0022839Y0164182D02*
X0041480Y0164182D01*
X0041806Y0162583D02*
X0022839Y0162583D01*
X0022839Y0160985D02*
X0042468Y0160985D01*
X0043964Y0159386D02*
X0022839Y0159386D01*
X0022839Y0157788D02*
X0127171Y0157788D01*
X0125249Y0159386D02*
X0052926Y0159386D01*
X0054422Y0160985D02*
X0124079Y0160985D01*
X0123417Y0162583D02*
X0081830Y0162583D01*
X0080296Y0162583D02*
X0055084Y0162583D01*
X0055410Y0164182D02*
X0077999Y0164182D01*
X0077482Y0165780D02*
X0064506Y0165780D01*
X0065575Y0167379D02*
X0077699Y0167379D01*
X0078834Y0168977D02*
X0065746Y0168977D01*
X0065158Y0170576D02*
X0115992Y0170576D01*
X0117590Y0172174D02*
X0064265Y0172174D01*
X0065680Y0173773D02*
X0119189Y0173773D01*
X0119120Y0173704D02*
X0119120Y0173704D01*
X0121932Y0170576D02*
X0125700Y0170576D01*
X0124266Y0168977D02*
X0120333Y0168977D01*
X0118735Y0167379D02*
X0123604Y0167379D01*
X0123172Y0165780D02*
X0117136Y0165780D01*
X0115538Y0164182D02*
X0123172Y0164182D01*
X0114393Y0168977D02*
X0083292Y0168977D01*
X0059824Y0165780D02*
X0055410Y0165780D01*
X0054898Y0167379D02*
X0058755Y0167379D01*
X0058584Y0168977D02*
X0054074Y0168977D01*
X0052475Y0170576D02*
X0059173Y0170576D01*
X0059332Y0183364D02*
X0126811Y0183364D01*
X0134970Y0186561D02*
X0148806Y0186561D01*
X0148806Y0184962D02*
X0060930Y0184962D01*
X0056208Y0188160D02*
X0030328Y0188160D01*
X0030287Y0188200D02*
X0028712Y0189775D01*
X0027683Y0190202D01*
X0023774Y0190202D01*
X0020435Y0193541D01*
X0020435Y0196298D01*
X0017653Y0199081D01*
X0013718Y0199081D01*
X0010935Y0196298D01*
X0010935Y0192363D01*
X0013718Y0189581D01*
X0016475Y0189581D01*
X0020240Y0185816D01*
X0021028Y0185028D01*
X0022057Y0184602D01*
X0025901Y0184602D01*
X0025901Y0183443D01*
X0018453Y0175996D01*
X0017666Y0175208D01*
X0017239Y0174179D01*
X0017239Y0149837D01*
X0017666Y0148808D01*
X0026294Y0140179D01*
X0026294Y0133760D01*
X0026059Y0133525D01*
X0025513Y0132208D01*
X0025513Y0130784D01*
X0026059Y0129468D01*
X0027066Y0128460D01*
X0028382Y0127915D01*
X0029807Y0127915D01*
X0031123Y0128460D01*
X0032130Y0129468D01*
X0032676Y0130784D01*
X0032676Y0132208D01*
X0032130Y0133525D01*
X0031894Y0133760D01*
X0031894Y0138539D01*
X0057585Y0138539D01*
X0057585Y0135394D01*
X0058522Y0134456D01*
X0063985Y0134456D01*
X0063985Y0120756D01*
X0063172Y0120756D01*
X0062359Y0119943D01*
X0062175Y0120262D01*
X0061840Y0120597D01*
X0061430Y0120834D01*
X0060972Y0120956D01*
X0058460Y0120956D01*
X0058460Y0115881D01*
X0057110Y0115881D01*
X0057110Y0114531D01*
X0058460Y0114531D01*
X0058460Y0109456D01*
X0060972Y0109456D01*
X0061430Y0109579D01*
X0061840Y0109816D01*
X0062175Y0110151D01*
X0062359Y0110469D01*
X0063172Y0109656D01*
X0063731Y0109656D01*
X0063731Y0105718D01*
X0063703Y0105718D01*
X0063326Y0105341D01*
X0063109Y0105558D01*
X0062699Y0105795D01*
X0062241Y0105918D01*
X0060023Y0105918D01*
X0060023Y0102334D01*
X0059654Y0102334D01*
X0059654Y0101965D01*
X0060023Y0101965D01*
X0060023Y0098381D01*
X0062241Y0098381D01*
X0062699Y0098504D01*
X0063109Y0098741D01*
X0063326Y0098958D01*
X0063703Y0098581D01*
X0069360Y0098581D01*
X0070297Y0099518D01*
X0070297Y0104781D01*
X0069360Y0105718D01*
X0069331Y0105718D01*
X0069331Y0109656D01*
X0070398Y0109656D01*
X0071285Y0110544D01*
X0072172Y0109656D01*
X0074928Y0109656D01*
X0074928Y0092957D01*
X0054270Y0092957D01*
X0046429Y0100799D01*
X0045399Y0101225D01*
X0023485Y0101225D01*
X0023249Y0101461D01*
X0021933Y0102006D01*
X0020508Y0102006D01*
X0019192Y0101461D01*
X0018185Y0100454D01*
X0017639Y0099138D01*
X0017639Y0097713D01*
X0018177Y0096414D01*
X0009800Y0096414D01*
X0009800Y0250200D01*
X0082624Y0250200D01*
X0079947Y0247523D01*
X0079947Y0234080D01*
X0079416Y0234080D01*
X0078821Y0233485D01*
X0078763Y0233586D01*
X0078428Y0233921D01*
X0078018Y0234158D01*
X0077560Y0234280D01*
X0075539Y0234280D01*
X0075539Y0230499D01*
X0075170Y0230499D01*
X0075170Y0230131D01*
X0071586Y0230131D01*
X0071586Y0227913D01*
X0071708Y0227455D01*
X0071945Y0227044D01*
X0072281Y0226709D01*
X0072691Y0226472D01*
X0073149Y0226350D01*
X0075170Y0226350D01*
X0075170Y0230131D01*
X0075539Y0230131D01*
X0075539Y0226350D01*
X0077560Y0226350D01*
X0078018Y0226472D01*
X0078428Y0226709D01*
X0078763Y0227044D01*
X0078821Y0227145D01*
X0079416Y0226550D01*
X0084678Y0226550D01*
X0085616Y0227487D01*
X0085616Y0233143D01*
X0084678Y0234080D01*
X0084147Y0234080D01*
X0084147Y0245784D01*
X0084665Y0246301D01*
X0085322Y0245644D01*
X0091371Y0245644D01*
X0092309Y0246581D01*
X0092309Y0250200D01*
X0092652Y0250200D01*
X0092652Y0246581D01*
X0093589Y0245644D01*
X0099639Y0245644D01*
X0100576Y0246581D01*
X0100576Y0247506D01*
X0103421Y0247506D01*
X0108491Y0242437D01*
X0108491Y0237427D01*
X0107959Y0237427D01*
X0107022Y0236490D01*
X0107022Y0229652D01*
X0107909Y0228765D01*
X0104219Y0228765D01*
X0103282Y0227828D01*
X0103282Y0223811D01*
X0096876Y0217405D01*
X0096876Y0200616D01*
X0096345Y0200616D01*
X0095408Y0199678D01*
X0095408Y0194022D01*
X0096345Y0193085D01*
X0101608Y0193085D01*
X0102323Y0193800D01*
X0103038Y0193085D01*
X0108301Y0193085D01*
X0109238Y0194022D01*
X0109238Y0194750D01*
X0111957Y0194750D01*
X0112893Y0193814D01*
X0114209Y0193269D01*
X0115634Y0193269D01*
X0116950Y0193814D01*
X0117957Y0194822D01*
X0118502Y0196138D01*
X0118502Y0197563D01*
X0117957Y0198879D01*
X0116950Y0199886D01*
X0115634Y0200431D01*
X0114209Y0200431D01*
X0112893Y0199886D01*
X0111957Y0198950D01*
X0109238Y0198950D01*
X0109238Y0199678D01*
X0108301Y0200616D01*
X0103038Y0200616D01*
X0102323Y0199901D01*
X0101608Y0200616D01*
X0101076Y0200616D01*
X0101076Y0215666D01*
X0105464Y0220054D01*
X0109482Y0220054D01*
X0110419Y0220991D01*
X0110419Y0227828D01*
X0109532Y0228715D01*
X0111649Y0228715D01*
X0110762Y0227828D01*
X0110762Y0220991D01*
X0111699Y0220054D01*
X0116962Y0220054D01*
X0117899Y0220991D01*
X0117899Y0221609D01*
X0138171Y0221609D01*
X0144405Y0215376D01*
X0144405Y0203916D01*
X0131872Y0191383D01*
X0060034Y0191383D01*
X0059004Y0190956D01*
X0053132Y0185083D01*
X0031501Y0185083D01*
X0031501Y0186384D01*
X0031075Y0187413D01*
X0030287Y0188200D01*
X0031427Y0186561D02*
X0054609Y0186561D01*
X0057806Y0189758D02*
X0028729Y0189758D01*
X0022619Y0191357D02*
X0059971Y0191357D01*
X0060122Y0195631D02*
X0058697Y0195631D01*
X0057381Y0196177D01*
X0056445Y0197113D01*
X0034918Y0197113D01*
X0033687Y0198343D01*
X0029012Y0203018D01*
X0024028Y0203018D01*
X0022798Y0204248D01*
X0022798Y0204248D01*
X0017465Y0209581D01*
X0013718Y0209581D01*
X0010935Y0212363D01*
X0010935Y0216298D01*
X0013718Y0219081D01*
X0017653Y0219081D01*
X0019908Y0216825D01*
X0019908Y0220784D01*
X0019382Y0221310D01*
X0017653Y0219581D01*
X0013718Y0219581D01*
X0010935Y0222363D01*
X0010935Y0226298D01*
X0013718Y0229081D01*
X0017653Y0229081D01*
X0020435Y0226298D01*
X0020435Y0226196D01*
X0021352Y0225279D01*
X0024108Y0222523D01*
X0024108Y0216224D01*
X0027208Y0213124D01*
X0056736Y0213124D01*
X0057223Y0212636D01*
X0058547Y0212636D01*
X0059863Y0212091D01*
X0060871Y0211084D01*
X0061416Y0209767D01*
X0061416Y0208343D01*
X0060871Y0207027D01*
X0059863Y0206019D01*
X0058547Y0205474D01*
X0057122Y0205474D01*
X0055806Y0206019D01*
X0054799Y0207027D01*
X0054254Y0208343D01*
X0054254Y0208924D01*
X0025469Y0208924D01*
X0024239Y0210154D01*
X0024239Y0210154D01*
X0021138Y0213254D01*
X0020435Y0213957D01*
X0020435Y0212551D01*
X0025767Y0207218D01*
X0030752Y0207218D01*
X0036657Y0201313D01*
X0056445Y0201313D01*
X0057381Y0202248D01*
X0058697Y0202794D01*
X0060122Y0202794D01*
X0061438Y0202248D01*
X0062445Y0201241D01*
X0062991Y0199925D01*
X0062991Y0198500D01*
X0062445Y0197184D01*
X0061438Y0196177D01*
X0060122Y0195631D01*
X0061379Y0196152D02*
X0095408Y0196152D01*
X0095408Y0194554D02*
X0020435Y0194554D01*
X0020435Y0196152D02*
X0057440Y0196152D01*
X0062680Y0197751D02*
X0095408Y0197751D01*
X0095408Y0199349D02*
X0062991Y0199349D01*
X0062567Y0200948D02*
X0096876Y0200948D01*
X0096876Y0202546D02*
X0060719Y0202546D01*
X0058099Y0202546D02*
X0035424Y0202546D01*
X0033825Y0204145D02*
X0096876Y0204145D01*
X0096876Y0205743D02*
X0059197Y0205743D01*
X0061001Y0207342D02*
X0096876Y0207342D01*
X0096876Y0208940D02*
X0061416Y0208940D01*
X0061096Y0210539D02*
X0096876Y0210539D01*
X0096876Y0212137D02*
X0059752Y0212137D01*
X0054668Y0207342D02*
X0025644Y0207342D01*
X0025452Y0208940D02*
X0024045Y0208940D01*
X0023854Y0210539D02*
X0022447Y0210539D01*
X0022255Y0212137D02*
X0020848Y0212137D01*
X0020657Y0213736D02*
X0020435Y0213736D01*
X0019908Y0216933D02*
X0019801Y0216933D01*
X0019908Y0218531D02*
X0018202Y0218531D01*
X0018202Y0220130D02*
X0019908Y0220130D01*
X0024108Y0220130D02*
X0099601Y0220130D01*
X0101199Y0221728D02*
X0024108Y0221728D01*
X0023304Y0223327D02*
X0062121Y0223327D01*
X0062499Y0222948D02*
X0061563Y0223884D01*
X0023162Y0223884D01*
X0017465Y0229581D01*
X0013718Y0229581D01*
X0010935Y0232363D01*
X0010935Y0236298D01*
X0013718Y0239081D01*
X0017653Y0239081D01*
X0020435Y0236298D01*
X0020435Y0232551D01*
X0024901Y0228084D01*
X0055395Y0228084D01*
X0055264Y0228215D01*
X0029012Y0228215D01*
X0021532Y0235695D01*
X0020302Y0236925D01*
X0020302Y0240075D01*
X0019224Y0241152D01*
X0017653Y0239581D01*
X0013718Y0239581D01*
X0010935Y0242363D01*
X0010935Y0246298D01*
X0013718Y0249081D01*
X0017653Y0249081D01*
X0020435Y0246298D01*
X0020435Y0245881D01*
X0020958Y0245358D01*
X0024502Y0241815D01*
X0024502Y0238665D01*
X0030752Y0232415D01*
X0055264Y0232415D01*
X0056200Y0233351D01*
X0057516Y0233896D01*
X0058941Y0233896D01*
X0060257Y0233351D01*
X0061264Y0232343D01*
X0061809Y0231027D01*
X0061809Y0229603D01*
X0061264Y0228286D01*
X0061062Y0228084D01*
X0061563Y0228084D01*
X0062499Y0229020D01*
X0063815Y0229565D01*
X0065240Y0229565D01*
X0066556Y0229020D01*
X0067563Y0228013D01*
X0068109Y0226697D01*
X0068109Y0225272D01*
X0067563Y0223956D01*
X0066556Y0222948D01*
X0065240Y0222403D01*
X0063815Y0222403D01*
X0062499Y0222948D01*
X0066934Y0223327D02*
X0102798Y0223327D01*
X0103282Y0224925D02*
X0067965Y0224925D01*
X0068109Y0226524D02*
X0072602Y0226524D01*
X0071586Y0228122D02*
X0067454Y0228122D01*
X0071586Y0229721D02*
X0061809Y0229721D01*
X0061688Y0231319D02*
X0071586Y0231319D01*
X0071586Y0230499D02*
X0071586Y0232717D01*
X0071708Y0233175D01*
X0071945Y0233586D01*
X0072281Y0233921D01*
X0072691Y0234158D01*
X0073149Y0234280D01*
X0075170Y0234280D01*
X0075170Y0230499D01*
X0071586Y0230499D01*
X0071640Y0232918D02*
X0060690Y0232918D01*
X0055767Y0232918D02*
X0030249Y0232918D01*
X0028650Y0234516D02*
X0079947Y0234516D01*
X0079947Y0236115D02*
X0027052Y0236115D01*
X0025453Y0237713D02*
X0079947Y0237713D01*
X0079947Y0239312D02*
X0024502Y0239312D01*
X0024502Y0240910D02*
X0079947Y0240910D01*
X0079947Y0242509D02*
X0023807Y0242509D01*
X0022209Y0244107D02*
X0079947Y0244107D01*
X0079947Y0245706D02*
X0020610Y0245706D01*
X0019429Y0247304D02*
X0079947Y0247304D01*
X0081327Y0248903D02*
X0017830Y0248903D01*
X0013540Y0248903D02*
X0009800Y0248903D01*
X0009800Y0247304D02*
X0011941Y0247304D01*
X0010935Y0245706D02*
X0009800Y0245706D01*
X0009800Y0244107D02*
X0010935Y0244107D01*
X0010935Y0242509D02*
X0009800Y0242509D01*
X0009800Y0240910D02*
X0012388Y0240910D01*
X0009800Y0239312D02*
X0020302Y0239312D01*
X0020302Y0237713D02*
X0019020Y0237713D01*
X0020435Y0236115D02*
X0021112Y0236115D01*
X0020435Y0234516D02*
X0022711Y0234516D01*
X0024309Y0232918D02*
X0020435Y0232918D01*
X0021666Y0231319D02*
X0025908Y0231319D01*
X0027506Y0229721D02*
X0023265Y0229721D01*
X0024863Y0228122D02*
X0055357Y0228122D01*
X0061100Y0228122D02*
X0061601Y0228122D01*
X0075170Y0228122D02*
X0075539Y0228122D01*
X0075539Y0226524D02*
X0075170Y0226524D01*
X0078107Y0226524D02*
X0103282Y0226524D01*
X0103576Y0228122D02*
X0085616Y0228122D01*
X0085616Y0229721D02*
X0107022Y0229721D01*
X0107022Y0231319D02*
X0085616Y0231319D01*
X0085616Y0232918D02*
X0107022Y0232918D01*
X0107022Y0234516D02*
X0084147Y0234516D01*
X0084147Y0236115D02*
X0107022Y0236115D01*
X0108491Y0237713D02*
X0084147Y0237713D01*
X0084147Y0239312D02*
X0108491Y0239312D01*
X0108491Y0240910D02*
X0084147Y0240910D01*
X0084147Y0242509D02*
X0108419Y0242509D01*
X0106820Y0244107D02*
X0084147Y0244107D01*
X0084147Y0245706D02*
X0085260Y0245706D01*
X0091433Y0245706D02*
X0093527Y0245706D01*
X0092652Y0247304D02*
X0092309Y0247304D01*
X0092309Y0248903D02*
X0092652Y0248903D01*
X0099701Y0245706D02*
X0105222Y0245706D01*
X0103623Y0247304D02*
X0100576Y0247304D01*
X0106667Y0250200D02*
X0165818Y0250200D01*
X0165358Y0249567D01*
X0164934Y0248734D01*
X0164645Y0247846D01*
X0164517Y0247035D01*
X0169855Y0247035D01*
X0169855Y0245879D01*
X0164517Y0245879D01*
X0164645Y0245067D01*
X0164934Y0244179D01*
X0165358Y0243347D01*
X0165907Y0242591D01*
X0166567Y0241931D01*
X0167323Y0241382D01*
X0168155Y0240958D01*
X0169044Y0240669D01*
X0169855Y0240540D01*
X0169855Y0245879D01*
X0171011Y0245879D01*
X0171011Y0247035D01*
X0174363Y0247035D01*
X0174326Y0246801D01*
X0174326Y0246457D01*
X0178701Y0246457D01*
X0178701Y0246457D01*
X0178701Y0242082D01*
X0179045Y0242082D01*
X0179725Y0242190D01*
X0180380Y0242402D01*
X0180994Y0242715D01*
X0181551Y0243120D01*
X0182038Y0243607D01*
X0182442Y0244164D01*
X0182753Y0244774D01*
X0183036Y0244092D01*
X0184210Y0242917D01*
X0184475Y0242808D01*
X0184475Y0235905D01*
X0183879Y0236500D01*
X0182563Y0237046D01*
X0181138Y0237046D01*
X0179822Y0236500D01*
X0178886Y0235565D01*
X0158933Y0235565D01*
X0152540Y0229172D01*
X0151217Y0229172D01*
X0149901Y0228626D01*
X0148893Y0227619D01*
X0148348Y0226303D01*
X0148348Y0224878D01*
X0148893Y0223562D01*
X0149363Y0223092D01*
X0148768Y0222846D01*
X0146811Y0220889D01*
X0140917Y0226783D01*
X0139888Y0227209D01*
X0117899Y0227209D01*
X0117899Y0227828D01*
X0116962Y0228765D01*
X0113272Y0228765D01*
X0114159Y0229652D01*
X0114159Y0236490D01*
X0113222Y0237427D01*
X0112691Y0237427D01*
X0112691Y0244177D01*
X0106667Y0250200D01*
X0107965Y0248903D02*
X0165020Y0248903D01*
X0164560Y0247304D02*
X0109563Y0247304D01*
X0111162Y0245706D02*
X0164544Y0245706D01*
X0164970Y0244107D02*
X0112691Y0244107D01*
X0112691Y0242509D02*
X0165989Y0242509D01*
X0168300Y0240910D02*
X0112691Y0240910D01*
X0112691Y0239312D02*
X0184475Y0239312D01*
X0184475Y0240910D02*
X0172566Y0240910D01*
X0172711Y0240958D02*
X0173543Y0241382D01*
X0174299Y0241931D01*
X0174959Y0242591D01*
X0175508Y0243347D01*
X0175547Y0243423D01*
X0175851Y0243120D01*
X0176408Y0242715D01*
X0177021Y0242402D01*
X0177676Y0242190D01*
X0178356Y0242082D01*
X0178701Y0242082D01*
X0178701Y0246457D01*
X0178701Y0246457D01*
X0174326Y0246457D01*
X0174326Y0246112D01*
X0174363Y0245879D01*
X0171011Y0245879D01*
X0171011Y0240540D01*
X0171823Y0240669D01*
X0172711Y0240958D01*
X0171011Y0240910D02*
X0169855Y0240910D01*
X0169855Y0242509D02*
X0171011Y0242509D01*
X0171011Y0244107D02*
X0169855Y0244107D01*
X0169855Y0245706D02*
X0171011Y0245706D01*
X0174877Y0242509D02*
X0176812Y0242509D01*
X0178701Y0242509D02*
X0178701Y0242509D01*
X0178701Y0244107D02*
X0178701Y0244107D01*
X0178701Y0245706D02*
X0178701Y0245706D01*
X0180589Y0242509D02*
X0184475Y0242509D01*
X0183029Y0244107D02*
X0182401Y0244107D01*
X0188675Y0242808D02*
X0188940Y0242917D01*
X0190114Y0244092D01*
X0190512Y0245052D01*
X0190910Y0244092D01*
X0192084Y0242917D01*
X0193618Y0242282D01*
X0195279Y0242282D01*
X0196814Y0242917D01*
X0197507Y0243611D01*
X0197641Y0243347D01*
X0198190Y0242591D01*
X0198851Y0241931D01*
X0199607Y0241382D01*
X0200439Y0240958D01*
X0201327Y0240669D01*
X0202139Y0240540D01*
X0202139Y0245879D01*
X0203294Y0245879D01*
X0203294Y0240540D01*
X0204106Y0240669D01*
X0204994Y0240958D01*
X0205827Y0241382D01*
X0206582Y0241931D01*
X0207243Y0242591D01*
X0207792Y0243347D01*
X0208216Y0244179D01*
X0208425Y0244824D01*
X0208635Y0244179D01*
X0209059Y0243347D01*
X0209608Y0242591D01*
X0210268Y0241931D01*
X0211024Y0241382D01*
X0211856Y0240958D01*
X0212744Y0240669D01*
X0213556Y0240540D01*
X0213556Y0245879D01*
X0208633Y0245879D01*
X0203295Y0245879D01*
X0203295Y0247035D01*
X0213556Y0247035D01*
X0213556Y0245879D01*
X0214712Y0245879D01*
X0214712Y0247035D01*
X0218064Y0247035D01*
X0218027Y0246801D01*
X0218027Y0246457D01*
X0222401Y0246457D01*
X0222401Y0246457D01*
X0218027Y0246457D01*
X0218027Y0246112D01*
X0218064Y0245879D01*
X0214712Y0245879D01*
X0214712Y0240540D01*
X0215523Y0240669D01*
X0216412Y0240958D01*
X0217244Y0241382D01*
X0217999Y0241931D01*
X0218660Y0242591D01*
X0219209Y0243347D01*
X0219248Y0243423D01*
X0219552Y0243120D01*
X0220109Y0242715D01*
X0220722Y0242402D01*
X0221377Y0242190D01*
X0222057Y0242082D01*
X0222402Y0242082D01*
X0222746Y0242082D01*
X0223426Y0242190D01*
X0224081Y0242402D01*
X0224694Y0242715D01*
X0225252Y0243120D01*
X0225738Y0243607D01*
X0226143Y0244164D01*
X0226454Y0244774D01*
X0226736Y0244092D01*
X0227911Y0242917D01*
X0228176Y0242808D01*
X0228176Y0229610D01*
X0226256Y0227691D01*
X0185739Y0227691D01*
X0186313Y0228264D01*
X0187445Y0229396D01*
X0188675Y0230626D01*
X0188675Y0242808D01*
X0188675Y0242509D02*
X0193070Y0242509D01*
X0190903Y0244107D02*
X0190120Y0244107D01*
X0188675Y0240910D02*
X0200584Y0240910D01*
X0202139Y0240910D02*
X0203294Y0240910D01*
X0204849Y0240910D02*
X0212001Y0240910D01*
X0213556Y0240910D02*
X0214712Y0240910D01*
X0216266Y0240910D02*
X0228176Y0240910D01*
X0228176Y0239312D02*
X0188675Y0239312D01*
X0188675Y0237713D02*
X0228176Y0237713D01*
X0228176Y0236115D02*
X0188675Y0236115D01*
X0188675Y0234516D02*
X0228176Y0234516D01*
X0228176Y0232918D02*
X0188675Y0232918D01*
X0188675Y0231319D02*
X0228176Y0231319D01*
X0228176Y0229721D02*
X0187769Y0229721D01*
X0186171Y0228122D02*
X0226688Y0228122D01*
X0229431Y0224925D02*
X0244774Y0224925D01*
X0244782Y0224917D02*
X0246099Y0224372D01*
X0246432Y0224372D01*
X0250594Y0220210D01*
X0220248Y0220210D01*
X0219706Y0220752D01*
X0218389Y0221298D01*
X0216965Y0221298D01*
X0215649Y0220752D01*
X0214641Y0219745D01*
X0214096Y0218429D01*
X0214096Y0217004D01*
X0214641Y0215688D01*
X0215649Y0214681D01*
X0216965Y0214135D01*
X0218389Y0214135D01*
X0219706Y0214681D01*
X0220713Y0215688D01*
X0220847Y0216010D01*
X0299649Y0216010D01*
X0300880Y0217240D01*
X0301618Y0217979D01*
X0303159Y0217979D01*
X0301059Y0215880D01*
X0280981Y0215880D01*
X0279799Y0214698D01*
X0278569Y0213468D01*
X0278569Y0204248D01*
X0279799Y0203018D01*
X0279799Y0203018D01*
X0284081Y0198736D01*
X0284081Y0190075D01*
X0286143Y0188013D01*
X0286143Y0186689D01*
X0286688Y0185373D01*
X0287696Y0184366D01*
X0288603Y0183990D01*
X0284295Y0183990D01*
X0281588Y0186697D01*
X0280358Y0187927D01*
X0262248Y0187927D01*
X0261903Y0188271D01*
X0261903Y0207169D01*
X0257966Y0211106D01*
X0256736Y0212336D01*
X0232720Y0212336D01*
X0231539Y0213517D01*
X0222713Y0213517D01*
X0218382Y0209187D01*
X0217152Y0207956D01*
X0217152Y0204807D01*
X0216496Y0204151D01*
X0216928Y0205193D01*
X0216928Y0206618D01*
X0216382Y0207934D01*
X0215375Y0208941D01*
X0214059Y0209487D01*
X0212634Y0209487D01*
X0211318Y0208941D01*
X0211005Y0208628D01*
X0210477Y0209903D01*
X0209469Y0210910D01*
X0208153Y0211455D01*
X0206729Y0211455D01*
X0205412Y0210910D01*
X0204477Y0209974D01*
X0190643Y0209974D01*
X0190643Y0210712D01*
X0189413Y0211943D01*
X0187494Y0213862D01*
X0187494Y0216618D01*
X0186439Y0217672D01*
X0191714Y0217672D01*
X0195986Y0213401D01*
X0195986Y0213067D01*
X0196531Y0211751D01*
X0197538Y0210744D01*
X0198855Y0210198D01*
X0200279Y0210198D01*
X0201595Y0210744D01*
X0202603Y0211751D01*
X0203148Y0213067D01*
X0203148Y0214492D01*
X0202603Y0215808D01*
X0201595Y0216815D01*
X0200279Y0217361D01*
X0199946Y0217361D01*
X0194460Y0222846D01*
X0193431Y0223272D01*
X0166880Y0223272D01*
X0167098Y0223491D01*
X0227996Y0223491D01*
X0231145Y0226640D01*
X0232376Y0227870D01*
X0232376Y0242808D01*
X0232640Y0242917D01*
X0233815Y0244092D01*
X0234213Y0245052D01*
X0234610Y0244092D01*
X0235785Y0242917D01*
X0237319Y0242282D01*
X0238980Y0242282D01*
X0240514Y0242917D01*
X0241208Y0243611D01*
X0241342Y0243347D01*
X0241891Y0242591D01*
X0242552Y0241931D01*
X0243307Y0241382D01*
X0244140Y0240958D01*
X0245028Y0240669D01*
X0245839Y0240540D01*
X0245839Y0245879D01*
X0246995Y0245879D01*
X0246995Y0240540D01*
X0247807Y0240669D01*
X0248525Y0240902D01*
X0248348Y0240476D01*
X0248348Y0239051D01*
X0248893Y0237735D01*
X0249901Y0236728D01*
X0251217Y0236183D01*
X0252641Y0236183D01*
X0253958Y0236728D01*
X0254894Y0237664D01*
X0266020Y0237664D01*
X0266807Y0236876D01*
X0274059Y0236876D01*
X0274846Y0237664D01*
X0279118Y0237664D01*
X0279022Y0237638D01*
X0278611Y0237401D01*
X0278276Y0237066D01*
X0278039Y0236655D01*
X0277917Y0236198D01*
X0277917Y0234176D01*
X0281698Y0234176D01*
X0281698Y0233808D01*
X0282066Y0233808D01*
X0282066Y0230224D01*
X0284284Y0230224D01*
X0284742Y0230346D01*
X0285152Y0230583D01*
X0285370Y0230801D01*
X0285747Y0230424D01*
X0291403Y0230424D01*
X0292340Y0231361D01*
X0292340Y0234208D01*
X0294503Y0234208D01*
X0294503Y0227297D01*
X0294805Y0226569D01*
X0294805Y0226059D01*
X0295350Y0224743D01*
X0295586Y0224507D01*
X0295586Y0224388D01*
X0295258Y0224060D01*
X0291785Y0224060D01*
X0292124Y0224878D01*
X0292124Y0226303D01*
X0291579Y0227619D01*
X0290572Y0228626D01*
X0289256Y0229172D01*
X0287831Y0229172D01*
X0286515Y0228626D01*
X0285579Y0227691D01*
X0256342Y0227691D01*
X0251180Y0232853D01*
X0251180Y0234177D01*
X0250634Y0235493D01*
X0249627Y0236500D01*
X0248311Y0237046D01*
X0246886Y0237046D01*
X0245570Y0236500D01*
X0244563Y0235493D01*
X0244017Y0234177D01*
X0244017Y0232752D01*
X0244563Y0231436D01*
X0244943Y0231055D01*
X0244782Y0230989D01*
X0243775Y0229981D01*
X0243230Y0228665D01*
X0243230Y0227240D01*
X0243775Y0225924D01*
X0244782Y0224917D01*
X0243527Y0226524D02*
X0231029Y0226524D01*
X0232376Y0228122D02*
X0243230Y0228122D01*
X0243667Y0229721D02*
X0232376Y0229721D01*
X0232376Y0231319D02*
X0244679Y0231319D01*
X0244017Y0232918D02*
X0232376Y0232918D01*
X0232376Y0234516D02*
X0244158Y0234516D01*
X0245184Y0236115D02*
X0232376Y0236115D01*
X0232376Y0237713D02*
X0248915Y0237713D01*
X0248348Y0239312D02*
X0232376Y0239312D01*
X0232376Y0240910D02*
X0244285Y0240910D01*
X0245839Y0240910D02*
X0246995Y0240910D01*
X0246995Y0242509D02*
X0245839Y0242509D01*
X0245839Y0244107D02*
X0246995Y0244107D01*
X0246995Y0245706D02*
X0245839Y0245706D01*
X0246995Y0245879D02*
X0246995Y0247035D01*
X0252334Y0247035D01*
X0252205Y0247846D01*
X0251916Y0248734D01*
X0251492Y0249567D01*
X0251032Y0250200D01*
X0288412Y0250200D01*
X0288412Y0246272D01*
X0287476Y0245336D01*
X0286931Y0244019D01*
X0286931Y0242595D01*
X0287234Y0241864D01*
X0273107Y0241864D01*
X0272319Y0241076D01*
X0268547Y0241076D01*
X0267760Y0241864D01*
X0254894Y0241864D01*
X0253958Y0242800D01*
X0252641Y0243345D01*
X0251491Y0243345D01*
X0251492Y0243347D01*
X0251916Y0244179D01*
X0252205Y0245067D01*
X0252334Y0245879D01*
X0246995Y0245879D01*
X0251880Y0244107D02*
X0286967Y0244107D01*
X0286966Y0242509D02*
X0254248Y0242509D01*
X0252306Y0245706D02*
X0287846Y0245706D01*
X0288412Y0247304D02*
X0252291Y0247304D01*
X0251831Y0248903D02*
X0288412Y0248903D01*
X0277917Y0236115D02*
X0250013Y0236115D01*
X0251039Y0234516D02*
X0277917Y0234516D01*
X0277917Y0233808D02*
X0277917Y0231787D01*
X0278039Y0231329D01*
X0278276Y0230918D01*
X0278611Y0230583D01*
X0279022Y0230346D01*
X0279480Y0230224D01*
X0281698Y0230224D01*
X0281698Y0233808D01*
X0277917Y0233808D01*
X0277917Y0232918D02*
X0251180Y0232918D01*
X0252714Y0231319D02*
X0278045Y0231319D01*
X0281698Y0231319D02*
X0282066Y0231319D01*
X0282066Y0232918D02*
X0281698Y0232918D01*
X0286011Y0228122D02*
X0255911Y0228122D01*
X0254312Y0229721D02*
X0294503Y0229721D01*
X0294503Y0231319D02*
X0292299Y0231319D01*
X0292340Y0232918D02*
X0294503Y0232918D01*
X0294503Y0228122D02*
X0291076Y0228122D01*
X0292033Y0226524D02*
X0294805Y0226524D01*
X0295274Y0224925D02*
X0292124Y0224925D01*
X0300572Y0216933D02*
X0302112Y0216933D01*
X0312511Y0216273D02*
X0314403Y0218166D01*
X0314403Y0231357D01*
X0314803Y0231757D01*
X0315459Y0231101D01*
X0319147Y0231101D01*
X0319803Y0231757D01*
X0320302Y0231259D01*
X0320302Y0227374D01*
X0319366Y0226438D01*
X0318820Y0225122D01*
X0318820Y0223697D01*
X0319366Y0222381D01*
X0320373Y0221374D01*
X0321689Y0220828D01*
X0323114Y0220828D01*
X0324430Y0221374D01*
X0325437Y0222381D01*
X0325983Y0223697D01*
X0325983Y0224320D01*
X0326807Y0223978D01*
X0328232Y0223978D01*
X0329548Y0224523D01*
X0330556Y0225531D01*
X0330890Y0226337D01*
X0332994Y0224233D01*
X0332994Y0222910D01*
X0333539Y0221594D01*
X0334546Y0220586D01*
X0335862Y0220041D01*
X0337287Y0220041D01*
X0338603Y0220586D01*
X0339611Y0221594D01*
X0340023Y0222589D01*
X0340058Y0222555D01*
X0341374Y0222009D01*
X0342799Y0222009D01*
X0344115Y0222555D01*
X0345123Y0223562D01*
X0345668Y0224878D01*
X0345668Y0226303D01*
X0345123Y0227619D01*
X0344403Y0228338D01*
X0344403Y0231357D01*
X0344803Y0231757D01*
X0345459Y0231101D01*
X0349147Y0231101D01*
X0349803Y0231757D01*
X0350203Y0231357D01*
X0350203Y0225779D01*
X0349287Y0224863D01*
X0348742Y0223547D01*
X0348742Y0222122D01*
X0349287Y0220806D01*
X0350294Y0219799D01*
X0351610Y0219254D01*
X0353035Y0219254D01*
X0354351Y0219799D01*
X0355359Y0220806D01*
X0355904Y0222122D01*
X0355904Y0223547D01*
X0355359Y0224863D01*
X0354403Y0225819D01*
X0354403Y0231357D01*
X0354803Y0231757D01*
X0355459Y0231101D01*
X0359147Y0231101D01*
X0359803Y0231757D01*
X0360459Y0231101D01*
X0364147Y0231101D01*
X0364803Y0231757D01*
X0365459Y0231101D01*
X0369147Y0231101D01*
X0369803Y0231757D01*
X0370459Y0231101D01*
X0374147Y0231101D01*
X0375084Y0232038D01*
X0375084Y0234931D01*
X0377807Y0234931D01*
X0381719Y0231020D01*
X0381719Y0222125D01*
X0381517Y0222327D01*
X0380201Y0222872D01*
X0378776Y0222872D01*
X0377460Y0222327D01*
X0376452Y0221320D01*
X0375907Y0220004D01*
X0375907Y0218579D01*
X0376452Y0217263D01*
X0377460Y0216255D01*
X0378776Y0215710D01*
X0379750Y0215710D01*
X0379750Y0214302D01*
X0379019Y0214605D01*
X0377595Y0214605D01*
X0376279Y0214060D01*
X0375271Y0213052D01*
X0374726Y0211736D01*
X0374726Y0210412D01*
X0374681Y0210368D01*
X0360114Y0210368D01*
X0358884Y0209138D01*
X0350203Y0200456D01*
X0350203Y0198916D01*
X0349305Y0199815D01*
X0349305Y0202051D01*
X0345761Y0205594D01*
X0345761Y0209925D01*
X0340643Y0215043D01*
X0339413Y0216273D01*
X0312511Y0216273D01*
X0313170Y0216933D02*
X0376782Y0216933D01*
X0375927Y0218531D02*
X0314403Y0218531D01*
X0314403Y0220130D02*
X0335648Y0220130D01*
X0337501Y0220130D02*
X0349963Y0220130D01*
X0348905Y0221728D02*
X0339666Y0221728D01*
X0344887Y0223327D02*
X0348742Y0223327D01*
X0349349Y0224925D02*
X0345668Y0224925D01*
X0345576Y0226524D02*
X0350203Y0226524D01*
X0350203Y0228122D02*
X0344619Y0228122D01*
X0344403Y0229721D02*
X0350203Y0229721D01*
X0350203Y0231319D02*
X0349366Y0231319D01*
X0345241Y0231319D02*
X0344403Y0231319D01*
X0354403Y0231319D02*
X0355241Y0231319D01*
X0354403Y0229721D02*
X0381719Y0229721D01*
X0381719Y0228122D02*
X0354403Y0228122D01*
X0354403Y0226524D02*
X0381719Y0226524D01*
X0381719Y0224925D02*
X0355297Y0224925D01*
X0355904Y0223327D02*
X0381719Y0223327D01*
X0376861Y0221728D02*
X0355741Y0221728D01*
X0354682Y0220130D02*
X0375959Y0220130D01*
X0379750Y0215334D02*
X0340352Y0215334D01*
X0341951Y0213736D02*
X0375955Y0213736D01*
X0374892Y0212137D02*
X0343549Y0212137D01*
X0345148Y0210539D02*
X0374726Y0210539D01*
X0380358Y0203806D02*
X0381719Y0205166D01*
X0381719Y0178298D01*
X0379177Y0180840D01*
X0374689Y0180840D01*
X0374925Y0181076D01*
X0375162Y0181486D01*
X0375284Y0181944D01*
X0375284Y0186512D01*
X0375284Y0191079D01*
X0375162Y0191537D01*
X0374925Y0191948D01*
X0374589Y0192283D01*
X0374179Y0192520D01*
X0373721Y0192643D01*
X0372303Y0192643D01*
X0370885Y0192643D01*
X0370427Y0192520D01*
X0370017Y0192283D01*
X0369682Y0191948D01*
X0369667Y0191922D01*
X0369403Y0192186D01*
X0369403Y0192482D01*
X0369571Y0192482D01*
X0370887Y0193027D01*
X0371894Y0194034D01*
X0372439Y0195351D01*
X0372439Y0196775D01*
X0371894Y0198092D01*
X0370887Y0199099D01*
X0369571Y0199644D01*
X0368146Y0199644D01*
X0366830Y0199099D01*
X0365822Y0198092D01*
X0365277Y0196775D01*
X0365277Y0195452D01*
X0365203Y0195378D01*
X0365203Y0192186D01*
X0364803Y0191786D01*
X0364147Y0192443D01*
X0360459Y0192443D01*
X0359803Y0191786D01*
X0359403Y0192186D01*
X0359403Y0200173D01*
X0363035Y0203806D01*
X0380358Y0203806D01*
X0380697Y0204145D02*
X0381719Y0204145D01*
X0381719Y0202546D02*
X0361776Y0202546D01*
X0360177Y0200948D02*
X0381719Y0200948D01*
X0381719Y0199349D02*
X0370283Y0199349D01*
X0372035Y0197751D02*
X0381719Y0197751D01*
X0381719Y0196152D02*
X0372439Y0196152D01*
X0372109Y0194554D02*
X0381719Y0194554D01*
X0381719Y0192955D02*
X0370713Y0192955D01*
X0372303Y0192643D02*
X0372303Y0186512D01*
X0372303Y0186512D01*
X0372303Y0192643D01*
X0372303Y0191357D02*
X0372303Y0191357D01*
X0372303Y0189758D02*
X0372303Y0189758D01*
X0372303Y0188160D02*
X0372303Y0188160D01*
X0372303Y0186561D02*
X0372303Y0186561D01*
X0372303Y0186512D02*
X0375284Y0186512D01*
X0372303Y0186512D01*
X0372303Y0186512D01*
X0375284Y0186561D02*
X0381719Y0186561D01*
X0381719Y0184962D02*
X0375284Y0184962D01*
X0375284Y0183364D02*
X0381719Y0183364D01*
X0381719Y0181765D02*
X0375236Y0181765D01*
X0379850Y0180167D02*
X0381719Y0180167D01*
X0381719Y0178568D02*
X0381449Y0178568D01*
X0381719Y0188160D02*
X0375284Y0188160D01*
X0375284Y0189758D02*
X0381719Y0189758D01*
X0381719Y0191357D02*
X0375210Y0191357D01*
X0365203Y0192955D02*
X0359403Y0192955D01*
X0359403Y0194554D02*
X0365203Y0194554D01*
X0365277Y0196152D02*
X0359403Y0196152D01*
X0359403Y0197751D02*
X0365681Y0197751D01*
X0367434Y0199349D02*
X0359403Y0199349D01*
X0353891Y0204145D02*
X0347211Y0204145D01*
X0345761Y0205743D02*
X0355490Y0205743D01*
X0357088Y0207342D02*
X0345761Y0207342D01*
X0345761Y0208940D02*
X0358687Y0208940D01*
X0352293Y0202546D02*
X0348810Y0202546D01*
X0349305Y0200948D02*
X0350694Y0200948D01*
X0350203Y0199349D02*
X0349770Y0199349D01*
X0335203Y0199349D02*
X0288281Y0199349D01*
X0288281Y0200476D02*
X0287051Y0201706D01*
X0282769Y0205988D01*
X0282769Y0206334D01*
X0283894Y0205868D01*
X0284962Y0205868D01*
X0284962Y0205193D01*
X0285507Y0203877D01*
X0286515Y0202870D01*
X0287831Y0202324D01*
X0289256Y0202324D01*
X0290572Y0202870D01*
X0291508Y0203806D01*
X0293350Y0203806D01*
X0294580Y0205036D01*
X0296500Y0206955D01*
X0305555Y0206955D01*
X0305646Y0207046D01*
X0305980Y0206239D01*
X0306987Y0205232D01*
X0308303Y0204687D01*
X0309728Y0204687D01*
X0311044Y0205232D01*
X0311980Y0206168D01*
X0334918Y0206168D01*
X0335203Y0205882D01*
X0335203Y0192186D01*
X0334803Y0191786D01*
X0334147Y0192443D01*
X0330459Y0192443D01*
X0329803Y0191786D01*
X0329147Y0192443D01*
X0325459Y0192443D01*
X0324803Y0191786D01*
X0324147Y0192443D01*
X0320459Y0192443D01*
X0319803Y0191786D01*
X0319147Y0192443D01*
X0315459Y0192443D01*
X0314803Y0191786D01*
X0314403Y0192186D01*
X0314403Y0194039D01*
X0313778Y0194664D01*
X0313778Y0195988D01*
X0313233Y0197304D01*
X0312225Y0198311D01*
X0310909Y0198857D01*
X0309485Y0198857D01*
X0308168Y0198311D01*
X0307161Y0197304D01*
X0306616Y0195988D01*
X0306616Y0194563D01*
X0307161Y0193247D01*
X0307966Y0192443D01*
X0305459Y0192443D01*
X0304803Y0191786D01*
X0304147Y0192443D01*
X0300459Y0192443D01*
X0299803Y0191786D01*
X0299147Y0192443D01*
X0295459Y0192443D01*
X0294522Y0191505D01*
X0294522Y0183990D01*
X0290845Y0183990D01*
X0291753Y0184366D01*
X0292760Y0185373D01*
X0293305Y0186689D01*
X0293305Y0188114D01*
X0292760Y0189430D01*
X0291753Y0190437D01*
X0290437Y0190983D01*
X0289113Y0190983D01*
X0288281Y0191815D01*
X0288281Y0200476D01*
X0287810Y0200948D02*
X0335203Y0200948D01*
X0335203Y0202546D02*
X0289791Y0202546D01*
X0287296Y0202546D02*
X0286211Y0202546D01*
X0285397Y0204145D02*
X0284613Y0204145D01*
X0284962Y0205743D02*
X0283014Y0205743D01*
X0280271Y0202546D02*
X0261903Y0202546D01*
X0261903Y0200948D02*
X0281870Y0200948D01*
X0283468Y0199349D02*
X0261903Y0199349D01*
X0261903Y0197751D02*
X0284081Y0197751D01*
X0284081Y0196152D02*
X0261903Y0196152D01*
X0261903Y0194554D02*
X0284081Y0194554D01*
X0284081Y0192955D02*
X0261903Y0192955D01*
X0261903Y0191357D02*
X0284081Y0191357D01*
X0284398Y0189758D02*
X0261903Y0189758D01*
X0262015Y0188160D02*
X0285997Y0188160D01*
X0286196Y0186561D02*
X0281724Y0186561D01*
X0283322Y0184962D02*
X0287099Y0184962D01*
X0292350Y0184962D02*
X0294522Y0184962D01*
X0294522Y0186561D02*
X0293252Y0186561D01*
X0293287Y0188160D02*
X0294522Y0188160D01*
X0294522Y0189758D02*
X0292432Y0189758D01*
X0294522Y0191357D02*
X0288739Y0191357D01*
X0288281Y0192955D02*
X0307453Y0192955D01*
X0306620Y0194554D02*
X0288281Y0194554D01*
X0288281Y0196152D02*
X0306684Y0196152D01*
X0307607Y0197751D02*
X0288281Y0197751D01*
X0293689Y0204145D02*
X0335203Y0204145D01*
X0335203Y0205743D02*
X0311556Y0205743D01*
X0306476Y0205743D02*
X0295288Y0205743D01*
X0294580Y0205036D02*
X0294580Y0205036D01*
X0278673Y0204145D02*
X0261903Y0204145D01*
X0261903Y0205743D02*
X0278569Y0205743D01*
X0278569Y0207342D02*
X0261731Y0207342D01*
X0260132Y0208940D02*
X0278569Y0208940D01*
X0278569Y0210539D02*
X0258534Y0210539D01*
X0256935Y0212137D02*
X0278569Y0212137D01*
X0278837Y0213736D02*
X0203148Y0213736D01*
X0202799Y0215334D02*
X0214995Y0215334D01*
X0214126Y0216933D02*
X0201312Y0216933D01*
X0198775Y0218531D02*
X0214138Y0218531D01*
X0215026Y0220130D02*
X0197177Y0220130D01*
X0195578Y0221728D02*
X0249076Y0221728D01*
X0247477Y0223327D02*
X0166934Y0223327D01*
X0156287Y0232918D02*
X0114159Y0232918D01*
X0114159Y0234516D02*
X0157885Y0234516D01*
X0154688Y0231319D02*
X0114159Y0231319D01*
X0114159Y0229721D02*
X0153090Y0229721D01*
X0149396Y0228122D02*
X0117605Y0228122D01*
X0111056Y0228122D02*
X0110125Y0228122D01*
X0110419Y0226524D02*
X0110762Y0226524D01*
X0110762Y0224925D02*
X0110419Y0224925D01*
X0110419Y0223327D02*
X0110762Y0223327D01*
X0110762Y0221728D02*
X0110419Y0221728D01*
X0109558Y0220130D02*
X0111623Y0220130D01*
X0117038Y0220130D02*
X0139651Y0220130D01*
X0141249Y0218531D02*
X0103942Y0218531D01*
X0102343Y0216933D02*
X0142848Y0216933D01*
X0144405Y0215334D02*
X0101076Y0215334D01*
X0101076Y0213736D02*
X0144405Y0213736D01*
X0144405Y0212137D02*
X0101076Y0212137D01*
X0101076Y0210539D02*
X0144405Y0210539D01*
X0144405Y0208940D02*
X0101076Y0208940D01*
X0101076Y0207342D02*
X0144405Y0207342D01*
X0144405Y0205743D02*
X0101076Y0205743D01*
X0101076Y0204145D02*
X0144405Y0204145D01*
X0143035Y0202546D02*
X0101076Y0202546D01*
X0101076Y0200948D02*
X0141437Y0200948D01*
X0139838Y0199349D02*
X0117487Y0199349D01*
X0118425Y0197751D02*
X0138240Y0197751D01*
X0136641Y0196152D02*
X0118502Y0196152D01*
X0117689Y0194554D02*
X0135043Y0194554D01*
X0133444Y0192955D02*
X0021020Y0192955D01*
X0018983Y0197751D02*
X0034280Y0197751D01*
X0032681Y0199349D02*
X0009800Y0199349D01*
X0009800Y0197751D02*
X0012387Y0197751D01*
X0013635Y0199381D02*
X0015585Y0199381D01*
X0015585Y0204231D01*
X0010735Y0204231D01*
X0010735Y0202280D01*
X0013635Y0199381D01*
X0015785Y0199381D02*
X0017735Y0199381D01*
X0020635Y0202280D01*
X0020635Y0204231D01*
X0015785Y0204231D01*
X0015785Y0204431D01*
X0015585Y0204431D01*
X0015585Y0209281D01*
X0013635Y0209281D01*
X0010735Y0206381D01*
X0010735Y0204431D01*
X0015585Y0204431D01*
X0015585Y0204231D01*
X0015785Y0204231D01*
X0015785Y0199381D01*
X0015785Y0200948D02*
X0015585Y0200948D01*
X0015585Y0202546D02*
X0015785Y0202546D01*
X0015785Y0204145D02*
X0015585Y0204145D01*
X0015785Y0204431D02*
X0020635Y0204431D01*
X0020635Y0206381D01*
X0017735Y0209281D01*
X0015785Y0209281D01*
X0015785Y0204431D01*
X0015785Y0205743D02*
X0015585Y0205743D01*
X0015585Y0207342D02*
X0015785Y0207342D01*
X0015785Y0208940D02*
X0015585Y0208940D01*
X0013294Y0208940D02*
X0009800Y0208940D01*
X0009800Y0207342D02*
X0011696Y0207342D01*
X0010735Y0205743D02*
X0009800Y0205743D01*
X0009800Y0204145D02*
X0010735Y0204145D01*
X0010735Y0202546D02*
X0009800Y0202546D01*
X0009800Y0200948D02*
X0012068Y0200948D01*
X0019302Y0200948D02*
X0031083Y0200948D01*
X0029484Y0202546D02*
X0020635Y0202546D01*
X0020635Y0204145D02*
X0022901Y0204145D01*
X0021303Y0205743D02*
X0020635Y0205743D01*
X0019704Y0207342D02*
X0019674Y0207342D01*
X0018106Y0208940D02*
X0018076Y0208940D01*
X0012760Y0210539D02*
X0009800Y0210539D01*
X0009800Y0212137D02*
X0011161Y0212137D01*
X0010935Y0213736D02*
X0009800Y0213736D01*
X0009800Y0215334D02*
X0010935Y0215334D01*
X0011570Y0216933D02*
X0009800Y0216933D01*
X0009800Y0218531D02*
X0013168Y0218531D01*
X0013168Y0220130D02*
X0009800Y0220130D01*
X0009800Y0221728D02*
X0011570Y0221728D01*
X0010935Y0223327D02*
X0009800Y0223327D01*
X0009800Y0224925D02*
X0010935Y0224925D01*
X0011161Y0226524D02*
X0009800Y0226524D01*
X0009800Y0228122D02*
X0012759Y0228122D01*
X0013577Y0229721D02*
X0009800Y0229721D01*
X0009800Y0231319D02*
X0011979Y0231319D01*
X0010935Y0232918D02*
X0009800Y0232918D01*
X0009800Y0234516D02*
X0010935Y0234516D01*
X0010935Y0236115D02*
X0009800Y0236115D01*
X0009800Y0237713D02*
X0012350Y0237713D01*
X0018982Y0240910D02*
X0019466Y0240910D01*
X0018924Y0228122D02*
X0018611Y0228122D01*
X0020209Y0226524D02*
X0020522Y0226524D01*
X0021706Y0224925D02*
X0022121Y0224925D01*
X0024108Y0218531D02*
X0098002Y0218531D01*
X0096876Y0216933D02*
X0024108Y0216933D01*
X0024998Y0215334D02*
X0096876Y0215334D01*
X0096876Y0213736D02*
X0026596Y0213736D01*
X0032227Y0205743D02*
X0056473Y0205743D01*
X0075170Y0229721D02*
X0075539Y0229721D01*
X0075539Y0231319D02*
X0075170Y0231319D01*
X0075170Y0232918D02*
X0075539Y0232918D01*
X0112691Y0237713D02*
X0184475Y0237713D01*
X0184475Y0236115D02*
X0184265Y0236115D01*
X0179436Y0236115D02*
X0114159Y0236115D01*
X0141176Y0226524D02*
X0148440Y0226524D01*
X0148348Y0224925D02*
X0142775Y0224925D01*
X0144373Y0223327D02*
X0149128Y0223327D01*
X0147650Y0221728D02*
X0145972Y0221728D01*
X0147758Y0199349D02*
X0148806Y0199349D01*
X0148806Y0197751D02*
X0146159Y0197751D01*
X0144561Y0196152D02*
X0148806Y0196152D01*
X0148038Y0194554D02*
X0142962Y0194554D01*
X0141364Y0192955D02*
X0148038Y0192955D01*
X0148038Y0191357D02*
X0139765Y0191357D01*
X0138167Y0189758D02*
X0148038Y0189758D01*
X0148806Y0188160D02*
X0136568Y0188160D01*
X0135405Y0186997D02*
X0135405Y0186997D01*
X0145551Y0183364D02*
X0148038Y0183364D01*
X0148038Y0181765D02*
X0147149Y0181765D01*
X0147730Y0180167D02*
X0148038Y0180167D01*
X0148038Y0178568D02*
X0147730Y0178568D01*
X0147730Y0176970D02*
X0148933Y0176970D01*
X0147730Y0175371D02*
X0170000Y0175371D01*
X0168401Y0173773D02*
X0148843Y0173773D01*
X0154280Y0176970D02*
X0155626Y0176970D01*
X0160973Y0176970D02*
X0171599Y0176970D01*
X0173197Y0178568D02*
X0161868Y0178568D01*
X0164200Y0180167D02*
X0176666Y0180167D01*
X0175068Y0181765D02*
X0165798Y0181765D01*
X0177763Y0188160D02*
X0182136Y0188160D01*
X0181790Y0188303D02*
X0183107Y0187757D01*
X0184531Y0187757D01*
X0185847Y0188303D01*
X0186855Y0189310D01*
X0187400Y0190626D01*
X0187400Y0192051D01*
X0186855Y0193367D01*
X0186653Y0193569D01*
X0189420Y0193569D01*
X0189420Y0191339D01*
X0191561Y0191339D01*
X0191561Y0191339D01*
X0189420Y0191339D01*
X0189420Y0188739D01*
X0189543Y0188282D01*
X0189780Y0187871D01*
X0190115Y0187536D01*
X0190526Y0187299D01*
X0190983Y0187176D01*
X0191693Y0187176D01*
X0192402Y0187176D01*
X0192860Y0187299D01*
X0192994Y0187376D01*
X0193241Y0187376D01*
X0192830Y0186384D01*
X0192830Y0183695D01*
X0193256Y0182666D01*
X0194044Y0181878D01*
X0195225Y0180697D01*
X0196254Y0180271D01*
X0201239Y0180271D01*
X0201475Y0180035D01*
X0202792Y0179490D01*
X0204216Y0179490D01*
X0205532Y0180035D01*
X0205768Y0180271D01*
X0214691Y0180271D01*
X0215720Y0180697D01*
X0216901Y0181878D01*
X0217689Y0182666D01*
X0218115Y0183695D01*
X0218115Y0186384D01*
X0217704Y0187376D01*
X0221888Y0187376D01*
X0222022Y0187299D01*
X0222480Y0187176D01*
X0223189Y0187176D01*
X0223898Y0187176D01*
X0224356Y0187299D01*
X0224490Y0187376D01*
X0227049Y0187376D01*
X0225885Y0186894D01*
X0224877Y0185887D01*
X0224332Y0184571D01*
X0224332Y0183146D01*
X0224877Y0181830D01*
X0225885Y0180822D01*
X0227201Y0180277D01*
X0228626Y0180277D01*
X0229450Y0180619D01*
X0229450Y0179209D01*
X0229996Y0177893D01*
X0231003Y0176885D01*
X0232319Y0176340D01*
X0233744Y0176340D01*
X0235060Y0176885D01*
X0236067Y0177893D01*
X0236613Y0179209D01*
X0236613Y0180634D01*
X0236067Y0181950D01*
X0235131Y0182886D01*
X0235131Y0187376D01*
X0240072Y0187376D01*
X0241009Y0188314D01*
X0241009Y0189239D01*
X0245421Y0189239D01*
X0246357Y0188303D01*
X0247673Y0187757D01*
X0249098Y0187757D01*
X0250414Y0188303D01*
X0251422Y0189310D01*
X0251967Y0190626D01*
X0251967Y0192051D01*
X0251422Y0193367D01*
X0250414Y0194374D01*
X0249098Y0194920D01*
X0247673Y0194920D01*
X0246357Y0194374D01*
X0245421Y0193439D01*
X0241009Y0193439D01*
X0241009Y0194364D01*
X0240434Y0194939D01*
X0240572Y0194996D01*
X0241579Y0196003D01*
X0242124Y0197319D01*
X0242124Y0198744D01*
X0241579Y0200060D01*
X0240572Y0201067D01*
X0239339Y0201578D01*
X0239368Y0201650D01*
X0239368Y0203075D01*
X0239066Y0203806D01*
X0251453Y0203806D01*
X0252585Y0202673D01*
X0252585Y0183382D01*
X0253646Y0182321D01*
X0252792Y0182321D01*
X0251475Y0181776D01*
X0250773Y0181074D01*
X0250773Y0182163D01*
X0250851Y0182297D01*
X0250973Y0182755D01*
X0250973Y0183464D01*
X0249940Y0183464D01*
X0249940Y0183465D01*
X0250973Y0183465D01*
X0250973Y0184174D01*
X0250851Y0184632D01*
X0250614Y0185042D01*
X0250278Y0185377D01*
X0249868Y0185614D01*
X0249410Y0185737D01*
X0246811Y0185737D01*
X0244212Y0185737D01*
X0243754Y0185614D01*
X0243344Y0185377D01*
X0243008Y0185042D01*
X0242771Y0184632D01*
X0242649Y0184174D01*
X0242649Y0183465D01*
X0243682Y0183465D01*
X0243682Y0183464D01*
X0242649Y0183464D01*
X0242649Y0182755D01*
X0242771Y0182297D01*
X0242849Y0182163D01*
X0242849Y0172955D01*
X0242771Y0172821D01*
X0242649Y0172363D01*
X0242649Y0171654D01*
X0243682Y0171654D01*
X0243682Y0171654D01*
X0243682Y0171653D01*
X0242649Y0171653D01*
X0242649Y0170944D01*
X0242771Y0170486D01*
X0242849Y0170352D01*
X0242849Y0159175D01*
X0242771Y0159041D01*
X0242649Y0158583D01*
X0242649Y0157874D01*
X0242649Y0157165D01*
X0242771Y0156707D01*
X0242849Y0156573D01*
X0242849Y0150420D01*
X0241856Y0150831D01*
X0240742Y0150831D01*
X0239713Y0150405D01*
X0238138Y0148830D01*
X0237712Y0147801D01*
X0237712Y0145178D01*
X0237476Y0144942D01*
X0237328Y0144586D01*
X0236855Y0145729D01*
X0235847Y0146737D01*
X0234531Y0147282D01*
X0233107Y0147282D01*
X0231790Y0146737D01*
X0231063Y0146009D01*
X0230336Y0146737D01*
X0229019Y0147282D01*
X0227595Y0147282D01*
X0226279Y0146737D01*
X0225271Y0145729D01*
X0225157Y0145455D01*
X0225044Y0145729D01*
X0224036Y0146737D01*
X0222720Y0147282D01*
X0221296Y0147282D01*
X0219979Y0146737D01*
X0218972Y0145729D01*
X0218427Y0144413D01*
X0218427Y0142988D01*
X0218972Y0141672D01*
X0219979Y0140665D01*
X0221296Y0140120D01*
X0222619Y0140120D01*
X0226994Y0135744D01*
X0226994Y0132509D01*
X0226417Y0132509D01*
X0225959Y0132386D01*
X0225825Y0132309D01*
X0217704Y0132309D01*
X0218115Y0133301D01*
X0218115Y0136712D01*
X0218351Y0136948D01*
X0218896Y0138264D01*
X0218896Y0139689D01*
X0218351Y0141005D01*
X0217343Y0142012D01*
X0216027Y0142557D01*
X0214603Y0142557D01*
X0213286Y0142012D01*
X0212279Y0141005D01*
X0211734Y0139689D01*
X0211734Y0138264D01*
X0212279Y0136948D01*
X0212515Y0136712D01*
X0212515Y0133301D01*
X0212926Y0132309D01*
X0202837Y0132309D01*
X0202703Y0132386D01*
X0202245Y0132509D01*
X0201535Y0132509D01*
X0200826Y0132509D01*
X0200368Y0132386D01*
X0200234Y0132309D01*
X0194082Y0132309D01*
X0194493Y0133301D01*
X0194493Y0134427D01*
X0195296Y0134759D01*
X0196304Y0135767D01*
X0196849Y0137083D01*
X0196849Y0138508D01*
X0196304Y0139824D01*
X0195296Y0140831D01*
X0193980Y0141376D01*
X0192555Y0141376D01*
X0191239Y0140831D01*
X0190232Y0139824D01*
X0189687Y0138508D01*
X0189687Y0137780D01*
X0189319Y0137413D01*
X0188893Y0136384D01*
X0188893Y0133301D01*
X0189319Y0132272D01*
X0189593Y0131998D01*
X0189593Y0127477D01*
X0189620Y0127449D01*
X0189620Y0125322D01*
X0190558Y0124384D01*
X0191561Y0124384D01*
X0191561Y0122917D01*
X0186837Y0118193D01*
X0186837Y0087086D01*
X0185919Y0088004D01*
X0185919Y0134148D01*
X0186844Y0134148D01*
X0187781Y0135085D01*
X0187781Y0142793D01*
X0187858Y0142927D01*
X0187981Y0143385D01*
X0187981Y0144094D01*
X0186948Y0144094D01*
X0186948Y0144094D01*
X0186948Y0144095D01*
X0187981Y0144095D01*
X0187981Y0144804D01*
X0187858Y0145262D01*
X0187781Y0145396D01*
X0187781Y0172393D01*
X0188532Y0171642D01*
X0189561Y0171216D01*
X0201240Y0171216D01*
X0201475Y0170980D01*
X0202792Y0170435D01*
X0204216Y0170435D01*
X0205532Y0170980D01*
X0206540Y0171987D01*
X0207085Y0173303D01*
X0207085Y0174728D01*
X0206540Y0176044D01*
X0205532Y0177052D01*
X0204216Y0177597D01*
X0202792Y0177597D01*
X0201475Y0177052D01*
X0201240Y0176816D01*
X0191278Y0176816D01*
X0190129Y0177964D01*
X0189100Y0178391D01*
X0187986Y0178391D01*
X0187781Y0178306D01*
X0187781Y0184600D01*
X0186844Y0185537D01*
X0184716Y0185537D01*
X0184689Y0185565D01*
X0180358Y0185565D01*
X0174502Y0191421D01*
X0173271Y0192651D01*
X0167886Y0192651D01*
X0167033Y0193504D01*
X0167563Y0194034D01*
X0168109Y0195351D01*
X0168109Y0195931D01*
X0182292Y0195931D01*
X0181719Y0195358D01*
X0181719Y0194303D01*
X0180783Y0193367D01*
X0180238Y0192051D01*
X0180238Y0190626D01*
X0180783Y0189310D01*
X0181790Y0188303D01*
X0180597Y0189758D02*
X0176165Y0189758D01*
X0174566Y0191357D02*
X0180238Y0191357D01*
X0180612Y0192955D02*
X0167582Y0192955D01*
X0167778Y0194554D02*
X0181719Y0194554D01*
X0187025Y0192955D02*
X0189420Y0192955D01*
X0189420Y0191357D02*
X0187400Y0191357D01*
X0187040Y0189758D02*
X0189420Y0189758D01*
X0189614Y0188160D02*
X0185502Y0188160D01*
X0187418Y0184962D02*
X0192830Y0184962D01*
X0192903Y0186561D02*
X0179362Y0186561D01*
X0187781Y0183364D02*
X0192967Y0183364D01*
X0194044Y0181878D02*
X0194044Y0181878D01*
X0194157Y0181765D02*
X0187781Y0181765D01*
X0187781Y0180167D02*
X0201343Y0180167D01*
X0201394Y0176970D02*
X0191124Y0176970D01*
X0187781Y0178568D02*
X0229716Y0178568D01*
X0229450Y0180167D02*
X0205664Y0180167D01*
X0205614Y0176970D02*
X0230918Y0176970D01*
X0235145Y0176970D02*
X0242849Y0176970D01*
X0242849Y0178568D02*
X0236347Y0178568D01*
X0236613Y0180167D02*
X0242849Y0180167D01*
X0242849Y0181765D02*
X0236144Y0181765D01*
X0235131Y0183364D02*
X0242649Y0183364D01*
X0242962Y0184962D02*
X0235131Y0184962D01*
X0235131Y0186561D02*
X0252585Y0186561D01*
X0252585Y0184962D02*
X0250660Y0184962D01*
X0250973Y0183364D02*
X0252603Y0183364D01*
X0251465Y0181765D02*
X0250773Y0181765D01*
X0246811Y0183568D02*
X0246811Y0183568D01*
X0246811Y0185737D01*
X0246811Y0183568D01*
X0246811Y0184962D02*
X0246811Y0184962D01*
X0246703Y0188160D02*
X0240855Y0188160D01*
X0240819Y0194554D02*
X0246790Y0194554D01*
X0249982Y0194554D02*
X0252585Y0194554D01*
X0252585Y0196152D02*
X0241641Y0196152D01*
X0242124Y0197751D02*
X0252585Y0197751D01*
X0252585Y0199349D02*
X0241874Y0199349D01*
X0240692Y0200948D02*
X0252585Y0200948D01*
X0252585Y0202546D02*
X0239368Y0202546D01*
X0251592Y0192955D02*
X0252585Y0192955D01*
X0252585Y0191357D02*
X0251967Y0191357D01*
X0251607Y0189758D02*
X0252585Y0189758D01*
X0252585Y0188160D02*
X0250069Y0188160D01*
X0256673Y0177034D02*
X0275469Y0177034D01*
X0278176Y0174327D01*
X0279406Y0173097D01*
X0291615Y0173097D01*
X0291413Y0172895D01*
X0290868Y0171578D01*
X0290868Y0170154D01*
X0291413Y0168838D01*
X0292420Y0167830D01*
X0293736Y0167285D01*
X0295161Y0167285D01*
X0296454Y0167820D01*
X0296380Y0167641D01*
X0296380Y0166217D01*
X0296925Y0164901D01*
X0297932Y0163893D01*
X0299248Y0163348D01*
X0300673Y0163348D01*
X0301989Y0163893D01*
X0302925Y0164829D01*
X0314576Y0164829D01*
X0314351Y0164605D01*
X0313028Y0164605D01*
X0311712Y0164060D01*
X0310704Y0163052D01*
X0310159Y0161736D01*
X0310159Y0160311D01*
X0310704Y0158995D01*
X0311712Y0157988D01*
X0312619Y0157612D01*
X0306468Y0157612D01*
X0305532Y0158548D01*
X0304216Y0159093D01*
X0302792Y0159093D01*
X0301475Y0158548D01*
X0300468Y0157540D01*
X0299923Y0156224D01*
X0299923Y0154799D01*
X0300468Y0153483D01*
X0301475Y0152476D01*
X0302792Y0151931D01*
X0304216Y0151931D01*
X0305532Y0152476D01*
X0306468Y0153412D01*
X0309813Y0153412D01*
X0309813Y0150180D01*
X0310470Y0149524D01*
X0309813Y0148867D01*
X0309813Y0145180D01*
X0310470Y0144524D01*
X0309813Y0143867D01*
X0309813Y0140180D01*
X0310470Y0139524D01*
X0309813Y0138867D01*
X0309813Y0135180D01*
X0310470Y0134524D01*
X0310070Y0134124D01*
X0307767Y0134124D01*
X0307366Y0134290D01*
X0305941Y0134290D01*
X0304625Y0133745D01*
X0303618Y0132737D01*
X0303072Y0131421D01*
X0303072Y0129996D01*
X0303618Y0128680D01*
X0304625Y0127673D01*
X0305375Y0127362D01*
X0304625Y0127052D01*
X0303618Y0126044D01*
X0303072Y0124728D01*
X0303072Y0123303D01*
X0303618Y0121987D01*
X0304625Y0120980D01*
X0305941Y0120435D01*
X0307366Y0120435D01*
X0308682Y0120980D01*
X0309689Y0121987D01*
X0309813Y0122286D01*
X0309813Y0120180D01*
X0310470Y0119524D01*
X0309813Y0118867D01*
X0309813Y0118334D01*
X0309278Y0117799D01*
X0309278Y0117799D01*
X0307359Y0115880D01*
X0307358Y0115880D01*
X0306128Y0114649D01*
X0305296Y0113817D01*
X0303973Y0113817D01*
X0302657Y0113272D01*
X0301649Y0112265D01*
X0301104Y0110949D01*
X0301104Y0109524D01*
X0301649Y0108208D01*
X0302657Y0107200D01*
X0303973Y0106655D01*
X0305397Y0106655D01*
X0306128Y0106958D01*
X0306128Y0093618D01*
X0307358Y0092388D01*
X0321064Y0078683D01*
X0318953Y0076571D01*
X0317154Y0073457D01*
X0316224Y0069983D01*
X0316224Y0066387D01*
X0317154Y0062913D01*
X0318953Y0059799D01*
X0321496Y0057256D01*
X0322924Y0056431D01*
X0321566Y0056431D01*
X0321107Y0057540D01*
X0320099Y0058548D01*
X0318783Y0059093D01*
X0317359Y0059093D01*
X0316042Y0058548D01*
X0315035Y0057540D01*
X0314490Y0056224D01*
X0314490Y0054799D01*
X0315035Y0053483D01*
X0316042Y0052476D01*
X0317359Y0051931D01*
X0318783Y0051931D01*
X0319507Y0052231D01*
X0337838Y0052231D01*
X0339068Y0053461D01*
X0341775Y0056168D01*
X0341814Y0056168D01*
X0341814Y0037331D01*
X0331214Y0037331D01*
X0331214Y0038252D01*
X0327651Y0041815D01*
X0326421Y0043045D01*
X0302012Y0043045D01*
X0290250Y0054807D01*
X0290250Y0137484D01*
X0274502Y0153232D01*
X0274502Y0157169D01*
X0270565Y0161106D01*
X0270565Y0163862D01*
X0267809Y0166618D01*
X0266579Y0167848D01*
X0250773Y0167848D01*
X0250773Y0170352D01*
X0250851Y0170486D01*
X0250973Y0170944D01*
X0250973Y0171522D01*
X0252508Y0171522D01*
X0253444Y0170586D01*
X0254760Y0170041D01*
X0256185Y0170041D01*
X0257501Y0170586D01*
X0258508Y0171594D01*
X0259054Y0172910D01*
X0259054Y0174334D01*
X0258508Y0175651D01*
X0257501Y0176658D01*
X0256662Y0177006D01*
X0256673Y0177034D01*
X0256748Y0176970D02*
X0275533Y0176970D01*
X0277131Y0175371D02*
X0258624Y0175371D01*
X0259054Y0173773D02*
X0278730Y0173773D01*
X0291115Y0172174D02*
X0258749Y0172174D01*
X0257476Y0170576D02*
X0290868Y0170576D01*
X0291355Y0168977D02*
X0250773Y0168977D01*
X0250875Y0170576D02*
X0253469Y0170576D01*
X0242747Y0170576D02*
X0204557Y0170576D01*
X0202451Y0170576D02*
X0187781Y0170576D01*
X0187781Y0172174D02*
X0188000Y0172174D01*
X0187781Y0168977D02*
X0242849Y0168977D01*
X0242849Y0167379D02*
X0187781Y0167379D01*
X0187781Y0165780D02*
X0242849Y0165780D01*
X0242849Y0164182D02*
X0187781Y0164182D01*
X0187781Y0162583D02*
X0242849Y0162583D01*
X0242849Y0160985D02*
X0187781Y0160985D01*
X0187781Y0159386D02*
X0242849Y0159386D01*
X0242649Y0157874D02*
X0243682Y0157874D01*
X0242649Y0157874D01*
X0242649Y0157788D02*
X0187781Y0157788D01*
X0187781Y0156189D02*
X0242849Y0156189D01*
X0242849Y0154591D02*
X0187781Y0154591D01*
X0187781Y0152992D02*
X0242849Y0152992D01*
X0242849Y0151394D02*
X0187781Y0151394D01*
X0187781Y0149795D02*
X0239103Y0149795D01*
X0237876Y0148197D02*
X0187781Y0148197D01*
X0187781Y0146598D02*
X0219841Y0146598D01*
X0218670Y0145000D02*
X0187929Y0145000D01*
X0187981Y0143401D02*
X0218427Y0143401D01*
X0218918Y0141803D02*
X0217553Y0141803D01*
X0218683Y0140204D02*
X0221092Y0140204D01*
X0218896Y0138606D02*
X0224133Y0138606D01*
X0225732Y0137007D02*
X0218375Y0137007D01*
X0218115Y0135409D02*
X0226994Y0135409D01*
X0226994Y0133810D02*
X0218115Y0133810D01*
X0212515Y0133810D02*
X0194493Y0133810D01*
X0195946Y0135409D02*
X0212515Y0135409D01*
X0212254Y0137007D02*
X0196817Y0137007D01*
X0196808Y0138606D02*
X0211734Y0138606D01*
X0211947Y0140204D02*
X0195923Y0140204D01*
X0190612Y0140204D02*
X0187781Y0140204D01*
X0187781Y0138606D02*
X0189727Y0138606D01*
X0189151Y0137007D02*
X0187781Y0137007D01*
X0187781Y0135409D02*
X0188893Y0135409D01*
X0188893Y0133810D02*
X0185919Y0133810D01*
X0185919Y0132212D02*
X0189380Y0132212D01*
X0189593Y0130613D02*
X0185919Y0130613D01*
X0185919Y0129015D02*
X0189593Y0129015D01*
X0189620Y0127416D02*
X0185919Y0127416D01*
X0185919Y0125818D02*
X0189620Y0125818D01*
X0191561Y0124219D02*
X0185919Y0124219D01*
X0185919Y0122621D02*
X0191265Y0122621D01*
X0189666Y0121022D02*
X0185919Y0121022D01*
X0185919Y0119424D02*
X0188068Y0119424D01*
X0186837Y0117825D02*
X0185919Y0117825D01*
X0185919Y0116227D02*
X0186837Y0116227D01*
X0186837Y0114628D02*
X0185919Y0114628D01*
X0185919Y0113029D02*
X0186837Y0113029D01*
X0186837Y0111431D02*
X0185919Y0111431D01*
X0185919Y0109832D02*
X0186837Y0109832D01*
X0186837Y0108234D02*
X0185919Y0108234D01*
X0185919Y0106635D02*
X0186837Y0106635D01*
X0186837Y0105037D02*
X0185919Y0105037D01*
X0185919Y0103438D02*
X0186837Y0103438D01*
X0186837Y0101840D02*
X0185919Y0101840D01*
X0185919Y0100241D02*
X0186837Y0100241D01*
X0186837Y0098643D02*
X0185919Y0098643D01*
X0185919Y0097044D02*
X0186837Y0097044D01*
X0186837Y0095446D02*
X0185919Y0095446D01*
X0185919Y0093847D02*
X0186837Y0093847D01*
X0186837Y0092249D02*
X0185919Y0092249D01*
X0185919Y0090650D02*
X0186837Y0090650D01*
X0186837Y0089052D02*
X0185919Y0089052D01*
X0186469Y0087453D02*
X0186837Y0087453D01*
X0129750Y0122621D02*
X0089768Y0122621D01*
X0089768Y0124219D02*
X0112455Y0124219D01*
X0112957Y0130613D02*
X0089768Y0130613D01*
X0089768Y0132212D02*
X0124632Y0132212D01*
X0124632Y0133810D02*
X0089768Y0133810D01*
X0089768Y0135409D02*
X0124632Y0135409D01*
X0124632Y0137007D02*
X0096586Y0137007D01*
X0096638Y0137097D02*
X0096761Y0137554D01*
X0096761Y0139576D01*
X0092980Y0139576D01*
X0092980Y0135991D01*
X0095198Y0135991D01*
X0095655Y0136114D01*
X0096066Y0136351D01*
X0096401Y0136686D01*
X0096638Y0137097D01*
X0096761Y0138606D02*
X0124632Y0138606D01*
X0124632Y0140204D02*
X0096761Y0140204D01*
X0096761Y0141803D02*
X0124632Y0141803D01*
X0124632Y0143401D02*
X0113781Y0143401D01*
X0108188Y0143401D02*
X0095663Y0143401D01*
X0092980Y0143401D02*
X0092611Y0143401D01*
X0092611Y0141803D02*
X0092980Y0141803D01*
X0092980Y0140204D02*
X0092611Y0140204D01*
X0092611Y0138606D02*
X0092980Y0138606D01*
X0092980Y0137007D02*
X0092611Y0137007D01*
X0089927Y0143401D02*
X0082682Y0143401D01*
X0083463Y0145000D02*
X0107403Y0145000D01*
X0107493Y0146598D02*
X0083373Y0146598D01*
X0082419Y0148197D02*
X0108447Y0148197D01*
X0113521Y0148197D02*
X0125109Y0148197D01*
X0126707Y0149795D02*
X0024598Y0149795D01*
X0026196Y0148197D02*
X0077345Y0148197D01*
X0076391Y0146598D02*
X0027795Y0146598D01*
X0029393Y0145000D02*
X0057966Y0145000D01*
X0057585Y0137007D02*
X0031894Y0137007D01*
X0031894Y0135409D02*
X0057585Y0135409D01*
X0063985Y0133810D02*
X0031894Y0133810D01*
X0032674Y0132212D02*
X0063985Y0132212D01*
X0063985Y0130613D02*
X0032605Y0130613D01*
X0031677Y0129015D02*
X0063985Y0129015D01*
X0063985Y0127416D02*
X0009800Y0127416D01*
X0009800Y0125818D02*
X0047092Y0125818D01*
X0046925Y0125651D02*
X0046380Y0124334D01*
X0046380Y0122910D01*
X0046925Y0121594D01*
X0047861Y0120658D01*
X0047861Y0110445D01*
X0046925Y0109509D01*
X0046380Y0108193D01*
X0046380Y0106768D01*
X0046925Y0105452D01*
X0047932Y0104444D01*
X0049248Y0103899D01*
X0050673Y0103899D01*
X0051989Y0104444D01*
X0052997Y0105452D01*
X0053542Y0106768D01*
X0053542Y0108193D01*
X0052997Y0109509D01*
X0052061Y0110445D01*
X0052061Y0120658D01*
X0052997Y0121594D01*
X0053542Y0122910D01*
X0053542Y0124334D01*
X0052997Y0125651D01*
X0051989Y0126658D01*
X0050673Y0127203D01*
X0049248Y0127203D01*
X0047932Y0126658D01*
X0046925Y0125651D01*
X0046380Y0124219D02*
X0009800Y0124219D01*
X0009800Y0122621D02*
X0046499Y0122621D01*
X0047496Y0121022D02*
X0009800Y0121022D01*
X0009800Y0119424D02*
X0047861Y0119424D01*
X0047861Y0117825D02*
X0009800Y0117825D01*
X0009800Y0116227D02*
X0047861Y0116227D01*
X0047861Y0114628D02*
X0009800Y0114628D01*
X0009800Y0113029D02*
X0047861Y0113029D01*
X0047861Y0111431D02*
X0009800Y0111431D01*
X0009800Y0109832D02*
X0047248Y0109832D01*
X0046397Y0108234D02*
X0009800Y0108234D01*
X0009800Y0106635D02*
X0046434Y0106635D01*
X0047340Y0105037D02*
X0009800Y0105037D01*
X0009800Y0103438D02*
X0055873Y0103438D01*
X0055873Y0104355D02*
X0055873Y0102334D01*
X0059654Y0102334D01*
X0059654Y0105918D01*
X0057436Y0105918D01*
X0056978Y0105795D01*
X0056568Y0105558D01*
X0056233Y0105223D01*
X0055996Y0104813D01*
X0055873Y0104355D01*
X0056125Y0105037D02*
X0052582Y0105037D01*
X0053487Y0106635D02*
X0063731Y0106635D01*
X0063731Y0108234D02*
X0053525Y0108234D01*
X0054140Y0109579D02*
X0054598Y0109456D01*
X0057110Y0109456D01*
X0057110Y0114531D01*
X0053035Y0114531D01*
X0053035Y0111019D01*
X0053158Y0110562D01*
X0053395Y0110151D01*
X0053730Y0109816D01*
X0054140Y0109579D01*
X0053713Y0109832D02*
X0052673Y0109832D01*
X0053035Y0111431D02*
X0052061Y0111431D01*
X0052061Y0113029D02*
X0053035Y0113029D01*
X0052061Y0114628D02*
X0057110Y0114628D01*
X0057110Y0115881D02*
X0053035Y0115881D01*
X0053035Y0119393D01*
X0053158Y0119851D01*
X0053395Y0120262D01*
X0053730Y0120597D01*
X0054140Y0120834D01*
X0054598Y0120956D01*
X0057110Y0120956D01*
X0057110Y0115881D01*
X0057110Y0116227D02*
X0058460Y0116227D01*
X0058460Y0117825D02*
X0057110Y0117825D01*
X0057110Y0119424D02*
X0058460Y0119424D01*
X0053043Y0119424D02*
X0052061Y0119424D01*
X0052061Y0117825D02*
X0053035Y0117825D01*
X0053035Y0116227D02*
X0052061Y0116227D01*
X0057110Y0113029D02*
X0058460Y0113029D01*
X0058460Y0111431D02*
X0057110Y0111431D01*
X0057110Y0109832D02*
X0058460Y0109832D01*
X0061857Y0109832D02*
X0062996Y0109832D01*
X0060023Y0105037D02*
X0059654Y0105037D01*
X0059654Y0103438D02*
X0060023Y0103438D01*
X0059654Y0101965D02*
X0055873Y0101965D01*
X0055873Y0099944D01*
X0055996Y0099486D01*
X0056233Y0099076D01*
X0056568Y0098741D01*
X0056978Y0098504D01*
X0057436Y0098381D01*
X0059654Y0098381D01*
X0059654Y0101965D01*
X0059654Y0101840D02*
X0060023Y0101840D01*
X0060023Y0100241D02*
X0059654Y0100241D01*
X0059654Y0098643D02*
X0060023Y0098643D01*
X0062940Y0098643D02*
X0063642Y0098643D01*
X0069421Y0098643D02*
X0074928Y0098643D01*
X0074928Y0100241D02*
X0070297Y0100241D01*
X0070297Y0101840D02*
X0074928Y0101840D01*
X0074928Y0103438D02*
X0070297Y0103438D01*
X0070041Y0105037D02*
X0074928Y0105037D01*
X0074928Y0106635D02*
X0069331Y0106635D01*
X0069331Y0108234D02*
X0074928Y0108234D01*
X0071996Y0109832D02*
X0070574Y0109832D01*
X0082128Y0109832D02*
X0086189Y0109832D01*
X0087748Y0109832D02*
X0092650Y0109832D01*
X0091052Y0108234D02*
X0082128Y0108234D01*
X0082128Y0106635D02*
X0089453Y0106635D01*
X0087854Y0105037D02*
X0082128Y0105037D01*
X0082128Y0103438D02*
X0084161Y0103438D01*
X0083135Y0101840D02*
X0082128Y0101840D01*
X0082128Y0100241D02*
X0082994Y0100241D01*
X0083655Y0098643D02*
X0082128Y0098643D01*
X0074928Y0097044D02*
X0050183Y0097044D01*
X0051782Y0095446D02*
X0074928Y0095446D01*
X0074928Y0093847D02*
X0053380Y0093847D01*
X0056737Y0098643D02*
X0048585Y0098643D01*
X0046986Y0100241D02*
X0055873Y0100241D01*
X0055873Y0101840D02*
X0022334Y0101840D01*
X0020106Y0101840D02*
X0009800Y0101840D01*
X0009800Y0100241D02*
X0018097Y0100241D01*
X0017639Y0098643D02*
X0009800Y0098643D01*
X0009800Y0097044D02*
X0017916Y0097044D01*
X0049170Y0077862D02*
X0049404Y0077862D01*
X0049365Y0077717D02*
X0049365Y0075106D01*
X0057280Y0075106D01*
X0057280Y0079280D01*
X0050928Y0079280D01*
X0050471Y0079158D01*
X0050060Y0078921D01*
X0049725Y0078586D01*
X0049488Y0078175D01*
X0049365Y0077717D01*
X0049365Y0076264D02*
X0049170Y0076264D01*
X0049170Y0074665D02*
X0057280Y0074665D01*
X0057280Y0075106D02*
X0057280Y0073556D01*
X0049365Y0073556D01*
X0049365Y0070944D01*
X0049488Y0070486D01*
X0049725Y0070076D01*
X0050060Y0069741D01*
X0050471Y0069504D01*
X0050928Y0069381D01*
X0057280Y0069381D01*
X0057280Y0073556D01*
X0058830Y0073556D01*
X0058830Y0075106D01*
X0057280Y0075106D01*
X0057280Y0076264D02*
X0058830Y0076264D01*
X0058830Y0075106D02*
X0058830Y0079280D01*
X0065182Y0079280D01*
X0065640Y0079158D01*
X0066050Y0078921D01*
X0066385Y0078586D01*
X0066622Y0078175D01*
X0066745Y0077717D01*
X0066745Y0075106D01*
X0058830Y0075106D01*
X0058830Y0074665D02*
X0070825Y0074665D01*
X0070825Y0073067D02*
X0066745Y0073067D01*
X0066745Y0073556D02*
X0058830Y0073556D01*
X0058830Y0069381D01*
X0065182Y0069381D01*
X0065640Y0069504D01*
X0066050Y0069741D01*
X0066385Y0070076D01*
X0066622Y0070486D01*
X0066745Y0070944D01*
X0066745Y0073556D01*
X0066745Y0071468D02*
X0070825Y0071468D01*
X0071474Y0069870D02*
X0066179Y0069870D01*
X0066745Y0076264D02*
X0070825Y0076264D01*
X0070825Y0077862D02*
X0066706Y0077862D01*
X0058830Y0077862D02*
X0057280Y0077862D01*
X0057280Y0073067D02*
X0058830Y0073067D01*
X0058830Y0071468D02*
X0057280Y0071468D01*
X0057280Y0069870D02*
X0058830Y0069870D01*
X0049931Y0069870D02*
X0049170Y0069870D01*
X0049170Y0071468D02*
X0049365Y0071468D01*
X0049365Y0073067D02*
X0049170Y0073067D01*
X0049170Y0061877D02*
X0100547Y0061877D01*
X0096414Y0049089D02*
X0141955Y0049089D01*
X0141955Y0047491D02*
X0096414Y0047491D01*
X0096414Y0045892D02*
X0141955Y0045892D01*
X0141955Y0044293D02*
X0130813Y0044293D01*
X0132017Y0042695D02*
X0140874Y0042695D01*
X0140604Y0041096D02*
X0134685Y0041096D01*
X0134685Y0039498D02*
X0141068Y0039498D01*
X0143111Y0037899D02*
X0134685Y0037899D01*
X0145259Y0037899D02*
X0147073Y0037899D01*
X0116557Y0044293D02*
X0096414Y0044293D01*
X0096414Y0042695D02*
X0115354Y0042695D01*
X0115085Y0041096D02*
X0096414Y0041096D01*
X0096414Y0039498D02*
X0115226Y0039498D01*
X0115249Y0037899D02*
X0096414Y0037899D01*
X0094249Y0111431D02*
X0090035Y0111431D01*
X0090550Y0113029D02*
X0095847Y0113029D01*
X0097446Y0114628D02*
X0090330Y0114628D01*
X0089768Y0116227D02*
X0123847Y0116227D01*
X0125446Y0117825D02*
X0089768Y0117825D01*
X0089768Y0119424D02*
X0127044Y0119424D01*
X0128643Y0121022D02*
X0089768Y0121022D01*
X0084169Y0121022D02*
X0069585Y0121022D01*
X0069585Y0122621D02*
X0084169Y0122621D01*
X0084169Y0124219D02*
X0069585Y0124219D01*
X0069585Y0125818D02*
X0084169Y0125818D01*
X0084169Y0127416D02*
X0069585Y0127416D01*
X0069782Y0129015D02*
X0084169Y0129015D01*
X0084169Y0130613D02*
X0069585Y0130613D01*
X0069585Y0132212D02*
X0084169Y0132212D01*
X0084169Y0133810D02*
X0069585Y0133810D01*
X0075785Y0135409D02*
X0084169Y0135409D01*
X0077082Y0143401D02*
X0075785Y0143401D01*
X0075404Y0145000D02*
X0076301Y0145000D01*
X0063985Y0125818D02*
X0052830Y0125818D01*
X0053542Y0124219D02*
X0063985Y0124219D01*
X0063985Y0122621D02*
X0053422Y0122621D01*
X0052425Y0121022D02*
X0063985Y0121022D01*
X0080335Y0119424D02*
X0084169Y0119424D01*
X0084169Y0117825D02*
X0080335Y0117825D01*
X0080335Y0116227D02*
X0084169Y0116227D01*
X0083607Y0114628D02*
X0081455Y0114628D01*
X0082128Y0113029D02*
X0083387Y0113029D01*
X0083902Y0111431D02*
X0082128Y0111431D01*
X0118854Y0130613D02*
X0119650Y0130613D01*
X0126386Y0125818D02*
X0129750Y0125818D01*
X0129750Y0127416D02*
X0127984Y0127416D01*
X0128832Y0129015D02*
X0129750Y0129015D01*
X0129750Y0130613D02*
X0128832Y0130613D01*
X0128832Y0132212D02*
X0129750Y0132212D01*
X0129750Y0133810D02*
X0128832Y0133810D01*
X0128832Y0135409D02*
X0129750Y0135409D01*
X0129750Y0137007D02*
X0128832Y0137007D01*
X0128832Y0138606D02*
X0129750Y0138606D01*
X0129750Y0140204D02*
X0128832Y0140204D01*
X0128832Y0141803D02*
X0129750Y0141803D01*
X0128306Y0151394D02*
X0022999Y0151394D01*
X0022839Y0152992D02*
X0129904Y0152992D01*
X0131503Y0154591D02*
X0022839Y0154591D01*
X0022839Y0156189D02*
X0133101Y0156189D01*
X0129750Y0124219D02*
X0126049Y0124219D01*
X0187781Y0141803D02*
X0213077Y0141803D01*
X0224175Y0146598D02*
X0226140Y0146598D01*
X0230474Y0146598D02*
X0231652Y0146598D01*
X0235986Y0146598D02*
X0237712Y0146598D01*
X0237534Y0145000D02*
X0237157Y0145000D01*
X0237100Y0141792D02*
X0237476Y0140885D01*
X0237712Y0140649D01*
X0237712Y0136451D01*
X0238138Y0135422D01*
X0239713Y0133847D01*
X0240742Y0133420D01*
X0241856Y0133420D01*
X0242885Y0133847D01*
X0243159Y0134120D01*
X0247681Y0134120D01*
X0247708Y0134148D01*
X0249836Y0134148D01*
X0250773Y0135085D01*
X0250773Y0135588D01*
X0252191Y0134170D01*
X0252191Y0072256D01*
X0251273Y0071338D01*
X0251273Y0116224D01*
X0241037Y0126460D01*
X0241037Y0129216D01*
X0241009Y0129244D01*
X0241009Y0131371D01*
X0240072Y0132309D01*
X0237100Y0132309D01*
X0237100Y0141792D01*
X0237100Y0140204D02*
X0237712Y0140204D01*
X0237712Y0138606D02*
X0237100Y0138606D01*
X0237100Y0137007D02*
X0237712Y0137007D01*
X0238151Y0135409D02*
X0237100Y0135409D01*
X0237100Y0133810D02*
X0239802Y0133810D01*
X0240169Y0132212D02*
X0252191Y0132212D01*
X0252191Y0133810D02*
X0242797Y0133810D01*
X0241009Y0130613D02*
X0252191Y0130613D01*
X0252191Y0129015D02*
X0241037Y0129015D01*
X0241037Y0127416D02*
X0252191Y0127416D01*
X0252191Y0125818D02*
X0241680Y0125818D01*
X0243278Y0124219D02*
X0252191Y0124219D01*
X0252191Y0122621D02*
X0244877Y0122621D01*
X0246475Y0121022D02*
X0252191Y0121022D01*
X0252191Y0119424D02*
X0248074Y0119424D01*
X0249672Y0117825D02*
X0252191Y0117825D01*
X0252191Y0116227D02*
X0251271Y0116227D01*
X0251273Y0114628D02*
X0252191Y0114628D01*
X0252191Y0113029D02*
X0251273Y0113029D01*
X0251273Y0111431D02*
X0252191Y0111431D01*
X0252191Y0109832D02*
X0251273Y0109832D01*
X0251273Y0108234D02*
X0252191Y0108234D01*
X0252191Y0106635D02*
X0251273Y0106635D01*
X0251273Y0105037D02*
X0252191Y0105037D01*
X0252191Y0103438D02*
X0251273Y0103438D01*
X0251273Y0101840D02*
X0252191Y0101840D01*
X0252191Y0100241D02*
X0251273Y0100241D01*
X0251273Y0098643D02*
X0252191Y0098643D01*
X0252191Y0097044D02*
X0251273Y0097044D01*
X0251273Y0095446D02*
X0252191Y0095446D01*
X0252191Y0093847D02*
X0251273Y0093847D01*
X0251273Y0092249D02*
X0252191Y0092249D01*
X0252191Y0090650D02*
X0251273Y0090650D01*
X0251273Y0089052D02*
X0252191Y0089052D01*
X0252191Y0087453D02*
X0251273Y0087453D01*
X0251273Y0085855D02*
X0252191Y0085855D01*
X0252191Y0084256D02*
X0251273Y0084256D01*
X0251273Y0082658D02*
X0252191Y0082658D01*
X0252191Y0081059D02*
X0251273Y0081059D01*
X0251273Y0079461D02*
X0252191Y0079461D01*
X0252191Y0077862D02*
X0251273Y0077862D01*
X0251273Y0076264D02*
X0252191Y0076264D01*
X0252191Y0074665D02*
X0251273Y0074665D01*
X0251273Y0073067D02*
X0252191Y0073067D01*
X0251404Y0071468D02*
X0251273Y0071468D01*
X0290250Y0071468D02*
X0316622Y0071468D01*
X0316224Y0069870D02*
X0290250Y0069870D01*
X0290250Y0068271D02*
X0316224Y0068271D01*
X0316224Y0066673D02*
X0290250Y0066673D01*
X0290250Y0065074D02*
X0316575Y0065074D01*
X0317004Y0063476D02*
X0290250Y0063476D01*
X0290250Y0061877D02*
X0317753Y0061877D01*
X0318675Y0060279D02*
X0290250Y0060279D01*
X0290250Y0058680D02*
X0316362Y0058680D01*
X0314845Y0057082D02*
X0290250Y0057082D01*
X0290250Y0055483D02*
X0314490Y0055483D01*
X0314869Y0053885D02*
X0291172Y0053885D01*
X0292770Y0052286D02*
X0316501Y0052286D01*
X0321297Y0057082D02*
X0321797Y0057082D01*
X0320071Y0058680D02*
X0319780Y0058680D01*
X0337894Y0052286D02*
X0341814Y0052286D01*
X0341814Y0050688D02*
X0294369Y0050688D01*
X0295967Y0049089D02*
X0341814Y0049089D01*
X0341814Y0047491D02*
X0297566Y0047491D01*
X0299164Y0045892D02*
X0341814Y0045892D01*
X0341814Y0044293D02*
X0300763Y0044293D01*
X0326771Y0042695D02*
X0341814Y0042695D01*
X0341814Y0041096D02*
X0328369Y0041096D01*
X0327651Y0041815D02*
X0327651Y0041815D01*
X0329968Y0039498D02*
X0341814Y0039498D01*
X0341814Y0037899D02*
X0331214Y0037899D01*
X0339492Y0053885D02*
X0341814Y0053885D01*
X0341814Y0055483D02*
X0341091Y0055483D01*
X0348510Y0063476D02*
X0352836Y0063476D01*
X0352679Y0063855D02*
X0353224Y0062538D01*
X0353426Y0062336D01*
X0349649Y0062336D01*
X0346155Y0065830D01*
X0346155Y0080397D01*
X0344925Y0081628D01*
X0340594Y0085958D01*
X0331422Y0085958D01*
X0331888Y0087083D01*
X0331888Y0088508D01*
X0331343Y0089824D01*
X0330336Y0090831D01*
X0330285Y0090852D01*
X0330285Y0099184D01*
X0330549Y0099448D01*
X0330564Y0099422D01*
X0330899Y0099087D01*
X0331309Y0098850D01*
X0331767Y0098728D01*
X0333185Y0098728D01*
X0334603Y0098728D01*
X0335061Y0098850D01*
X0335471Y0099087D01*
X0335806Y0099422D01*
X0335821Y0099448D01*
X0336341Y0098928D01*
X0337040Y0098928D01*
X0338018Y0097949D01*
X0339248Y0096719D01*
X0351059Y0096719D01*
X0352585Y0095193D01*
X0352585Y0090503D01*
X0352454Y0090634D01*
X0351224Y0091864D01*
X0341901Y0091864D01*
X0340966Y0092800D01*
X0339649Y0093345D01*
X0338225Y0093345D01*
X0336908Y0092800D01*
X0335901Y0091792D01*
X0335356Y0090476D01*
X0335356Y0089051D01*
X0335901Y0087735D01*
X0336908Y0086728D01*
X0338225Y0086183D01*
X0339649Y0086183D01*
X0340966Y0086728D01*
X0341901Y0087664D01*
X0349484Y0087664D01*
X0362477Y0074672D01*
X0378886Y0074672D01*
X0379822Y0073736D01*
X0381138Y0073191D01*
X0382386Y0073191D01*
X0382162Y0072966D01*
X0371429Y0072966D01*
X0370493Y0073902D01*
X0369177Y0074447D01*
X0367752Y0074447D01*
X0366436Y0073902D01*
X0365429Y0072895D01*
X0364883Y0071578D01*
X0364883Y0070154D01*
X0365429Y0068838D01*
X0366436Y0067830D01*
X0367752Y0067285D01*
X0368820Y0067285D01*
X0368820Y0066217D01*
X0369123Y0065486D01*
X0359755Y0065486D01*
X0359296Y0066595D01*
X0358288Y0067603D01*
X0356972Y0068148D01*
X0355548Y0068148D01*
X0354231Y0067603D01*
X0353224Y0066595D01*
X0352679Y0065279D01*
X0352679Y0063855D01*
X0352679Y0065074D02*
X0346911Y0065074D01*
X0346155Y0066673D02*
X0353301Y0066673D01*
X0346155Y0068271D02*
X0365995Y0068271D01*
X0365001Y0069870D02*
X0346155Y0069870D01*
X0346155Y0071468D02*
X0364883Y0071468D01*
X0365601Y0073067D02*
X0346155Y0073067D01*
X0346155Y0074665D02*
X0378892Y0074665D01*
X0382262Y0073067D02*
X0371328Y0073067D01*
X0368820Y0066673D02*
X0359219Y0066673D01*
X0360885Y0076264D02*
X0346155Y0076264D01*
X0346155Y0077862D02*
X0359286Y0077862D01*
X0357688Y0079461D02*
X0346155Y0079461D01*
X0345493Y0081059D02*
X0356089Y0081059D01*
X0354490Y0082658D02*
X0343895Y0082658D01*
X0342296Y0084256D02*
X0352892Y0084256D01*
X0351293Y0085855D02*
X0340698Y0085855D01*
X0341691Y0087453D02*
X0349695Y0087453D01*
X0352438Y0090650D02*
X0352585Y0090650D01*
X0352585Y0092249D02*
X0341516Y0092249D01*
X0336358Y0092249D02*
X0330285Y0092249D01*
X0330285Y0093847D02*
X0352585Y0093847D01*
X0352332Y0095446D02*
X0330285Y0095446D01*
X0330285Y0097044D02*
X0338923Y0097044D01*
X0337324Y0098643D02*
X0330285Y0098643D01*
X0333185Y0098728D02*
X0333185Y0104858D01*
X0333185Y0104858D01*
X0333185Y0098728D01*
X0333185Y0100241D02*
X0333185Y0100241D01*
X0333185Y0101840D02*
X0333185Y0101840D01*
X0333185Y0103438D02*
X0333185Y0103438D01*
X0333185Y0104858D02*
X0333185Y0110989D01*
X0331767Y0110989D01*
X0331309Y0110866D01*
X0330899Y0110629D01*
X0330564Y0110294D01*
X0330549Y0110269D01*
X0330029Y0110789D01*
X0326341Y0110789D01*
X0325685Y0110133D01*
X0325029Y0110789D01*
X0321675Y0110789D01*
X0321675Y0113867D01*
X0321019Y0114524D01*
X0321675Y0115180D01*
X0321675Y0118867D01*
X0321019Y0119524D01*
X0321442Y0119947D01*
X0322484Y0119947D01*
X0323714Y0121177D01*
X0324940Y0122403D01*
X0325476Y0122403D01*
X0326792Y0122948D01*
X0327800Y0123956D01*
X0328345Y0125272D01*
X0328345Y0126697D01*
X0327800Y0128013D01*
X0326792Y0129020D01*
X0325476Y0129565D01*
X0324051Y0129565D01*
X0322735Y0129020D01*
X0321728Y0128013D01*
X0321675Y0127885D01*
X0321675Y0128867D01*
X0321019Y0129524D01*
X0321675Y0130180D01*
X0321675Y0133867D01*
X0321019Y0134524D01*
X0321419Y0134924D01*
X0322965Y0134924D01*
X0323129Y0134759D01*
X0324445Y0134214D01*
X0325870Y0134214D01*
X0327186Y0134759D01*
X0328122Y0135695D01*
X0331933Y0135695D01*
X0333163Y0136925D01*
X0333163Y0136925D01*
X0341775Y0145538D01*
X0341775Y0145538D01*
X0343005Y0146768D01*
X0343005Y0148610D01*
X0343941Y0149546D01*
X0344487Y0150862D01*
X0344487Y0152287D01*
X0344084Y0153258D01*
X0345029Y0153258D01*
X0345685Y0153914D01*
X0346341Y0153258D01*
X0350029Y0153258D01*
X0350549Y0153778D01*
X0350564Y0153753D01*
X0350899Y0153418D01*
X0351309Y0153181D01*
X0351767Y0153058D01*
X0353185Y0153058D01*
X0353185Y0159189D01*
X0353185Y0159189D01*
X0356166Y0159189D01*
X0356166Y0163254D01*
X0358100Y0163254D01*
X0357797Y0162523D01*
X0357797Y0161099D01*
X0358342Y0159782D01*
X0359349Y0158775D01*
X0360666Y0158230D01*
X0362090Y0158230D01*
X0363406Y0158775D01*
X0364342Y0159711D01*
X0365626Y0159711D01*
X0365971Y0159366D01*
X0365971Y0154453D01*
X0365619Y0154805D01*
X0356166Y0154805D01*
X0356166Y0159189D01*
X0353185Y0159189D01*
X0353185Y0159189D01*
X0353185Y0153058D01*
X0354603Y0153058D01*
X0354695Y0153083D01*
X0354695Y0150180D01*
X0355351Y0149524D01*
X0355033Y0149205D01*
X0354351Y0149886D01*
X0353035Y0150431D01*
X0351610Y0150431D01*
X0350294Y0149886D01*
X0349287Y0148879D01*
X0348742Y0147563D01*
X0348742Y0146138D01*
X0348920Y0145707D01*
X0348855Y0145707D01*
X0347538Y0145162D01*
X0346531Y0144155D01*
X0345986Y0142838D01*
X0345986Y0141414D01*
X0346531Y0140097D01*
X0347505Y0139124D01*
X0345170Y0139124D01*
X0343939Y0137893D01*
X0334430Y0128384D01*
X0333107Y0128384D01*
X0331790Y0127839D01*
X0330783Y0126832D01*
X0330238Y0125515D01*
X0330238Y0124091D01*
X0330783Y0122775D01*
X0331790Y0121767D01*
X0333107Y0121222D01*
X0333781Y0121222D01*
X0333781Y0120548D01*
X0334247Y0119423D01*
X0327831Y0119423D01*
X0326556Y0118148D01*
X0325233Y0118148D01*
X0323916Y0117603D01*
X0322909Y0116595D01*
X0322364Y0115279D01*
X0322364Y0113855D01*
X0322909Y0112538D01*
X0323916Y0111531D01*
X0325233Y0110986D01*
X0326657Y0110986D01*
X0327973Y0111531D01*
X0328981Y0112538D01*
X0329526Y0113855D01*
X0329526Y0115178D01*
X0329571Y0115223D01*
X0343584Y0115223D01*
X0342594Y0114233D01*
X0342049Y0112917D01*
X0342049Y0111593D01*
X0341085Y0110630D01*
X0341085Y0110533D01*
X0340685Y0110133D01*
X0340029Y0110789D01*
X0336341Y0110789D01*
X0335821Y0110269D01*
X0335806Y0110294D01*
X0335471Y0110629D01*
X0335061Y0110866D01*
X0334603Y0110989D01*
X0333185Y0110989D01*
X0333185Y0104858D01*
X0333185Y0104858D01*
X0333185Y0105037D02*
X0333185Y0105037D01*
X0333185Y0106635D02*
X0333185Y0106635D01*
X0333185Y0108234D02*
X0333185Y0108234D01*
X0333185Y0109832D02*
X0333185Y0109832D01*
X0327732Y0111431D02*
X0341886Y0111431D01*
X0342095Y0113029D02*
X0329184Y0113029D01*
X0329526Y0114628D02*
X0342989Y0114628D01*
X0334247Y0119424D02*
X0321119Y0119424D01*
X0321675Y0117825D02*
X0324453Y0117825D01*
X0322756Y0116227D02*
X0321675Y0116227D01*
X0321123Y0114628D02*
X0322364Y0114628D01*
X0322706Y0113029D02*
X0321675Y0113029D01*
X0321675Y0111431D02*
X0324158Y0111431D01*
X0310369Y0119424D02*
X0290250Y0119424D01*
X0290250Y0121022D02*
X0304583Y0121022D01*
X0303355Y0122621D02*
X0290250Y0122621D01*
X0290250Y0124219D02*
X0303072Y0124219D01*
X0303524Y0125818D02*
X0290250Y0125818D01*
X0290250Y0127416D02*
X0305245Y0127416D01*
X0303479Y0129015D02*
X0290250Y0129015D01*
X0290250Y0130613D02*
X0303072Y0130613D01*
X0303400Y0132212D02*
X0290250Y0132212D01*
X0290250Y0133810D02*
X0304783Y0133810D01*
X0309813Y0135409D02*
X0290250Y0135409D01*
X0290250Y0137007D02*
X0309813Y0137007D01*
X0309813Y0138606D02*
X0289128Y0138606D01*
X0287529Y0140204D02*
X0309813Y0140204D01*
X0309813Y0141803D02*
X0285931Y0141803D01*
X0284332Y0143401D02*
X0309813Y0143401D01*
X0309993Y0145000D02*
X0282734Y0145000D01*
X0281135Y0146598D02*
X0309813Y0146598D01*
X0309813Y0148197D02*
X0279537Y0148197D01*
X0277938Y0149795D02*
X0310198Y0149795D01*
X0309813Y0151394D02*
X0276340Y0151394D01*
X0274741Y0152992D02*
X0300959Y0152992D01*
X0300009Y0154591D02*
X0274502Y0154591D01*
X0274502Y0156189D02*
X0299923Y0156189D01*
X0300715Y0157788D02*
X0273883Y0157788D01*
X0272284Y0159386D02*
X0310542Y0159386D01*
X0310159Y0160985D02*
X0270686Y0160985D01*
X0270565Y0162583D02*
X0310510Y0162583D01*
X0312007Y0164182D02*
X0302278Y0164182D01*
X0297643Y0164182D02*
X0270245Y0164182D01*
X0268646Y0165780D02*
X0296560Y0165780D01*
X0296380Y0167379D02*
X0295388Y0167379D01*
X0293510Y0167379D02*
X0267048Y0167379D01*
X0242649Y0172174D02*
X0206617Y0172174D01*
X0207085Y0173773D02*
X0242849Y0173773D01*
X0242849Y0175371D02*
X0206819Y0175371D01*
X0216788Y0181765D02*
X0224942Y0181765D01*
X0224332Y0183364D02*
X0217978Y0183364D01*
X0218115Y0184962D02*
X0224495Y0184962D01*
X0225552Y0186561D02*
X0218042Y0186561D01*
X0216901Y0181878D02*
X0216901Y0181878D01*
X0223189Y0187176D02*
X0223189Y0188210D01*
X0223189Y0188210D01*
X0223189Y0188210D01*
X0223189Y0187176D01*
X0223189Y0188160D02*
X0223189Y0188160D01*
X0211246Y0195301D02*
X0207572Y0195301D01*
X0207572Y0204019D01*
X0207299Y0204293D01*
X0208153Y0204293D01*
X0209469Y0204838D01*
X0209783Y0205151D01*
X0210311Y0203877D01*
X0211246Y0202941D01*
X0211246Y0195301D01*
X0211246Y0196152D02*
X0207572Y0196152D01*
X0207572Y0197751D02*
X0211246Y0197751D01*
X0211246Y0199349D02*
X0207572Y0199349D01*
X0207572Y0200948D02*
X0211246Y0200948D01*
X0211246Y0202546D02*
X0207572Y0202546D01*
X0207447Y0204145D02*
X0210200Y0204145D01*
X0210875Y0208940D02*
X0211317Y0208940D01*
X0209841Y0210539D02*
X0219734Y0210539D01*
X0221333Y0212137D02*
X0202763Y0212137D01*
X0201101Y0210539D02*
X0205041Y0210539D01*
X0198033Y0210539D02*
X0190643Y0210539D01*
X0189218Y0212137D02*
X0196371Y0212137D01*
X0195651Y0213736D02*
X0187620Y0213736D01*
X0187494Y0215334D02*
X0194052Y0215334D01*
X0192454Y0216933D02*
X0187179Y0216933D01*
X0215376Y0208940D02*
X0218136Y0208940D01*
X0217152Y0207342D02*
X0216628Y0207342D01*
X0216928Y0205743D02*
X0217152Y0205743D01*
X0220359Y0215334D02*
X0280435Y0215334D01*
X0312786Y0197751D02*
X0335203Y0197751D01*
X0335203Y0196152D02*
X0313710Y0196152D01*
X0313889Y0194554D02*
X0335203Y0194554D01*
X0335203Y0192955D02*
X0314403Y0192955D01*
X0347306Y0171901D02*
X0351087Y0171901D01*
X0351087Y0173491D01*
X0354996Y0173491D01*
X0358097Y0170390D01*
X0358097Y0167799D01*
X0357752Y0167454D01*
X0348303Y0167454D01*
X0347073Y0166224D01*
X0345985Y0165136D01*
X0345985Y0167948D01*
X0346938Y0167948D01*
X0346938Y0171532D01*
X0347306Y0171532D01*
X0347306Y0167948D01*
X0349524Y0167948D01*
X0349982Y0168071D01*
X0350393Y0168308D01*
X0350728Y0168643D01*
X0350965Y0169053D01*
X0351087Y0169511D01*
X0351087Y0171532D01*
X0347306Y0171532D01*
X0347306Y0171901D01*
X0347306Y0170576D02*
X0346938Y0170576D01*
X0346938Y0168977D02*
X0347306Y0168977D01*
X0348228Y0167379D02*
X0345985Y0167379D01*
X0345985Y0165780D02*
X0346629Y0165780D01*
X0350921Y0168977D02*
X0358097Y0168977D01*
X0357911Y0170576D02*
X0351087Y0170576D01*
X0351087Y0172174D02*
X0356312Y0172174D01*
X0356166Y0162583D02*
X0357822Y0162583D01*
X0357844Y0160985D02*
X0356166Y0160985D01*
X0356166Y0159386D02*
X0358738Y0159386D01*
X0356166Y0157788D02*
X0365971Y0157788D01*
X0365951Y0159386D02*
X0364018Y0159386D01*
X0365971Y0156189D02*
X0356166Y0156189D01*
X0353185Y0156189D02*
X0353185Y0156189D01*
X0353185Y0154591D02*
X0353185Y0154591D01*
X0354695Y0152992D02*
X0344195Y0152992D01*
X0344487Y0151394D02*
X0354695Y0151394D01*
X0354442Y0149795D02*
X0355080Y0149795D01*
X0350203Y0149795D02*
X0344045Y0149795D01*
X0343005Y0148197D02*
X0349004Y0148197D01*
X0348742Y0146598D02*
X0342836Y0146598D01*
X0341237Y0145000D02*
X0347376Y0145000D01*
X0346219Y0143401D02*
X0339639Y0143401D01*
X0338040Y0141803D02*
X0345986Y0141803D01*
X0346487Y0140204D02*
X0336442Y0140204D01*
X0334843Y0138606D02*
X0344652Y0138606D01*
X0343939Y0137893D02*
X0343939Y0137893D01*
X0343053Y0137007D02*
X0333245Y0137007D01*
X0327835Y0135409D02*
X0341455Y0135409D01*
X0339856Y0133810D02*
X0321675Y0133810D01*
X0321675Y0132212D02*
X0338258Y0132212D01*
X0336659Y0130613D02*
X0321675Y0130613D01*
X0321528Y0129015D02*
X0322730Y0129015D01*
X0326798Y0129015D02*
X0335061Y0129015D01*
X0331367Y0127416D02*
X0328047Y0127416D01*
X0328345Y0125818D02*
X0330363Y0125818D01*
X0330238Y0124219D02*
X0327909Y0124219D01*
X0326001Y0122621D02*
X0330937Y0122621D01*
X0333781Y0121022D02*
X0323559Y0121022D01*
X0309813Y0121022D02*
X0308724Y0121022D01*
X0309304Y0117825D02*
X0290250Y0117825D01*
X0290250Y0116227D02*
X0307705Y0116227D01*
X0306128Y0114649D02*
X0306128Y0114649D01*
X0306107Y0114628D02*
X0290250Y0114628D01*
X0290250Y0113029D02*
X0302414Y0113029D01*
X0301304Y0111431D02*
X0290250Y0111431D01*
X0290250Y0109832D02*
X0301104Y0109832D01*
X0301638Y0108234D02*
X0290250Y0108234D01*
X0290250Y0106635D02*
X0306128Y0106635D01*
X0306128Y0105037D02*
X0290250Y0105037D01*
X0290250Y0103438D02*
X0306128Y0103438D01*
X0306128Y0101840D02*
X0290250Y0101840D01*
X0290250Y0100241D02*
X0306128Y0100241D01*
X0306128Y0098643D02*
X0290250Y0098643D01*
X0290250Y0097044D02*
X0306128Y0097044D01*
X0306128Y0095446D02*
X0290250Y0095446D01*
X0290250Y0093847D02*
X0306128Y0093847D01*
X0307498Y0092249D02*
X0290250Y0092249D01*
X0290250Y0090650D02*
X0309096Y0090650D01*
X0310695Y0089052D02*
X0290250Y0089052D01*
X0290250Y0087453D02*
X0312293Y0087453D01*
X0313892Y0085855D02*
X0290250Y0085855D01*
X0290250Y0084256D02*
X0315490Y0084256D01*
X0317089Y0082658D02*
X0290250Y0082658D01*
X0290250Y0081059D02*
X0318687Y0081059D01*
X0320286Y0079461D02*
X0290250Y0079461D01*
X0290250Y0077862D02*
X0320243Y0077862D01*
X0318775Y0076264D02*
X0290250Y0076264D01*
X0290250Y0074665D02*
X0317852Y0074665D01*
X0317050Y0073067D02*
X0290250Y0073067D01*
X0330516Y0090650D02*
X0335428Y0090650D01*
X0335356Y0089052D02*
X0331663Y0089052D01*
X0331888Y0087453D02*
X0336183Y0087453D01*
X0355966Y0101689D02*
X0355966Y0109243D01*
X0360583Y0109243D01*
X0361263Y0108563D01*
X0360946Y0107799D01*
X0360946Y0106374D01*
X0361492Y0105058D01*
X0362499Y0104051D01*
X0363386Y0103683D01*
X0365577Y0101492D01*
X0366807Y0100262D01*
X0378390Y0100262D01*
X0379750Y0101623D01*
X0379750Y0098901D01*
X0376650Y0095801D01*
X0364736Y0095801D01*
X0363800Y0096737D01*
X0362484Y0097282D01*
X0361059Y0097282D01*
X0359743Y0096737D01*
X0358754Y0095747D01*
X0358754Y0098901D01*
X0357523Y0100131D01*
X0355966Y0101689D01*
X0355966Y0101840D02*
X0365230Y0101840D01*
X0363631Y0103438D02*
X0355966Y0103438D01*
X0355966Y0105037D02*
X0361513Y0105037D01*
X0360946Y0106635D02*
X0355966Y0106635D01*
X0355966Y0108234D02*
X0361127Y0108234D01*
X0357413Y0100241D02*
X0379750Y0100241D01*
X0379492Y0098643D02*
X0358754Y0098643D01*
X0358754Y0097044D02*
X0360486Y0097044D01*
X0363057Y0097044D02*
X0377893Y0097044D01*
X0357523Y0100131D02*
X0357523Y0100131D01*
X0309813Y0152992D02*
X0306049Y0152992D01*
X0306292Y0157788D02*
X0312194Y0157788D01*
X0332896Y0168854D02*
X0336896Y0168854D01*
X0337601Y0168148D01*
X0339299Y0168148D01*
X0339319Y0168099D01*
X0340107Y0167311D01*
X0340385Y0167033D01*
X0340385Y0165010D01*
X0340061Y0165197D01*
X0339603Y0165320D01*
X0338185Y0165320D01*
X0336767Y0165320D01*
X0336309Y0165197D01*
X0335899Y0164960D01*
X0335564Y0164625D01*
X0335549Y0164600D01*
X0335285Y0164864D01*
X0335285Y0166464D01*
X0333950Y0167799D01*
X0332896Y0168854D01*
X0333950Y0167799D02*
X0333950Y0167799D01*
X0334370Y0167379D02*
X0340039Y0167379D01*
X0340385Y0165780D02*
X0335285Y0165780D01*
X0338185Y0165320D02*
X0338185Y0159189D01*
X0338185Y0159189D01*
X0338185Y0165320D01*
X0338185Y0164182D02*
X0338185Y0164182D01*
X0338185Y0162583D02*
X0338185Y0162583D01*
X0338185Y0160985D02*
X0338185Y0160985D01*
X0338185Y0159386D02*
X0338185Y0159386D01*
X0338185Y0159189D02*
X0340385Y0159189D01*
X0340385Y0159189D01*
X0338185Y0159189D01*
X0338185Y0159189D01*
X0353185Y0157788D02*
X0353185Y0157788D01*
X0365833Y0154591D02*
X0365971Y0154591D01*
X0333483Y0221728D02*
X0324785Y0221728D01*
X0325829Y0223327D02*
X0332994Y0223327D01*
X0332302Y0224925D02*
X0329950Y0224925D01*
X0320302Y0228122D02*
X0314403Y0228122D01*
X0314403Y0226524D02*
X0319451Y0226524D01*
X0318820Y0224925D02*
X0314403Y0224925D01*
X0314403Y0223327D02*
X0318974Y0223327D01*
X0320018Y0221728D02*
X0314403Y0221728D01*
X0314403Y0229721D02*
X0320302Y0229721D01*
X0320241Y0231319D02*
X0319366Y0231319D01*
X0315241Y0231319D02*
X0314403Y0231319D01*
X0320528Y0242962D02*
X0320865Y0243776D01*
X0320865Y0245201D01*
X0320319Y0246517D01*
X0319330Y0247506D01*
X0344366Y0247506D01*
X0345203Y0246670D01*
X0345203Y0242706D01*
X0344803Y0242306D01*
X0344147Y0242962D01*
X0340459Y0242962D01*
X0339803Y0242306D01*
X0339147Y0242962D01*
X0335459Y0242962D01*
X0334803Y0242306D01*
X0334147Y0242962D01*
X0330459Y0242962D01*
X0329803Y0242306D01*
X0329147Y0242962D01*
X0325459Y0242962D01*
X0324803Y0242306D01*
X0324147Y0242962D01*
X0320528Y0242962D01*
X0320865Y0244107D02*
X0345203Y0244107D01*
X0345203Y0245706D02*
X0320655Y0245706D01*
X0319532Y0247304D02*
X0344568Y0247304D01*
X0348338Y0249475D02*
X0379804Y0249475D01*
X0379208Y0248879D01*
X0378874Y0248072D01*
X0377996Y0248950D01*
X0360902Y0248950D01*
X0359672Y0247720D01*
X0355203Y0243252D01*
X0355203Y0242706D01*
X0354803Y0242306D01*
X0354147Y0242962D01*
X0350459Y0242962D01*
X0349803Y0242306D01*
X0349403Y0242706D01*
X0349403Y0248409D01*
X0348338Y0249475D01*
X0348909Y0248903D02*
X0360854Y0248903D01*
X0359256Y0247304D02*
X0349403Y0247304D01*
X0349403Y0245706D02*
X0357657Y0245706D01*
X0356059Y0244107D02*
X0349403Y0244107D01*
X0349600Y0242509D02*
X0350006Y0242509D01*
X0354600Y0242509D02*
X0355006Y0242509D01*
X0345006Y0242509D02*
X0344600Y0242509D01*
X0340006Y0242509D02*
X0339600Y0242509D01*
X0335006Y0242509D02*
X0334600Y0242509D01*
X0330006Y0242509D02*
X0329600Y0242509D01*
X0325006Y0242509D02*
X0324600Y0242509D01*
X0359366Y0231319D02*
X0360241Y0231319D01*
X0364366Y0231319D02*
X0365241Y0231319D01*
X0369366Y0231319D02*
X0370241Y0231319D01*
X0374366Y0231319D02*
X0381419Y0231319D01*
X0379821Y0232918D02*
X0375084Y0232918D01*
X0375084Y0234516D02*
X0378222Y0234516D01*
X0378043Y0248903D02*
X0379232Y0248903D01*
X0241973Y0242509D02*
X0239528Y0242509D01*
X0236771Y0242509D02*
X0232376Y0242509D01*
X0233821Y0244107D02*
X0234604Y0244107D01*
X0228176Y0242509D02*
X0224290Y0242509D01*
X0222402Y0242509D02*
X0222402Y0242509D01*
X0222402Y0242082D02*
X0222402Y0246457D01*
X0222402Y0246457D01*
X0222402Y0242082D01*
X0220513Y0242509D02*
X0218578Y0242509D01*
X0214712Y0242509D02*
X0213556Y0242509D01*
X0213556Y0244107D02*
X0214712Y0244107D01*
X0214712Y0245706D02*
X0213556Y0245706D01*
X0209690Y0242509D02*
X0207160Y0242509D01*
X0208179Y0244107D02*
X0208671Y0244107D01*
X0203294Y0244107D02*
X0202139Y0244107D01*
X0202139Y0242509D02*
X0203294Y0242509D01*
X0203294Y0245706D02*
X0202139Y0245706D01*
X0198273Y0242509D02*
X0195827Y0242509D01*
X0222402Y0244107D02*
X0222402Y0244107D01*
X0222402Y0245706D02*
X0222402Y0245706D01*
X0226102Y0244107D02*
X0226730Y0244107D01*
X0191693Y0188210D02*
X0191693Y0188210D01*
X0191693Y0187176D01*
X0191693Y0188210D01*
X0191693Y0188160D02*
X0191693Y0188160D01*
X0243682Y0157874D02*
X0243682Y0157874D01*
X0243682Y0157874D01*
X0250773Y0135409D02*
X0250952Y0135409D01*
X0201535Y0132509D02*
X0201535Y0131475D01*
X0201535Y0131475D01*
X0201535Y0131475D01*
X0201535Y0132509D01*
X0201535Y0132212D02*
X0201535Y0132212D01*
X0112154Y0194554D02*
X0109238Y0194554D01*
X0109238Y0199349D02*
X0112356Y0199349D01*
X0025822Y0183364D02*
X0009800Y0183364D01*
X0009800Y0184962D02*
X0021186Y0184962D01*
X0020240Y0185816D02*
X0020240Y0185816D01*
X0019495Y0186561D02*
X0009800Y0186561D01*
X0009800Y0188160D02*
X0017896Y0188160D01*
X0013540Y0189758D02*
X0009800Y0189758D01*
X0009800Y0191357D02*
X0011942Y0191357D01*
X0010935Y0192955D02*
X0009800Y0192955D01*
X0009800Y0194554D02*
X0010935Y0194554D01*
X0010935Y0196152D02*
X0009800Y0196152D01*
X0009800Y0181765D02*
X0024223Y0181765D01*
X0022624Y0180167D02*
X0009800Y0180167D01*
X0009800Y0178568D02*
X0021026Y0178568D01*
X0019427Y0176970D02*
X0009800Y0176970D01*
X0009800Y0175371D02*
X0017829Y0175371D01*
X0017239Y0173773D02*
X0009800Y0173773D01*
X0009800Y0172174D02*
X0017239Y0172174D01*
X0017239Y0170576D02*
X0009800Y0170576D01*
X0009800Y0168977D02*
X0017239Y0168977D01*
X0017239Y0167379D02*
X0009800Y0167379D01*
X0009800Y0165780D02*
X0017239Y0165780D01*
X0017239Y0164182D02*
X0009800Y0164182D01*
X0009800Y0162583D02*
X0017239Y0162583D01*
X0017239Y0160985D02*
X0009800Y0160985D01*
X0009800Y0159386D02*
X0017239Y0159386D01*
X0017239Y0157788D02*
X0009800Y0157788D01*
X0009800Y0156189D02*
X0017239Y0156189D01*
X0017239Y0154591D02*
X0009800Y0154591D01*
X0009800Y0152992D02*
X0017239Y0152992D01*
X0017239Y0151394D02*
X0009800Y0151394D01*
X0009800Y0149795D02*
X0017257Y0149795D01*
X0018277Y0148197D02*
X0009800Y0148197D01*
X0009800Y0146598D02*
X0019875Y0146598D01*
X0021474Y0145000D02*
X0009800Y0145000D01*
X0009800Y0143401D02*
X0023072Y0143401D01*
X0024671Y0141803D02*
X0009800Y0141803D01*
X0009800Y0140204D02*
X0026269Y0140204D01*
X0026294Y0138606D02*
X0009800Y0138606D01*
X0009800Y0137007D02*
X0026294Y0137007D01*
X0026294Y0135409D02*
X0009800Y0135409D01*
X0009800Y0133810D02*
X0026294Y0133810D01*
X0025515Y0132212D02*
X0009800Y0132212D01*
X0009800Y0130613D02*
X0025584Y0130613D01*
X0026512Y0129015D02*
X0009800Y0129015D01*
D29*
X0049961Y0123622D02*
X0049961Y0107480D01*
X0086575Y0100787D02*
X0098386Y0112598D01*
X0123189Y0112598D01*
X0131850Y0121260D01*
X0131850Y0144094D01*
X0147598Y0159843D01*
X0174370Y0159843D01*
X0176339Y0161811D01*
X0176339Y0164173D01*
X0179882Y0167717D01*
X0183819Y0167717D01*
X0183819Y0169685D02*
X0179094Y0169685D01*
X0171220Y0161811D01*
X0145630Y0161811D01*
X0126732Y0142913D01*
X0126732Y0129134D01*
X0124764Y0127165D01*
X0122598Y0127165D01*
X0138150Y0122835D02*
X0138150Y0111417D01*
X0130276Y0103543D01*
X0130276Y0068504D01*
X0136181Y0073622D02*
X0136181Y0099606D01*
X0126732Y0107087D02*
X0102323Y0107087D01*
X0088543Y0093307D01*
X0086969Y0093307D01*
X0086575Y0092913D01*
X0126732Y0107087D02*
X0134213Y0114567D01*
X0134213Y0142126D01*
X0149961Y0157874D01*
X0175945Y0157874D01*
X0178307Y0160236D01*
X0178307Y0163386D01*
X0180669Y0165748D01*
X0183819Y0165748D01*
X0183819Y0171654D02*
X0177520Y0171654D01*
X0170039Y0164173D01*
X0144055Y0164173D01*
X0125551Y0145669D01*
X0110984Y0145669D01*
X0114528Y0166142D02*
X0081063Y0166142D01*
X0065315Y0176378D02*
X0062165Y0173228D01*
X0062165Y0168504D01*
X0065315Y0176378D02*
X0122795Y0176378D01*
X0128307Y0181890D01*
X0144055Y0181890D01*
X0145630Y0180315D01*
X0145630Y0174016D01*
X0149173Y0170472D01*
X0168071Y0170472D01*
X0175157Y0177559D01*
X0183819Y0177559D01*
X0183819Y0175591D02*
X0188543Y0175591D01*
X0183819Y0173622D02*
X0175551Y0173622D01*
X0169646Y0167717D01*
X0140906Y0167717D01*
X0135787Y0172835D01*
X0121220Y0172835D01*
X0114528Y0166142D01*
X0154291Y0138583D02*
X0167677Y0151969D01*
X0183819Y0151969D01*
X0183819Y0153937D02*
X0166496Y0153937D01*
X0149173Y0136614D01*
X0149173Y0045669D01*
X0149173Y0020059D01*
X0149114Y0020000D01*
X0159016Y0020098D02*
X0159114Y0020000D01*
X0159016Y0020098D02*
X0159016Y0057480D01*
X0159016Y0140157D01*
X0168858Y0150000D01*
X0183819Y0150000D01*
X0183819Y0148031D02*
X0170433Y0148031D01*
X0164134Y0141732D01*
X0164134Y0062598D01*
X0164134Y0041382D01*
X0164185Y0041331D01*
X0174185Y0041331D02*
X0174370Y0041516D01*
X0174370Y0072835D01*
X0174370Y0135039D01*
X0179488Y0140157D01*
X0183819Y0140157D01*
X0183819Y0138189D02*
X0180669Y0138189D01*
X0179094Y0136614D01*
X0179094Y0077953D01*
X0179094Y0020020D01*
X0179114Y0020000D01*
X0188937Y0020177D02*
X0189114Y0020000D01*
X0188937Y0020177D02*
X0188937Y0077953D01*
X0188937Y0117323D01*
X0193661Y0122047D01*
X0193661Y0128346D01*
X0191693Y0128346D02*
X0191693Y0133858D01*
X0195630Y0128346D02*
X0195630Y0120866D01*
X0194055Y0119291D01*
X0194055Y0094094D01*
X0194055Y0074016D01*
X0194055Y0041461D01*
X0194185Y0041331D01*
X0184185Y0041331D02*
X0183819Y0041697D01*
X0183819Y0085039D01*
X0183819Y0136220D01*
X0183819Y0142126D02*
X0175157Y0142126D01*
X0173976Y0140945D01*
X0169252Y0141732D02*
X0169252Y0067323D01*
X0169252Y0020138D01*
X0169114Y0020000D01*
X0199114Y0020000D02*
X0199173Y0020059D01*
X0199173Y0070079D01*
X0199173Y0089764D01*
X0199173Y0119685D01*
X0197598Y0121260D01*
X0197598Y0128346D01*
X0199567Y0128346D02*
X0199567Y0122441D01*
X0204291Y0117717D01*
X0204291Y0066142D01*
X0204291Y0041437D01*
X0204185Y0041331D01*
X0214134Y0041382D02*
X0214185Y0041331D01*
X0214134Y0041382D02*
X0214134Y0113780D01*
X0205472Y0122441D01*
X0205472Y0128346D01*
X0203504Y0128346D02*
X0203504Y0121260D01*
X0209016Y0115748D01*
X0209016Y0062205D01*
X0209016Y0020098D01*
X0209114Y0020000D01*
X0219114Y0020000D02*
X0219252Y0020138D01*
X0219252Y0084646D01*
X0219252Y0111811D01*
X0207441Y0123622D01*
X0207441Y0128346D01*
X0209409Y0128346D02*
X0209409Y0124803D01*
X0224370Y0109843D01*
X0224370Y0062205D01*
X0224370Y0041516D01*
X0224185Y0041331D01*
X0234185Y0041331D02*
X0234213Y0041358D01*
X0234213Y0096850D01*
X0234213Y0109843D01*
X0221220Y0122835D01*
X0221220Y0128346D01*
X0223189Y0128346D02*
X0223189Y0124409D01*
X0238937Y0108661D01*
X0238937Y0092520D01*
X0238937Y0020177D01*
X0239114Y0020000D01*
X0249114Y0020000D02*
X0249173Y0020059D01*
X0249173Y0066535D01*
X0249173Y0115354D01*
X0238937Y0125591D01*
X0238937Y0128346D01*
X0235000Y0128346D02*
X0235000Y0142520D01*
X0233819Y0143701D01*
X0233031Y0138976D02*
X0228307Y0143701D01*
X0222008Y0143701D02*
X0229094Y0136614D01*
X0229094Y0128346D01*
X0227126Y0128346D02*
X0227126Y0131890D01*
X0225157Y0133858D01*
X0223189Y0133858D01*
X0222402Y0134646D01*
X0215315Y0133858D02*
X0215315Y0128346D01*
X0213346Y0128346D02*
X0213346Y0124409D01*
X0215709Y0122047D01*
X0218465Y0122047D01*
X0229094Y0111417D01*
X0229094Y0075197D01*
X0229094Y0020020D01*
X0229114Y0020000D01*
X0259016Y0020098D02*
X0259114Y0020000D01*
X0259016Y0020098D02*
X0259016Y0135827D01*
X0252717Y0142126D01*
X0246811Y0142126D01*
X0246811Y0144094D02*
X0264921Y0144094D01*
X0274370Y0134646D01*
X0274370Y0041516D01*
X0274185Y0041331D01*
X0264185Y0041331D02*
X0264185Y0122783D01*
X0264134Y0122835D01*
X0268858Y0134646D02*
X0268858Y0069291D01*
X0279114Y0062598D02*
X0279114Y0135020D01*
X0268071Y0146063D01*
X0246811Y0146063D01*
X0246811Y0148031D02*
X0241299Y0148031D01*
X0246811Y0150000D02*
X0269252Y0150000D01*
X0284213Y0135039D01*
X0284213Y0041358D01*
X0284185Y0041331D01*
X0286181Y0049213D02*
X0294055Y0041339D01*
X0301142Y0040945D02*
X0288150Y0053937D01*
X0288150Y0136614D01*
X0272402Y0152362D01*
X0272402Y0156299D01*
X0268465Y0160236D01*
X0268465Y0162992D01*
X0265709Y0165748D01*
X0246811Y0165748D01*
X0246811Y0163780D02*
X0253504Y0163780D01*
X0255472Y0161811D01*
X0246811Y0157874D02*
X0241693Y0157874D01*
X0246811Y0151969D02*
X0270039Y0151969D01*
X0286181Y0135827D01*
X0286181Y0049213D01*
X0301142Y0040945D02*
X0325551Y0040945D01*
X0329114Y0037382D01*
X0329114Y0020000D01*
X0279114Y0020000D02*
X0279114Y0062598D01*
X0254291Y0069291D02*
X0254291Y0041437D01*
X0254185Y0041331D01*
X0244449Y0041594D02*
X0244449Y0063386D01*
X0244449Y0106299D01*
X0225157Y0125591D01*
X0225157Y0128346D01*
X0233031Y0128346D02*
X0233031Y0138976D01*
X0241299Y0136220D02*
X0246811Y0136220D01*
X0246811Y0138189D02*
X0251142Y0138189D01*
X0254291Y0135039D01*
X0254291Y0069291D01*
X0244449Y0041594D02*
X0244185Y0041331D01*
X0318071Y0055512D02*
X0319252Y0054331D01*
X0336969Y0054331D01*
X0340906Y0058268D01*
X0389331Y0058268D01*
X0393661Y0062598D01*
X0393661Y0247638D01*
X0389724Y0251575D01*
X0292087Y0251575D01*
X0290512Y0250000D01*
X0290512Y0243307D01*
X0294055Y0240945D02*
X0292874Y0239764D01*
X0273976Y0239764D01*
X0273189Y0238976D01*
X0267677Y0238976D01*
X0266890Y0239764D01*
X0251929Y0239764D01*
X0247598Y0233465D02*
X0255472Y0225591D01*
X0288543Y0225591D01*
X0298780Y0218110D02*
X0218071Y0218110D01*
X0217677Y0217717D01*
X0223583Y0211417D02*
X0219252Y0207087D01*
X0219252Y0203937D01*
X0215709Y0200394D01*
X0215709Y0196457D01*
X0217283Y0194882D01*
X0217283Y0191339D01*
X0215315Y0191339D02*
X0215315Y0185827D01*
X0213346Y0191339D02*
X0213346Y0205906D01*
X0207441Y0207874D02*
X0189724Y0207874D01*
X0188543Y0209055D01*
X0188543Y0209843D01*
X0185394Y0212992D01*
X0185394Y0215748D01*
X0183819Y0217323D01*
X0153504Y0217323D01*
X0151535Y0215354D01*
X0151535Y0211024D01*
X0159016Y0213780D02*
X0181457Y0213780D01*
X0181850Y0213386D01*
X0184213Y0209449D02*
X0185000Y0208661D01*
X0184213Y0209449D02*
X0162165Y0209449D01*
X0165315Y0205118D02*
X0185787Y0205118D01*
X0187362Y0203543D01*
X0190118Y0200787D02*
X0189331Y0200000D01*
X0164134Y0200000D01*
X0160591Y0203543D01*
X0158425Y0203543D01*
X0164528Y0196063D02*
X0166496Y0198031D01*
X0193268Y0198031D01*
X0194055Y0197244D01*
X0196024Y0197244D01*
X0193661Y0194488D02*
X0192480Y0195669D01*
X0185000Y0195669D01*
X0183819Y0194488D01*
X0183819Y0191339D01*
X0191693Y0191339D02*
X0191693Y0186614D01*
X0195630Y0185827D02*
X0195630Y0191339D01*
X0193661Y0191339D02*
X0193661Y0194488D01*
X0199567Y0191339D02*
X0199567Y0199606D01*
X0198386Y0200787D01*
X0190118Y0200787D01*
X0194843Y0204331D02*
X0195236Y0204724D01*
X0203898Y0204724D01*
X0205472Y0203150D01*
X0205472Y0191339D01*
X0219252Y0191339D02*
X0219252Y0198031D01*
X0221220Y0194882D02*
X0221220Y0191339D01*
X0223189Y0191339D02*
X0223189Y0186220D01*
X0227913Y0183858D02*
X0228307Y0183858D01*
X0231063Y0186614D01*
X0231063Y0191339D01*
X0233031Y0191339D02*
X0233031Y0179921D01*
X0242480Y0183465D02*
X0246811Y0183465D01*
X0254685Y0184252D02*
X0257441Y0181496D01*
X0277520Y0181496D01*
X0281063Y0177953D01*
X0303898Y0177953D01*
X0307303Y0181358D01*
X0307303Y0186512D01*
X0302303Y0186512D02*
X0302303Y0181870D01*
X0300354Y0179921D01*
X0282244Y0179921D01*
X0278307Y0183858D01*
X0259016Y0183858D01*
X0257441Y0185433D01*
X0257441Y0204724D01*
X0254291Y0207874D01*
X0230669Y0207874D01*
X0229488Y0209055D01*
X0224764Y0209055D01*
X0222402Y0206693D01*
X0222402Y0200000D01*
X0222795Y0199606D01*
X0222795Y0196457D01*
X0221220Y0194882D01*
X0225157Y0197244D02*
X0226339Y0198425D01*
X0226339Y0200000D01*
X0229882Y0198425D02*
X0229882Y0202756D01*
X0227126Y0205512D01*
X0232244Y0203937D02*
X0232244Y0200394D01*
X0233031Y0199606D01*
X0233031Y0196063D01*
X0232244Y0195276D01*
X0229882Y0195276D01*
X0229094Y0194488D01*
X0229094Y0191339D01*
X0227126Y0191339D02*
X0227126Y0195669D01*
X0229882Y0198425D01*
X0225157Y0197244D02*
X0225157Y0191339D01*
X0235000Y0191339D02*
X0235000Y0201575D01*
X0235787Y0202362D01*
X0234213Y0205906D02*
X0232244Y0203937D01*
X0234213Y0205906D02*
X0252323Y0205906D01*
X0254685Y0203543D01*
X0254685Y0184252D01*
X0259803Y0187402D02*
X0261378Y0185827D01*
X0279488Y0185827D01*
X0283425Y0181890D01*
X0296417Y0181890D01*
X0297303Y0182776D01*
X0297303Y0186512D01*
X0289724Y0187402D02*
X0286181Y0190945D01*
X0286181Y0199606D01*
X0280669Y0205118D01*
X0280669Y0212598D01*
X0281850Y0213780D01*
X0301929Y0213780D01*
X0304685Y0216535D01*
X0309803Y0216535D01*
X0312303Y0219035D01*
X0312303Y0237031D01*
X0307303Y0237031D02*
X0307303Y0244350D01*
X0307441Y0244488D01*
X0302323Y0244488D02*
X0302303Y0244075D01*
X0302303Y0237031D01*
X0294055Y0240945D02*
X0294055Y0248819D01*
X0294843Y0249606D01*
X0345236Y0249606D01*
X0347303Y0247539D01*
X0347303Y0237031D01*
X0342303Y0237031D02*
X0342303Y0225807D01*
X0342087Y0225591D01*
X0336575Y0223622D02*
X0332303Y0227894D01*
X0332303Y0237031D01*
X0327520Y0236815D02*
X0327303Y0237031D01*
X0327520Y0236815D02*
X0327520Y0227559D01*
X0322402Y0224409D02*
X0322402Y0236933D01*
X0322303Y0237031D01*
X0317303Y0237031D02*
X0317303Y0244075D01*
X0317283Y0244488D01*
X0337303Y0237031D02*
X0337303Y0229587D01*
X0337362Y0229528D01*
X0352303Y0222854D02*
X0352323Y0222835D01*
X0352303Y0222854D02*
X0352303Y0237031D01*
X0357303Y0237031D02*
X0357303Y0242382D01*
X0361772Y0246850D01*
X0377126Y0246850D01*
X0389724Y0234252D01*
X0389724Y0066142D01*
X0386969Y0063386D01*
X0357441Y0063386D01*
X0356260Y0064567D01*
X0348780Y0060236D02*
X0388150Y0060236D01*
X0391693Y0063780D01*
X0391693Y0235039D01*
X0382244Y0244488D01*
X0382244Y0246850D01*
X0376339Y0244882D02*
X0387756Y0233465D01*
X0387756Y0069291D01*
X0385394Y0066929D01*
X0372402Y0066929D01*
X0368465Y0070866D02*
X0383031Y0070866D01*
X0385787Y0073622D01*
X0385787Y0232677D01*
X0375551Y0242913D01*
X0369252Y0242913D01*
X0367303Y0240965D01*
X0367303Y0237031D01*
X0362303Y0237031D02*
X0362303Y0241870D01*
X0365315Y0244882D01*
X0376339Y0244882D01*
X0378677Y0237031D02*
X0372303Y0237031D01*
X0378677Y0237031D02*
X0383819Y0231890D01*
X0383819Y0087008D01*
X0380276Y0083465D01*
X0364134Y0083465D01*
X0360591Y0083465D01*
X0354685Y0089370D01*
X0354685Y0096063D01*
X0351929Y0098819D01*
X0340118Y0098819D01*
X0338185Y0100752D01*
X0338185Y0104858D01*
X0343185Y0104858D02*
X0343185Y0109760D01*
X0345630Y0112205D01*
X0348185Y0108461D02*
X0350748Y0111024D01*
X0350748Y0115354D01*
X0346024Y0117323D02*
X0328701Y0117323D01*
X0325945Y0114567D01*
X0315744Y0117024D02*
X0315650Y0116929D01*
X0311378Y0116929D01*
X0308228Y0113780D01*
X0304685Y0110236D01*
X0308228Y0113780D02*
X0308228Y0094488D01*
X0322402Y0080315D01*
X0336575Y0080315D01*
X0339724Y0083858D02*
X0344055Y0079528D01*
X0344055Y0064961D01*
X0348780Y0060236D01*
X0363346Y0076772D02*
X0350354Y0089764D01*
X0338937Y0089764D01*
X0339724Y0083858D02*
X0324764Y0083858D01*
X0314134Y0094488D01*
X0310591Y0098031D01*
X0310591Y0109449D01*
X0313165Y0112024D01*
X0315744Y0112024D01*
X0323185Y0104858D02*
X0323185Y0093705D01*
X0323189Y0093701D01*
X0328185Y0087917D02*
X0328307Y0087795D01*
X0328185Y0087917D02*
X0328185Y0104858D01*
X0348185Y0104858D02*
X0348185Y0108461D01*
X0353185Y0104858D02*
X0353185Y0101500D01*
X0356654Y0098031D01*
X0356654Y0091339D01*
X0359409Y0088583D01*
X0377520Y0088583D01*
X0377520Y0093701D02*
X0361772Y0093701D01*
X0367677Y0102362D02*
X0377520Y0102362D01*
X0379882Y0104724D01*
X0379882Y0172047D01*
X0377520Y0174409D01*
X0374370Y0174409D01*
X0378307Y0178740D02*
X0381850Y0175197D01*
X0381850Y0098031D01*
X0377520Y0093701D01*
X0367677Y0102362D02*
X0364528Y0105512D01*
X0364528Y0107087D01*
X0364528Y0108268D01*
X0360772Y0112024D01*
X0360626Y0112024D01*
X0360720Y0116929D02*
X0360626Y0117024D01*
X0360720Y0116929D02*
X0364921Y0116929D01*
X0366102Y0115748D01*
X0368465Y0115748D01*
X0366102Y0122047D02*
X0360650Y0122047D01*
X0360626Y0122024D01*
X0350724Y0122024D01*
X0346024Y0117323D01*
X0337362Y0121260D02*
X0337362Y0124409D01*
X0344976Y0132024D01*
X0360626Y0132024D01*
X0360642Y0137008D02*
X0360626Y0137024D01*
X0346039Y0137024D01*
X0333819Y0124803D01*
X0324764Y0125197D02*
X0321614Y0122047D01*
X0315768Y0122047D01*
X0315744Y0122024D01*
X0315744Y0127024D02*
X0309661Y0127024D01*
X0306654Y0124016D01*
X0306654Y0130709D02*
X0307969Y0132024D01*
X0315744Y0132024D01*
X0315744Y0137024D02*
X0324386Y0137024D01*
X0325157Y0137795D01*
X0331063Y0137795D01*
X0340906Y0147638D01*
X0340906Y0151575D01*
X0335787Y0151575D02*
X0335787Y0148031D01*
X0329094Y0141339D01*
X0328409Y0142024D01*
X0315744Y0142024D01*
X0315744Y0147024D02*
X0323756Y0147024D01*
X0324370Y0147638D01*
X0328701Y0151181D02*
X0327858Y0152024D01*
X0315744Y0152024D01*
X0323185Y0155516D02*
X0323189Y0155512D01*
X0303504Y0155512D01*
X0313740Y0161024D02*
X0317677Y0164961D01*
X0327126Y0164961D01*
X0328185Y0163902D01*
X0328185Y0159189D01*
X0323185Y0159189D02*
X0323185Y0155516D01*
X0333185Y0159189D02*
X0333185Y0165594D01*
X0331850Y0166929D01*
X0299961Y0166929D01*
X0294449Y0170866D02*
X0311772Y0170866D01*
X0312953Y0178740D02*
X0317303Y0183091D01*
X0317303Y0186512D01*
X0312303Y0186512D02*
X0312303Y0193169D01*
X0310197Y0195276D01*
X0322303Y0186512D02*
X0322303Y0179429D01*
X0321614Y0178740D01*
X0326732Y0178740D02*
X0327303Y0179311D01*
X0327303Y0186512D01*
X0332303Y0186512D02*
X0332303Y0179193D01*
X0331850Y0178740D01*
X0333819Y0175197D02*
X0336181Y0177559D01*
X0336181Y0178740D01*
X0336969Y0179528D01*
X0345236Y0179528D01*
X0349173Y0175591D01*
X0355866Y0175591D01*
X0360197Y0171260D01*
X0360197Y0166929D01*
X0358622Y0165354D01*
X0349173Y0165354D01*
X0347992Y0164173D01*
X0347992Y0159382D01*
X0348185Y0159189D01*
X0338543Y0159189D02*
X0338185Y0159189D01*
X0352323Y0146850D02*
X0352496Y0147024D01*
X0360626Y0147024D01*
X0360728Y0142126D02*
X0360626Y0142024D01*
X0349669Y0142024D01*
X0349567Y0142126D01*
X0360728Y0142126D02*
X0370039Y0142126D01*
X0372402Y0137008D02*
X0360642Y0137008D01*
X0368858Y0130315D02*
X0368858Y0127953D01*
X0367677Y0126772D01*
X0367677Y0123622D01*
X0366102Y0122047D01*
X0372008Y0125984D02*
X0372008Y0107480D01*
X0375945Y0112992D02*
X0375945Y0122441D01*
X0360626Y0127024D02*
X0348244Y0127024D01*
X0345630Y0124409D01*
X0324764Y0125197D02*
X0324764Y0125984D01*
X0360626Y0152024D02*
X0367339Y0152024D01*
X0368071Y0152756D01*
X0368071Y0160236D01*
X0366496Y0161811D01*
X0361378Y0161811D01*
X0363740Y0178740D02*
X0378307Y0178740D01*
X0367303Y0186512D02*
X0367303Y0194508D01*
X0368858Y0196063D01*
X0362165Y0205906D02*
X0357303Y0201043D01*
X0357303Y0186512D01*
X0352303Y0186512D02*
X0352303Y0199587D01*
X0360984Y0208268D01*
X0375551Y0208268D01*
X0378307Y0211024D01*
X0381850Y0208268D02*
X0381850Y0216929D01*
X0379488Y0219291D01*
X0381850Y0208268D02*
X0379488Y0205906D01*
X0362165Y0205906D01*
X0347205Y0201181D02*
X0347205Y0196850D01*
X0347205Y0201181D02*
X0343661Y0204724D01*
X0343661Y0209055D01*
X0338543Y0214173D01*
X0306260Y0214173D01*
X0303504Y0211417D01*
X0294449Y0211417D01*
X0292480Y0209449D01*
X0284606Y0209449D01*
X0288543Y0205906D02*
X0292480Y0205906D01*
X0295630Y0209055D01*
X0304685Y0209055D01*
X0307441Y0211811D01*
X0337362Y0211811D01*
X0341299Y0207874D01*
X0341299Y0203543D01*
X0342303Y0202539D01*
X0342303Y0186512D01*
X0347303Y0186512D02*
X0347303Y0180610D01*
X0348780Y0179134D01*
X0350748Y0179134D01*
X0362303Y0180177D02*
X0362303Y0186512D01*
X0362303Y0180177D02*
X0363740Y0178740D01*
X0337303Y0186512D02*
X0337303Y0206752D01*
X0335787Y0208268D01*
X0309016Y0208268D01*
X0307835Y0220079D02*
X0300748Y0220079D01*
X0298780Y0218110D01*
X0259803Y0206299D02*
X0255866Y0210236D01*
X0231850Y0210236D01*
X0230669Y0211417D01*
X0223583Y0211417D01*
X0227126Y0225591D02*
X0230276Y0228740D01*
X0230276Y0246457D01*
X0227126Y0225591D02*
X0164134Y0225591D01*
X0161378Y0229134D02*
X0157835Y0225591D01*
X0151929Y0225591D02*
X0159803Y0233465D01*
X0181850Y0233465D01*
X0184213Y0229134D02*
X0186575Y0231496D01*
X0186575Y0246457D01*
X0184213Y0229134D02*
X0161378Y0229134D01*
X0110591Y0233071D02*
X0110591Y0243307D01*
X0104291Y0249606D01*
X0096614Y0249606D01*
X0088346Y0249606D02*
X0085000Y0249606D01*
X0082047Y0246654D01*
X0082047Y0230315D01*
X0064528Y0225984D02*
X0024031Y0225984D01*
X0015685Y0234331D01*
X0022402Y0237795D02*
X0022402Y0240945D01*
X0018858Y0244488D01*
X0015843Y0244488D01*
X0015685Y0244331D01*
X0022402Y0237795D02*
X0029882Y0230315D01*
X0058228Y0230315D01*
X0055866Y0211024D02*
X0057835Y0209055D01*
X0055866Y0211024D02*
X0026339Y0211024D01*
X0022008Y0215354D01*
X0022008Y0221654D01*
X0019252Y0224409D01*
X0015764Y0224409D01*
X0015685Y0224331D01*
X0015685Y0214331D02*
X0024898Y0205118D01*
X0029882Y0205118D01*
X0035787Y0199213D01*
X0059409Y0199213D01*
X0098976Y0196850D02*
X0098976Y0216535D01*
X0106850Y0224409D01*
X0105669Y0196850D02*
X0114921Y0196850D01*
X0158299Y0192087D02*
X0158339Y0192126D01*
X0161772Y0192126D01*
X0163346Y0190551D01*
X0164921Y0190551D01*
X0172402Y0190551D01*
X0179488Y0183465D01*
X0183819Y0183465D01*
X0183819Y0181496D02*
X0178307Y0181496D01*
X0174370Y0185433D01*
X0166890Y0185433D01*
X0166496Y0185433D01*
X0161772Y0180709D01*
X0158315Y0180709D01*
X0158299Y0180693D01*
X0165315Y0155906D02*
X0144055Y0134646D01*
X0144055Y0041461D01*
X0144185Y0041331D01*
X0154185Y0041331D02*
X0154291Y0041437D01*
X0154291Y0051575D01*
X0154291Y0138583D01*
X0169252Y0141732D02*
X0173583Y0146063D01*
X0183819Y0146063D01*
X0183819Y0144094D02*
X0189724Y0144094D01*
X0183819Y0155906D02*
X0165315Y0155906D01*
X0201535Y0134646D02*
X0201535Y0128346D01*
X0241693Y0171654D02*
X0246811Y0171654D01*
X0246811Y0173622D02*
X0255472Y0173622D01*
X0253504Y0178740D02*
X0253898Y0179134D01*
X0276339Y0179134D01*
X0280276Y0175197D01*
X0333819Y0175197D01*
X0259803Y0187402D02*
X0259803Y0206299D01*
X0248386Y0191339D02*
X0238937Y0191339D01*
X0236969Y0191339D02*
X0236969Y0196457D01*
X0238543Y0198031D01*
X0363346Y0076772D02*
X0381850Y0076772D01*
M02*
