G75*
%MOIN*%
%OFA0B0*%
%FSLAX25Y25*%
%IPPOS*%
%LPD*%
%AMOC8*
5,1,8,0,0,1.08239X$1,22.5*
%
%ADD10R,0.03162X0.09461*%
%ADD11R,0.09461X0.03162*%
%ADD12R,0.06700X0.08700*%
%ADD13R,0.15800X0.08700*%
%ADD14R,0.05800X0.30800*%
%ADD15C,0.18517*%
%ADD16C,0.05131*%
%ADD17C,0.07099*%
%ADD18R,0.05524X0.01745*%
%ADD19R,0.01745X0.05524*%
%ADD20R,0.05131X0.04737*%
%ADD21R,0.14580X0.07099*%
%ADD22OC8,0.07100*%
%ADD23R,0.04737X0.05131*%
%ADD24R,0.04737X0.06312*%
%ADD25R,0.05524X0.05524*%
%ADD26C,0.05950*%
%ADD27C,0.09068*%
%ADD28C,0.04762*%
D10*
X0297303Y0186512D03*
X0302303Y0186512D03*
X0307303Y0186512D03*
X0312303Y0186512D03*
X0317303Y0186512D03*
X0322303Y0186512D03*
X0327303Y0186512D03*
X0332303Y0186512D03*
X0337303Y0186512D03*
X0342303Y0186512D03*
X0347303Y0186512D03*
X0352303Y0186512D03*
X0357303Y0186512D03*
X0362303Y0186512D03*
X0367303Y0186512D03*
X0372303Y0186512D03*
X0353185Y0159189D03*
X0348185Y0159189D03*
X0343185Y0159189D03*
X0338185Y0159189D03*
X0333185Y0159189D03*
X0328185Y0159189D03*
X0323185Y0159189D03*
X0323185Y0104858D03*
X0328185Y0104858D03*
X0333185Y0104858D03*
X0338185Y0104858D03*
X0343185Y0104858D03*
X0348185Y0104858D03*
X0353185Y0104858D03*
X0352303Y0237031D03*
X0347303Y0237031D03*
X0342303Y0237031D03*
X0337303Y0237031D03*
X0332303Y0237031D03*
X0327303Y0237031D03*
X0322303Y0237031D03*
X0317303Y0237031D03*
X0312303Y0237031D03*
X0307303Y0237031D03*
X0302303Y0237031D03*
X0297303Y0237031D03*
X0357303Y0237031D03*
X0362303Y0237031D03*
X0367303Y0237031D03*
X0372303Y0237031D03*
D11*
X0360626Y0152024D03*
X0360626Y0147024D03*
X0360626Y0142024D03*
X0360626Y0137024D03*
X0360626Y0132024D03*
X0360626Y0127024D03*
X0360626Y0122024D03*
X0360626Y0117024D03*
X0360626Y0112024D03*
X0315744Y0112024D03*
X0315744Y0117024D03*
X0315744Y0122024D03*
X0315744Y0127024D03*
X0315744Y0132024D03*
X0315744Y0137024D03*
X0315744Y0142024D03*
X0315744Y0147024D03*
X0315744Y0152024D03*
D12*
X0075785Y0115206D03*
X0066785Y0115206D03*
X0057785Y0115206D03*
D13*
X0066685Y0140006D03*
D14*
X0099114Y0020000D03*
X0109114Y0020000D03*
X0119114Y0020000D03*
X0129114Y0025000D03*
X0139114Y0020000D03*
X0149114Y0020000D03*
X0159114Y0020000D03*
X0169114Y0020000D03*
X0179114Y0020000D03*
X0189114Y0020000D03*
X0199114Y0020000D03*
X0209114Y0020000D03*
X0219114Y0020000D03*
X0229114Y0020000D03*
X0239114Y0020000D03*
X0249114Y0020000D03*
X0259114Y0020000D03*
X0269114Y0020000D03*
X0279114Y0020000D03*
X0289114Y0020000D03*
X0299114Y0020000D03*
X0309114Y0020000D03*
X0319114Y0020000D03*
X0329114Y0020000D03*
X0339114Y0020000D03*
D15*
X0329882Y0068185D03*
X0108465Y0088654D03*
D16*
X0048445Y0164756D03*
D17*
X0131122Y0164756D03*
D18*
X0183819Y0163780D03*
X0183819Y0165748D03*
X0183819Y0167717D03*
X0183819Y0169685D03*
X0183819Y0171654D03*
X0183819Y0173622D03*
X0183819Y0175591D03*
X0183819Y0177559D03*
X0183819Y0179528D03*
X0183819Y0181496D03*
X0183819Y0183465D03*
X0183819Y0161811D03*
X0183819Y0159843D03*
X0183819Y0157874D03*
X0183819Y0155906D03*
X0183819Y0153937D03*
X0183819Y0151969D03*
X0183819Y0150000D03*
X0183819Y0148031D03*
X0183819Y0146063D03*
X0183819Y0144094D03*
X0183819Y0142126D03*
X0183819Y0140157D03*
X0183819Y0138189D03*
X0183819Y0136220D03*
X0246811Y0136220D03*
X0246811Y0138189D03*
X0246811Y0140157D03*
X0246811Y0142126D03*
X0246811Y0144094D03*
X0246811Y0146063D03*
X0246811Y0148031D03*
X0246811Y0150000D03*
X0246811Y0151969D03*
X0246811Y0153937D03*
X0246811Y0155906D03*
X0246811Y0157874D03*
X0246811Y0159843D03*
X0246811Y0161811D03*
X0246811Y0163780D03*
X0246811Y0165748D03*
X0246811Y0167717D03*
X0246811Y0169685D03*
X0246811Y0171654D03*
X0246811Y0173622D03*
X0246811Y0175591D03*
X0246811Y0177559D03*
X0246811Y0179528D03*
X0246811Y0181496D03*
X0246811Y0183465D03*
D19*
X0238937Y0191339D03*
X0236969Y0191339D03*
X0235000Y0191339D03*
X0233031Y0191339D03*
X0231063Y0191339D03*
X0229094Y0191339D03*
X0227126Y0191339D03*
X0225157Y0191339D03*
X0223189Y0191339D03*
X0221220Y0191339D03*
X0219252Y0191339D03*
X0217283Y0191339D03*
X0215315Y0191339D03*
X0213346Y0191339D03*
X0211378Y0191339D03*
X0209409Y0191339D03*
X0207441Y0191339D03*
X0205472Y0191339D03*
X0203504Y0191339D03*
X0201535Y0191339D03*
X0199567Y0191339D03*
X0197598Y0191339D03*
X0195630Y0191339D03*
X0193661Y0191339D03*
X0191693Y0191339D03*
X0191693Y0128346D03*
X0193661Y0128346D03*
X0195630Y0128346D03*
X0197598Y0128346D03*
X0199567Y0128346D03*
X0201535Y0128346D03*
X0203504Y0128346D03*
X0205472Y0128346D03*
X0207441Y0128346D03*
X0209409Y0128346D03*
X0211378Y0128346D03*
X0213346Y0128346D03*
X0215315Y0128346D03*
X0217283Y0128346D03*
X0219252Y0128346D03*
X0221220Y0128346D03*
X0223189Y0128346D03*
X0225157Y0128346D03*
X0227126Y0128346D03*
X0229094Y0128346D03*
X0231063Y0128346D03*
X0233031Y0128346D03*
X0235000Y0128346D03*
X0236969Y0128346D03*
X0238937Y0128346D03*
D20*
X0340429Y0171717D03*
X0347122Y0171717D03*
X0288575Y0233992D03*
X0281882Y0233992D03*
X0092795Y0139760D03*
X0086102Y0139760D03*
X0066531Y0102150D03*
X0059839Y0102150D03*
D21*
X0058055Y0074331D03*
X0079315Y0074331D03*
D22*
X0015685Y0194331D03*
X0015685Y0204331D03*
X0015685Y0214331D03*
X0015685Y0224331D03*
X0015685Y0234331D03*
X0015685Y0244331D03*
D23*
X0075354Y0230315D03*
X0082047Y0230315D03*
X0098976Y0196850D03*
X0105669Y0196850D03*
X0151606Y0192087D03*
X0158299Y0192087D03*
X0158299Y0180693D03*
X0151606Y0180693D03*
X0151732Y0203543D03*
X0158425Y0203543D03*
X0122598Y0127165D03*
X0115906Y0127165D03*
D24*
X0114331Y0224409D03*
X0106850Y0224409D03*
X0110591Y0233071D03*
D25*
X0096614Y0249606D03*
X0088346Y0249606D03*
D26*
X0178701Y0246457D03*
X0186575Y0246457D03*
X0194449Y0246457D03*
X0222402Y0246457D03*
X0230276Y0246457D03*
X0238150Y0246457D03*
D27*
X0246417Y0246457D03*
X0214134Y0246457D03*
X0202717Y0246457D03*
X0170433Y0246457D03*
D28*
X0181850Y0233465D03*
X0164134Y0225591D03*
X0157835Y0225591D03*
X0151929Y0225591D03*
X0159016Y0213780D03*
X0151535Y0211024D03*
X0162165Y0209449D03*
X0165315Y0205118D03*
X0164528Y0196063D03*
X0164921Y0190551D03*
X0166890Y0185433D03*
X0183819Y0191339D03*
X0196024Y0197244D03*
X0194843Y0204331D03*
X0187362Y0203543D03*
X0185000Y0208661D03*
X0190906Y0212598D03*
X0181850Y0213386D03*
X0199567Y0213780D03*
X0207441Y0207874D03*
X0213346Y0205906D03*
X0209409Y0198819D03*
X0219252Y0198031D03*
X0226339Y0200000D03*
X0227126Y0205512D03*
X0235787Y0202362D03*
X0238543Y0198031D03*
X0249961Y0198819D03*
X0248386Y0191339D03*
X0233031Y0179921D03*
X0227913Y0183858D03*
X0203504Y0183071D03*
X0203504Y0174016D03*
X0205472Y0157480D03*
X0222008Y0143701D03*
X0228307Y0143701D03*
X0233819Y0143701D03*
X0240512Y0142913D03*
X0247598Y0129921D03*
X0264134Y0122835D03*
X0268858Y0134646D03*
X0290118Y0150394D03*
X0303504Y0155512D03*
X0313740Y0161024D03*
X0299961Y0166929D03*
X0294449Y0170866D03*
X0311772Y0170866D03*
X0317283Y0171654D03*
X0312953Y0178740D03*
X0321614Y0178740D03*
X0326732Y0178740D03*
X0331850Y0178740D03*
X0336575Y0166929D03*
X0350748Y0179134D03*
X0354291Y0170079D03*
X0361378Y0161811D03*
X0357441Y0156299D03*
X0352323Y0146850D03*
X0349567Y0142126D03*
X0340906Y0151575D03*
X0335787Y0151575D03*
X0328701Y0151181D03*
X0324370Y0147638D03*
X0329094Y0141339D03*
X0325157Y0137795D03*
X0324764Y0125984D03*
X0333819Y0124803D03*
X0337362Y0121260D03*
X0345630Y0124409D03*
X0350748Y0115354D03*
X0345630Y0112205D03*
X0364528Y0107087D03*
X0362165Y0100394D03*
X0372008Y0107480D03*
X0375945Y0112992D03*
X0368465Y0115748D03*
X0375945Y0122441D03*
X0372008Y0125984D03*
X0368858Y0130315D03*
X0372402Y0137008D03*
X0370039Y0142126D03*
X0325945Y0114567D03*
X0306654Y0124016D03*
X0306654Y0130709D03*
X0304685Y0110236D03*
X0314134Y0094488D03*
X0323189Y0093701D03*
X0328307Y0087795D03*
X0338937Y0089764D03*
X0336575Y0080315D03*
X0351142Y0077953D03*
X0364134Y0083465D03*
X0377520Y0088583D03*
X0361772Y0093701D03*
X0381850Y0076772D03*
X0372402Y0066929D03*
X0368465Y0070866D03*
X0356260Y0064567D03*
X0318071Y0055512D03*
X0294055Y0041339D03*
X0284185Y0041331D03*
X0274185Y0041331D03*
X0264185Y0041331D03*
X0254185Y0041331D03*
X0244185Y0041331D03*
X0234185Y0041331D03*
X0224185Y0041331D03*
X0214185Y0041331D03*
X0204185Y0041331D03*
X0194185Y0041331D03*
X0184185Y0041331D03*
X0174185Y0041331D03*
X0164185Y0041331D03*
X0154185Y0041331D03*
X0149173Y0045669D03*
X0144185Y0041331D03*
X0154291Y0051575D03*
X0159016Y0057480D03*
X0164134Y0062598D03*
X0169252Y0067323D03*
X0174370Y0072835D03*
X0179094Y0077953D03*
X0188937Y0077953D03*
X0194055Y0074016D03*
X0199173Y0070079D03*
X0204291Y0066142D03*
X0209016Y0062205D03*
X0224370Y0062205D03*
X0229094Y0075197D03*
X0219252Y0084646D03*
X0234213Y0096850D03*
X0238937Y0092520D03*
X0254291Y0069291D03*
X0249173Y0066535D03*
X0244449Y0063386D03*
X0268858Y0069291D03*
X0279094Y0062598D03*
X0279114Y0062598D03*
X0199173Y0089764D03*
X0194055Y0094094D03*
X0183819Y0085039D03*
X0136181Y0073622D03*
X0130276Y0068504D03*
X0129882Y0054724D03*
X0123189Y0054724D03*
X0109185Y0054331D03*
X0086575Y0092913D03*
X0086575Y0100787D03*
X0086969Y0113386D03*
X0049961Y0107480D03*
X0049961Y0123622D03*
X0029094Y0131496D03*
X0021220Y0098425D03*
X0079882Y0145669D03*
X0110984Y0145669D03*
X0113346Y0140157D03*
X0138150Y0122835D03*
X0136181Y0099606D03*
X0193268Y0137795D03*
X0201535Y0134646D03*
X0215315Y0138976D03*
X0222402Y0134646D03*
X0255472Y0161811D03*
X0255472Y0173622D03*
X0253504Y0178740D03*
X0280669Y0192520D03*
X0289724Y0187402D03*
X0303110Y0202362D03*
X0310197Y0195276D03*
X0309016Y0208268D03*
X0307835Y0220079D03*
X0298386Y0226772D03*
X0288543Y0225591D03*
X0275157Y0233858D03*
X0269646Y0242913D03*
X0251929Y0239764D03*
X0247598Y0233465D03*
X0246811Y0227953D03*
X0244055Y0214173D03*
X0267283Y0211811D03*
X0284606Y0209449D03*
X0288543Y0205906D03*
X0322402Y0224409D03*
X0327520Y0227559D03*
X0336575Y0223622D03*
X0342087Y0225591D03*
X0337362Y0229528D03*
X0352323Y0222835D03*
X0347205Y0206693D03*
X0347205Y0196850D03*
X0327913Y0201575D03*
X0368858Y0196063D03*
X0378701Y0198425D03*
X0378307Y0211024D03*
X0379488Y0219291D03*
X0374370Y0225591D03*
X0382244Y0246850D03*
X0353898Y0247244D03*
X0334213Y0245669D03*
X0317283Y0244488D03*
X0307441Y0244488D03*
X0302323Y0244488D03*
X0290512Y0243307D03*
X0217677Y0217717D03*
X0210591Y0213780D03*
X0140512Y0176772D03*
X0127913Y0195276D03*
X0127913Y0205512D03*
X0114921Y0196850D03*
X0125945Y0218504D03*
X0090118Y0218504D03*
X0064528Y0225984D03*
X0058228Y0230315D03*
X0057835Y0209055D03*
X0059409Y0199213D03*
X0039331Y0206299D03*
X0062165Y0168504D03*
X0081063Y0166142D03*
X0149567Y0146063D03*
X0173976Y0140945D03*
X0374370Y0174409D03*
M02*
