%
M48
M72
T01C0.02362
T02C0.03150
T03C0.03600
T04C0.04331
T05C0.05512
T06C0.06299
T07C0.17717
%
T01
X49961Y107480
X49961Y123622
X29094Y131496
X21220Y98425
X86575Y100787
X86575Y92913
X130276Y68504
X136181Y73622
X159016Y57480
X164134Y62598
X169252Y67323
X174370Y72835
X179094Y77953
X188937Y77953
X194055Y74016
X199173Y70079
X204291Y66142
X209016Y62205
X224370Y62205
X229094Y75197
X219252Y84646
X234213Y96850
X238937Y92520
X254291Y69291
X249173Y66535
X244449Y63386
X268858Y69291
X279094Y62598
X279114Y62598
X274185Y41331
X264185Y41331
X254185Y41331
X244185Y41331
X234185Y41331
X224185Y41331
X214185Y41331
X204185Y41331
X194185Y41331
X184185Y41331
X174185Y41331
X164185Y41331
X154185Y41331
X149173Y45669
X144185Y41331
X154291Y51575
X129882Y54724
X123189Y54724
X109185Y54331
X136181Y99606
X138150Y122835
X113346Y140157
X110984Y145669
X79882Y145669
X81063Y166142
X62165Y168504
X59409Y199213
X57835Y209055
X39331Y206299
X64528Y225984
X58228Y230315
X90118Y218504
X114921Y196850
X127913Y195276
X127913Y205512
X125945Y218504
X151535Y211024
X159016Y213780
X162165Y209449
X165315Y205118
X164528Y196063
X164921Y190551
X166890Y185433
X183819Y191339
X196024Y197244
X194843Y204331
X187362Y203543
X185000Y208661
X190906Y212598
X181850Y213386
X164134Y225591
X157835Y225591
X151929Y225591
X181850Y233465
X199567Y213780
X207441Y207874
X213346Y205906
X209409Y198819
X219252Y198031
X226339Y200000
X227126Y205512
X235787Y202362
X238543Y198031
X249961Y198819
X248386Y191339
X233031Y179921
X227913Y183858
X203504Y183071
X203504Y174016
X205472Y157480
X222008Y143701
X228307Y143701
X233819Y143701
X240512Y142913
X247598Y129921
X264134Y122835
X268858Y134646
X290118Y150394
X303504Y155512
X313740Y161024
X299961Y166929
X294449Y170866
X311772Y170866
X317283Y171654
X312953Y178740
X321614Y178740
X326732Y178740
X331850Y178740
X336575Y166929
X350748Y179134
X354291Y170079
X361378Y161811
X357441Y156299
X352323Y146850
X349567Y142126
X340906Y151575
X335787Y151575
X328701Y151181
X324370Y147638
X329094Y141339
X325157Y137795
X324764Y125984
X333819Y124803
X337362Y121260
X345630Y124409
X350748Y115354
X345630Y112205
X364528Y107087
X362165Y100394
X372008Y107480
X375945Y112992
X368465Y115748
X375945Y122441
X372008Y125984
X368858Y130315
X372402Y137008
X370039Y142126
X325945Y114567
X306654Y124016
X306654Y130709
X304685Y110236
X314134Y94488
X323189Y93701
X328307Y87795
X338937Y89764
X336575Y80315
X351142Y77953
X364134Y83465
X377520Y88583
X361772Y93701
X381850Y76772
X372402Y66929
X368465Y70866
X356260Y64567
X318071Y55512
X294055Y41339
X284185Y41331
X199173Y89764
X194055Y94094
X183819Y85039
X201535Y134646
X193268Y137795
X173976Y140945
X149567Y146063
X140512Y176772
X210591Y213780
X217677Y217717
X244055Y214173
X246811Y227953
X247598Y233465
X251929Y239764
X269646Y242913
X275157Y233858
X288543Y225591
X298386Y226772
X307835Y220079
X309016Y208268
X303110Y202362
X310197Y195276
X327913Y201575
X347205Y196850
X347205Y206693
X368858Y196063
X378701Y198425
X378307Y211024
X379488Y219291
X374370Y225591
X352323Y222835
X342087Y225591
X336575Y223622
X337362Y229528
X327520Y227559
X322402Y224409
X317283Y244488
X307441Y244488
X302323Y244488
X290512Y243307
X334213Y245669
X353898Y247244
X382244Y246850
X288543Y205906
X284606Y209449
X267283Y211811
X280669Y192520
X289724Y187402
X255472Y173622
X253504Y178740
X255472Y161811
X215315Y138976
X222402Y134646
X86969Y113386
X374370Y174409
T02
X178701Y246457
X186575Y246457
X194449Y246457
X222402Y246457
X230276Y246457
X238150Y246457
T03
X15685Y194331
X15685Y204331
X15685Y214331
X15685Y224331
X15685Y234331
X15685Y244331
T04
X48445Y164756
T05
X170433Y246457
X202717Y246457
X214134Y246457
X246417Y246457
T06
X131122Y164756
T07
X108465Y88654
X329882Y68185
M30
