G75*
%MOIN*%
%OFA0B0*%
%FSLAX25Y25*%
%IPPOS*%
%LPD*%
%AMOC8*
5,1,8,0,0,1.08239X$1,22.5*
%
%ADD10C,0.00000*%
%ADD11C,0.00500*%
%ADD12C,0.00400*%
%ADD13C,0.00394*%
D10*
X0044370Y0056181D02*
X0044370Y0091614D01*
X0005000Y0091614D01*
X0005000Y0255000D01*
X0396732Y0255000D01*
X0396732Y0056161D01*
X0346614Y0056161D01*
X0346614Y0056181D01*
X0346614Y0056161D02*
X0346614Y0005000D01*
X0091614Y0005000D01*
X0091614Y0056181D01*
X0044370Y0056181D01*
X0099607Y0088654D02*
X0099610Y0088871D01*
X0099618Y0089089D01*
X0099631Y0089306D01*
X0099650Y0089522D01*
X0099674Y0089738D01*
X0099703Y0089954D01*
X0099737Y0090168D01*
X0099777Y0090382D01*
X0099822Y0090595D01*
X0099872Y0090806D01*
X0099928Y0091017D01*
X0099988Y0091225D01*
X0100054Y0091433D01*
X0100125Y0091638D01*
X0100201Y0091842D01*
X0100281Y0092044D01*
X0100367Y0092244D01*
X0100457Y0092441D01*
X0100553Y0092637D01*
X0100653Y0092830D01*
X0100758Y0093020D01*
X0100867Y0093208D01*
X0100981Y0093393D01*
X0101100Y0093575D01*
X0101223Y0093755D01*
X0101350Y0093931D01*
X0101482Y0094104D01*
X0101618Y0094273D01*
X0101758Y0094440D01*
X0101902Y0094603D01*
X0102050Y0094762D01*
X0102201Y0094918D01*
X0102357Y0095069D01*
X0102516Y0095217D01*
X0102679Y0095361D01*
X0102846Y0095501D01*
X0103015Y0095637D01*
X0103188Y0095769D01*
X0103364Y0095896D01*
X0103544Y0096019D01*
X0103726Y0096138D01*
X0103911Y0096252D01*
X0104099Y0096361D01*
X0104289Y0096466D01*
X0104482Y0096566D01*
X0104678Y0096662D01*
X0104875Y0096752D01*
X0105075Y0096838D01*
X0105277Y0096918D01*
X0105481Y0096994D01*
X0105686Y0097065D01*
X0105894Y0097131D01*
X0106102Y0097191D01*
X0106313Y0097247D01*
X0106524Y0097297D01*
X0106737Y0097342D01*
X0106951Y0097382D01*
X0107165Y0097416D01*
X0107381Y0097445D01*
X0107597Y0097469D01*
X0107813Y0097488D01*
X0108030Y0097501D01*
X0108248Y0097509D01*
X0108465Y0097512D01*
X0108682Y0097509D01*
X0108900Y0097501D01*
X0109117Y0097488D01*
X0109333Y0097469D01*
X0109549Y0097445D01*
X0109765Y0097416D01*
X0109979Y0097382D01*
X0110193Y0097342D01*
X0110406Y0097297D01*
X0110617Y0097247D01*
X0110828Y0097191D01*
X0111036Y0097131D01*
X0111244Y0097065D01*
X0111449Y0096994D01*
X0111653Y0096918D01*
X0111855Y0096838D01*
X0112055Y0096752D01*
X0112252Y0096662D01*
X0112448Y0096566D01*
X0112641Y0096466D01*
X0112831Y0096361D01*
X0113019Y0096252D01*
X0113204Y0096138D01*
X0113386Y0096019D01*
X0113566Y0095896D01*
X0113742Y0095769D01*
X0113915Y0095637D01*
X0114084Y0095501D01*
X0114251Y0095361D01*
X0114414Y0095217D01*
X0114573Y0095069D01*
X0114729Y0094918D01*
X0114880Y0094762D01*
X0115028Y0094603D01*
X0115172Y0094440D01*
X0115312Y0094273D01*
X0115448Y0094104D01*
X0115580Y0093931D01*
X0115707Y0093755D01*
X0115830Y0093575D01*
X0115949Y0093393D01*
X0116063Y0093208D01*
X0116172Y0093020D01*
X0116277Y0092830D01*
X0116377Y0092637D01*
X0116473Y0092441D01*
X0116563Y0092244D01*
X0116649Y0092044D01*
X0116729Y0091842D01*
X0116805Y0091638D01*
X0116876Y0091433D01*
X0116942Y0091225D01*
X0117002Y0091017D01*
X0117058Y0090806D01*
X0117108Y0090595D01*
X0117153Y0090382D01*
X0117193Y0090168D01*
X0117227Y0089954D01*
X0117256Y0089738D01*
X0117280Y0089522D01*
X0117299Y0089306D01*
X0117312Y0089089D01*
X0117320Y0088871D01*
X0117323Y0088654D01*
X0117320Y0088437D01*
X0117312Y0088219D01*
X0117299Y0088002D01*
X0117280Y0087786D01*
X0117256Y0087570D01*
X0117227Y0087354D01*
X0117193Y0087140D01*
X0117153Y0086926D01*
X0117108Y0086713D01*
X0117058Y0086502D01*
X0117002Y0086291D01*
X0116942Y0086083D01*
X0116876Y0085875D01*
X0116805Y0085670D01*
X0116729Y0085466D01*
X0116649Y0085264D01*
X0116563Y0085064D01*
X0116473Y0084867D01*
X0116377Y0084671D01*
X0116277Y0084478D01*
X0116172Y0084288D01*
X0116063Y0084100D01*
X0115949Y0083915D01*
X0115830Y0083733D01*
X0115707Y0083553D01*
X0115580Y0083377D01*
X0115448Y0083204D01*
X0115312Y0083035D01*
X0115172Y0082868D01*
X0115028Y0082705D01*
X0114880Y0082546D01*
X0114729Y0082390D01*
X0114573Y0082239D01*
X0114414Y0082091D01*
X0114251Y0081947D01*
X0114084Y0081807D01*
X0113915Y0081671D01*
X0113742Y0081539D01*
X0113566Y0081412D01*
X0113386Y0081289D01*
X0113204Y0081170D01*
X0113019Y0081056D01*
X0112831Y0080947D01*
X0112641Y0080842D01*
X0112448Y0080742D01*
X0112252Y0080646D01*
X0112055Y0080556D01*
X0111855Y0080470D01*
X0111653Y0080390D01*
X0111449Y0080314D01*
X0111244Y0080243D01*
X0111036Y0080177D01*
X0110828Y0080117D01*
X0110617Y0080061D01*
X0110406Y0080011D01*
X0110193Y0079966D01*
X0109979Y0079926D01*
X0109765Y0079892D01*
X0109549Y0079863D01*
X0109333Y0079839D01*
X0109117Y0079820D01*
X0108900Y0079807D01*
X0108682Y0079799D01*
X0108465Y0079796D01*
X0108248Y0079799D01*
X0108030Y0079807D01*
X0107813Y0079820D01*
X0107597Y0079839D01*
X0107381Y0079863D01*
X0107165Y0079892D01*
X0106951Y0079926D01*
X0106737Y0079966D01*
X0106524Y0080011D01*
X0106313Y0080061D01*
X0106102Y0080117D01*
X0105894Y0080177D01*
X0105686Y0080243D01*
X0105481Y0080314D01*
X0105277Y0080390D01*
X0105075Y0080470D01*
X0104875Y0080556D01*
X0104678Y0080646D01*
X0104482Y0080742D01*
X0104289Y0080842D01*
X0104099Y0080947D01*
X0103911Y0081056D01*
X0103726Y0081170D01*
X0103544Y0081289D01*
X0103364Y0081412D01*
X0103188Y0081539D01*
X0103015Y0081671D01*
X0102846Y0081807D01*
X0102679Y0081947D01*
X0102516Y0082091D01*
X0102357Y0082239D01*
X0102201Y0082390D01*
X0102050Y0082546D01*
X0101902Y0082705D01*
X0101758Y0082868D01*
X0101618Y0083035D01*
X0101482Y0083204D01*
X0101350Y0083377D01*
X0101223Y0083553D01*
X0101100Y0083733D01*
X0100981Y0083915D01*
X0100867Y0084100D01*
X0100758Y0084288D01*
X0100653Y0084478D01*
X0100553Y0084671D01*
X0100457Y0084867D01*
X0100367Y0085064D01*
X0100281Y0085264D01*
X0100201Y0085466D01*
X0100125Y0085670D01*
X0100054Y0085875D01*
X0099988Y0086083D01*
X0099928Y0086291D01*
X0099872Y0086502D01*
X0099822Y0086713D01*
X0099777Y0086926D01*
X0099737Y0087140D01*
X0099703Y0087354D01*
X0099674Y0087570D01*
X0099650Y0087786D01*
X0099631Y0088002D01*
X0099618Y0088219D01*
X0099610Y0088437D01*
X0099607Y0088654D01*
X0127972Y0164756D02*
X0127974Y0164868D01*
X0127980Y0164979D01*
X0127990Y0165091D01*
X0128004Y0165202D01*
X0128021Y0165312D01*
X0128043Y0165422D01*
X0128069Y0165531D01*
X0128098Y0165639D01*
X0128131Y0165745D01*
X0128168Y0165851D01*
X0128209Y0165955D01*
X0128254Y0166058D01*
X0128302Y0166159D01*
X0128353Y0166258D01*
X0128408Y0166355D01*
X0128467Y0166450D01*
X0128528Y0166544D01*
X0128593Y0166635D01*
X0128662Y0166723D01*
X0128733Y0166809D01*
X0128807Y0166893D01*
X0128885Y0166973D01*
X0128965Y0167051D01*
X0129048Y0167127D01*
X0129133Y0167199D01*
X0129221Y0167268D01*
X0129311Y0167334D01*
X0129404Y0167396D01*
X0129499Y0167456D01*
X0129596Y0167512D01*
X0129694Y0167564D01*
X0129795Y0167613D01*
X0129897Y0167658D01*
X0130001Y0167700D01*
X0130106Y0167738D01*
X0130213Y0167772D01*
X0130320Y0167802D01*
X0130429Y0167829D01*
X0130538Y0167851D01*
X0130649Y0167870D01*
X0130759Y0167885D01*
X0130871Y0167896D01*
X0130982Y0167903D01*
X0131094Y0167906D01*
X0131206Y0167905D01*
X0131318Y0167900D01*
X0131429Y0167891D01*
X0131540Y0167878D01*
X0131651Y0167861D01*
X0131761Y0167841D01*
X0131870Y0167816D01*
X0131978Y0167788D01*
X0132085Y0167755D01*
X0132191Y0167719D01*
X0132295Y0167679D01*
X0132398Y0167636D01*
X0132500Y0167589D01*
X0132599Y0167538D01*
X0132697Y0167484D01*
X0132793Y0167426D01*
X0132887Y0167365D01*
X0132978Y0167301D01*
X0133067Y0167234D01*
X0133154Y0167163D01*
X0133238Y0167089D01*
X0133320Y0167013D01*
X0133398Y0166933D01*
X0133474Y0166851D01*
X0133547Y0166766D01*
X0133617Y0166679D01*
X0133683Y0166589D01*
X0133747Y0166497D01*
X0133807Y0166403D01*
X0133864Y0166307D01*
X0133917Y0166208D01*
X0133967Y0166108D01*
X0134013Y0166007D01*
X0134056Y0165903D01*
X0134095Y0165798D01*
X0134130Y0165692D01*
X0134161Y0165585D01*
X0134189Y0165476D01*
X0134212Y0165367D01*
X0134232Y0165257D01*
X0134248Y0165146D01*
X0134260Y0165035D01*
X0134268Y0164924D01*
X0134272Y0164812D01*
X0134272Y0164700D01*
X0134268Y0164588D01*
X0134260Y0164477D01*
X0134248Y0164366D01*
X0134232Y0164255D01*
X0134212Y0164145D01*
X0134189Y0164036D01*
X0134161Y0163927D01*
X0134130Y0163820D01*
X0134095Y0163714D01*
X0134056Y0163609D01*
X0134013Y0163505D01*
X0133967Y0163404D01*
X0133917Y0163304D01*
X0133864Y0163205D01*
X0133807Y0163109D01*
X0133747Y0163015D01*
X0133683Y0162923D01*
X0133617Y0162833D01*
X0133547Y0162746D01*
X0133474Y0162661D01*
X0133398Y0162579D01*
X0133320Y0162499D01*
X0133238Y0162423D01*
X0133154Y0162349D01*
X0133067Y0162278D01*
X0132978Y0162211D01*
X0132887Y0162147D01*
X0132793Y0162086D01*
X0132697Y0162028D01*
X0132599Y0161974D01*
X0132500Y0161923D01*
X0132398Y0161876D01*
X0132295Y0161833D01*
X0132191Y0161793D01*
X0132085Y0161757D01*
X0131978Y0161724D01*
X0131870Y0161696D01*
X0131761Y0161671D01*
X0131651Y0161651D01*
X0131540Y0161634D01*
X0131429Y0161621D01*
X0131318Y0161612D01*
X0131206Y0161607D01*
X0131094Y0161606D01*
X0130982Y0161609D01*
X0130871Y0161616D01*
X0130759Y0161627D01*
X0130649Y0161642D01*
X0130538Y0161661D01*
X0130429Y0161683D01*
X0130320Y0161710D01*
X0130213Y0161740D01*
X0130106Y0161774D01*
X0130001Y0161812D01*
X0129897Y0161854D01*
X0129795Y0161899D01*
X0129694Y0161948D01*
X0129596Y0162000D01*
X0129499Y0162056D01*
X0129404Y0162116D01*
X0129311Y0162178D01*
X0129221Y0162244D01*
X0129133Y0162313D01*
X0129048Y0162385D01*
X0128965Y0162461D01*
X0128885Y0162539D01*
X0128807Y0162619D01*
X0128733Y0162703D01*
X0128662Y0162789D01*
X0128593Y0162877D01*
X0128528Y0162968D01*
X0128467Y0163062D01*
X0128408Y0163157D01*
X0128353Y0163254D01*
X0128302Y0163353D01*
X0128254Y0163454D01*
X0128209Y0163557D01*
X0128168Y0163661D01*
X0128131Y0163767D01*
X0128098Y0163873D01*
X0128069Y0163981D01*
X0128043Y0164090D01*
X0128021Y0164200D01*
X0128004Y0164310D01*
X0127990Y0164421D01*
X0127980Y0164533D01*
X0127974Y0164644D01*
X0127972Y0164756D01*
X0046280Y0164756D02*
X0046282Y0164849D01*
X0046288Y0164941D01*
X0046298Y0165033D01*
X0046312Y0165124D01*
X0046329Y0165215D01*
X0046351Y0165305D01*
X0046376Y0165394D01*
X0046405Y0165482D01*
X0046438Y0165568D01*
X0046475Y0165653D01*
X0046515Y0165737D01*
X0046559Y0165818D01*
X0046606Y0165898D01*
X0046656Y0165976D01*
X0046710Y0166051D01*
X0046767Y0166124D01*
X0046827Y0166194D01*
X0046890Y0166262D01*
X0046956Y0166327D01*
X0047024Y0166389D01*
X0047095Y0166449D01*
X0047169Y0166505D01*
X0047245Y0166558D01*
X0047323Y0166607D01*
X0047403Y0166654D01*
X0047485Y0166696D01*
X0047569Y0166736D01*
X0047654Y0166771D01*
X0047741Y0166803D01*
X0047829Y0166832D01*
X0047918Y0166856D01*
X0048008Y0166877D01*
X0048099Y0166893D01*
X0048191Y0166906D01*
X0048283Y0166915D01*
X0048376Y0166920D01*
X0048468Y0166921D01*
X0048561Y0166918D01*
X0048653Y0166911D01*
X0048745Y0166900D01*
X0048836Y0166885D01*
X0048927Y0166867D01*
X0049017Y0166844D01*
X0049105Y0166818D01*
X0049193Y0166788D01*
X0049279Y0166754D01*
X0049363Y0166717D01*
X0049446Y0166675D01*
X0049527Y0166631D01*
X0049607Y0166583D01*
X0049684Y0166532D01*
X0049758Y0166477D01*
X0049831Y0166419D01*
X0049901Y0166359D01*
X0049968Y0166295D01*
X0050032Y0166229D01*
X0050094Y0166159D01*
X0050152Y0166088D01*
X0050207Y0166014D01*
X0050259Y0165937D01*
X0050308Y0165858D01*
X0050354Y0165778D01*
X0050396Y0165695D01*
X0050434Y0165611D01*
X0050469Y0165525D01*
X0050500Y0165438D01*
X0050527Y0165350D01*
X0050550Y0165260D01*
X0050570Y0165170D01*
X0050586Y0165079D01*
X0050598Y0164987D01*
X0050606Y0164895D01*
X0050610Y0164802D01*
X0050610Y0164710D01*
X0050606Y0164617D01*
X0050598Y0164525D01*
X0050586Y0164433D01*
X0050570Y0164342D01*
X0050550Y0164252D01*
X0050527Y0164162D01*
X0050500Y0164074D01*
X0050469Y0163987D01*
X0050434Y0163901D01*
X0050396Y0163817D01*
X0050354Y0163734D01*
X0050308Y0163654D01*
X0050259Y0163575D01*
X0050207Y0163498D01*
X0050152Y0163424D01*
X0050094Y0163353D01*
X0050032Y0163283D01*
X0049968Y0163217D01*
X0049901Y0163153D01*
X0049831Y0163093D01*
X0049758Y0163035D01*
X0049684Y0162980D01*
X0049607Y0162929D01*
X0049528Y0162881D01*
X0049446Y0162837D01*
X0049363Y0162795D01*
X0049279Y0162758D01*
X0049193Y0162724D01*
X0049105Y0162694D01*
X0049017Y0162668D01*
X0048927Y0162645D01*
X0048836Y0162627D01*
X0048745Y0162612D01*
X0048653Y0162601D01*
X0048561Y0162594D01*
X0048468Y0162591D01*
X0048376Y0162592D01*
X0048283Y0162597D01*
X0048191Y0162606D01*
X0048099Y0162619D01*
X0048008Y0162635D01*
X0047918Y0162656D01*
X0047829Y0162680D01*
X0047741Y0162709D01*
X0047654Y0162741D01*
X0047569Y0162776D01*
X0047485Y0162816D01*
X0047403Y0162858D01*
X0047323Y0162905D01*
X0047245Y0162954D01*
X0047169Y0163007D01*
X0047095Y0163063D01*
X0047024Y0163123D01*
X0046956Y0163185D01*
X0046890Y0163250D01*
X0046827Y0163318D01*
X0046767Y0163388D01*
X0046710Y0163461D01*
X0046656Y0163536D01*
X0046606Y0163614D01*
X0046559Y0163694D01*
X0046515Y0163775D01*
X0046475Y0163859D01*
X0046438Y0163944D01*
X0046405Y0164030D01*
X0046376Y0164118D01*
X0046351Y0164207D01*
X0046329Y0164297D01*
X0046312Y0164388D01*
X0046298Y0164479D01*
X0046288Y0164571D01*
X0046282Y0164663D01*
X0046280Y0164756D01*
X0321024Y0068185D02*
X0321027Y0068402D01*
X0321035Y0068620D01*
X0321048Y0068837D01*
X0321067Y0069053D01*
X0321091Y0069269D01*
X0321120Y0069485D01*
X0321154Y0069699D01*
X0321194Y0069913D01*
X0321239Y0070126D01*
X0321289Y0070337D01*
X0321345Y0070548D01*
X0321405Y0070756D01*
X0321471Y0070964D01*
X0321542Y0071169D01*
X0321618Y0071373D01*
X0321698Y0071575D01*
X0321784Y0071775D01*
X0321874Y0071972D01*
X0321970Y0072168D01*
X0322070Y0072361D01*
X0322175Y0072551D01*
X0322284Y0072739D01*
X0322398Y0072924D01*
X0322517Y0073106D01*
X0322640Y0073286D01*
X0322767Y0073462D01*
X0322899Y0073635D01*
X0323035Y0073804D01*
X0323175Y0073971D01*
X0323319Y0074134D01*
X0323467Y0074293D01*
X0323618Y0074449D01*
X0323774Y0074600D01*
X0323933Y0074748D01*
X0324096Y0074892D01*
X0324263Y0075032D01*
X0324432Y0075168D01*
X0324605Y0075300D01*
X0324781Y0075427D01*
X0324961Y0075550D01*
X0325143Y0075669D01*
X0325328Y0075783D01*
X0325516Y0075892D01*
X0325706Y0075997D01*
X0325899Y0076097D01*
X0326095Y0076193D01*
X0326292Y0076283D01*
X0326492Y0076369D01*
X0326694Y0076449D01*
X0326898Y0076525D01*
X0327103Y0076596D01*
X0327311Y0076662D01*
X0327519Y0076722D01*
X0327730Y0076778D01*
X0327941Y0076828D01*
X0328154Y0076873D01*
X0328368Y0076913D01*
X0328582Y0076947D01*
X0328798Y0076976D01*
X0329014Y0077000D01*
X0329230Y0077019D01*
X0329447Y0077032D01*
X0329665Y0077040D01*
X0329882Y0077043D01*
X0330099Y0077040D01*
X0330317Y0077032D01*
X0330534Y0077019D01*
X0330750Y0077000D01*
X0330966Y0076976D01*
X0331182Y0076947D01*
X0331396Y0076913D01*
X0331610Y0076873D01*
X0331823Y0076828D01*
X0332034Y0076778D01*
X0332245Y0076722D01*
X0332453Y0076662D01*
X0332661Y0076596D01*
X0332866Y0076525D01*
X0333070Y0076449D01*
X0333272Y0076369D01*
X0333472Y0076283D01*
X0333669Y0076193D01*
X0333865Y0076097D01*
X0334058Y0075997D01*
X0334248Y0075892D01*
X0334436Y0075783D01*
X0334621Y0075669D01*
X0334803Y0075550D01*
X0334983Y0075427D01*
X0335159Y0075300D01*
X0335332Y0075168D01*
X0335501Y0075032D01*
X0335668Y0074892D01*
X0335831Y0074748D01*
X0335990Y0074600D01*
X0336146Y0074449D01*
X0336297Y0074293D01*
X0336445Y0074134D01*
X0336589Y0073971D01*
X0336729Y0073804D01*
X0336865Y0073635D01*
X0336997Y0073462D01*
X0337124Y0073286D01*
X0337247Y0073106D01*
X0337366Y0072924D01*
X0337480Y0072739D01*
X0337589Y0072551D01*
X0337694Y0072361D01*
X0337794Y0072168D01*
X0337890Y0071972D01*
X0337980Y0071775D01*
X0338066Y0071575D01*
X0338146Y0071373D01*
X0338222Y0071169D01*
X0338293Y0070964D01*
X0338359Y0070756D01*
X0338419Y0070548D01*
X0338475Y0070337D01*
X0338525Y0070126D01*
X0338570Y0069913D01*
X0338610Y0069699D01*
X0338644Y0069485D01*
X0338673Y0069269D01*
X0338697Y0069053D01*
X0338716Y0068837D01*
X0338729Y0068620D01*
X0338737Y0068402D01*
X0338740Y0068185D01*
X0338737Y0067968D01*
X0338729Y0067750D01*
X0338716Y0067533D01*
X0338697Y0067317D01*
X0338673Y0067101D01*
X0338644Y0066885D01*
X0338610Y0066671D01*
X0338570Y0066457D01*
X0338525Y0066244D01*
X0338475Y0066033D01*
X0338419Y0065822D01*
X0338359Y0065614D01*
X0338293Y0065406D01*
X0338222Y0065201D01*
X0338146Y0064997D01*
X0338066Y0064795D01*
X0337980Y0064595D01*
X0337890Y0064398D01*
X0337794Y0064202D01*
X0337694Y0064009D01*
X0337589Y0063819D01*
X0337480Y0063631D01*
X0337366Y0063446D01*
X0337247Y0063264D01*
X0337124Y0063084D01*
X0336997Y0062908D01*
X0336865Y0062735D01*
X0336729Y0062566D01*
X0336589Y0062399D01*
X0336445Y0062236D01*
X0336297Y0062077D01*
X0336146Y0061921D01*
X0335990Y0061770D01*
X0335831Y0061622D01*
X0335668Y0061478D01*
X0335501Y0061338D01*
X0335332Y0061202D01*
X0335159Y0061070D01*
X0334983Y0060943D01*
X0334803Y0060820D01*
X0334621Y0060701D01*
X0334436Y0060587D01*
X0334248Y0060478D01*
X0334058Y0060373D01*
X0333865Y0060273D01*
X0333669Y0060177D01*
X0333472Y0060087D01*
X0333272Y0060001D01*
X0333070Y0059921D01*
X0332866Y0059845D01*
X0332661Y0059774D01*
X0332453Y0059708D01*
X0332245Y0059648D01*
X0332034Y0059592D01*
X0331823Y0059542D01*
X0331610Y0059497D01*
X0331396Y0059457D01*
X0331182Y0059423D01*
X0330966Y0059394D01*
X0330750Y0059370D01*
X0330534Y0059351D01*
X0330317Y0059338D01*
X0330099Y0059330D01*
X0329882Y0059327D01*
X0329665Y0059330D01*
X0329447Y0059338D01*
X0329230Y0059351D01*
X0329014Y0059370D01*
X0328798Y0059394D01*
X0328582Y0059423D01*
X0328368Y0059457D01*
X0328154Y0059497D01*
X0327941Y0059542D01*
X0327730Y0059592D01*
X0327519Y0059648D01*
X0327311Y0059708D01*
X0327103Y0059774D01*
X0326898Y0059845D01*
X0326694Y0059921D01*
X0326492Y0060001D01*
X0326292Y0060087D01*
X0326095Y0060177D01*
X0325899Y0060273D01*
X0325706Y0060373D01*
X0325516Y0060478D01*
X0325328Y0060587D01*
X0325143Y0060701D01*
X0324961Y0060820D01*
X0324781Y0060943D01*
X0324605Y0061070D01*
X0324432Y0061202D01*
X0324263Y0061338D01*
X0324096Y0061478D01*
X0323933Y0061622D01*
X0323774Y0061770D01*
X0323618Y0061921D01*
X0323467Y0062077D01*
X0323319Y0062236D01*
X0323175Y0062399D01*
X0323035Y0062566D01*
X0322899Y0062735D01*
X0322767Y0062908D01*
X0322640Y0063084D01*
X0322517Y0063264D01*
X0322398Y0063446D01*
X0322284Y0063631D01*
X0322175Y0063819D01*
X0322070Y0064009D01*
X0321970Y0064202D01*
X0321874Y0064398D01*
X0321784Y0064595D01*
X0321698Y0064795D01*
X0321618Y0064997D01*
X0321542Y0065201D01*
X0321471Y0065406D01*
X0321405Y0065614D01*
X0321345Y0065822D01*
X0321289Y0066033D01*
X0321239Y0066244D01*
X0321194Y0066457D01*
X0321154Y0066671D01*
X0321120Y0066885D01*
X0321091Y0067101D01*
X0321067Y0067317D01*
X0321048Y0067533D01*
X0321035Y0067750D01*
X0321027Y0067968D01*
X0321024Y0068185D01*
D11*
X0125591Y0108071D02*
X0125591Y0136417D01*
X0091732Y0136417D01*
X0091732Y0108071D01*
X0125591Y0108071D01*
X0095605Y0138780D02*
X0095607Y0138850D01*
X0095613Y0138921D01*
X0095623Y0138990D01*
X0095637Y0139059D01*
X0095655Y0139128D01*
X0095676Y0139195D01*
X0095701Y0139261D01*
X0095730Y0139325D01*
X0095763Y0139387D01*
X0095799Y0139448D01*
X0095839Y0139506D01*
X0095881Y0139562D01*
X0095927Y0139616D01*
X0095976Y0139667D01*
X0096027Y0139715D01*
X0096082Y0139760D01*
X0096138Y0139802D01*
X0096197Y0139840D01*
X0096258Y0139875D01*
X0096321Y0139907D01*
X0096386Y0139935D01*
X0096452Y0139960D01*
X0096519Y0139980D01*
X0096588Y0139997D01*
X0096657Y0140010D01*
X0096727Y0140019D01*
X0096797Y0140024D01*
X0096868Y0140025D01*
X0096938Y0140022D01*
X0097008Y0140015D01*
X0097078Y0140004D01*
X0097147Y0139989D01*
X0097215Y0139970D01*
X0097281Y0139948D01*
X0097347Y0139922D01*
X0097411Y0139892D01*
X0097473Y0139858D01*
X0097533Y0139821D01*
X0097590Y0139781D01*
X0097646Y0139737D01*
X0097699Y0139691D01*
X0097749Y0139641D01*
X0097796Y0139589D01*
X0097840Y0139534D01*
X0097881Y0139477D01*
X0097919Y0139418D01*
X0097954Y0139356D01*
X0097984Y0139293D01*
X0098012Y0139228D01*
X0098035Y0139161D01*
X0098055Y0139094D01*
X0098071Y0139025D01*
X0098083Y0138956D01*
X0098091Y0138886D01*
X0098095Y0138815D01*
X0098095Y0138745D01*
X0098091Y0138674D01*
X0098083Y0138604D01*
X0098071Y0138535D01*
X0098055Y0138466D01*
X0098035Y0138399D01*
X0098012Y0138332D01*
X0097984Y0138267D01*
X0097954Y0138204D01*
X0097919Y0138142D01*
X0097881Y0138083D01*
X0097840Y0138026D01*
X0097796Y0137971D01*
X0097749Y0137919D01*
X0097699Y0137869D01*
X0097646Y0137823D01*
X0097590Y0137779D01*
X0097533Y0137739D01*
X0097472Y0137702D01*
X0097411Y0137668D01*
X0097347Y0137638D01*
X0097281Y0137612D01*
X0097215Y0137590D01*
X0097147Y0137571D01*
X0097078Y0137556D01*
X0097008Y0137545D01*
X0096938Y0137538D01*
X0096868Y0137535D01*
X0096797Y0137536D01*
X0096727Y0137541D01*
X0096657Y0137550D01*
X0096588Y0137563D01*
X0096519Y0137580D01*
X0096452Y0137600D01*
X0096386Y0137625D01*
X0096321Y0137653D01*
X0096258Y0137685D01*
X0096197Y0137720D01*
X0096138Y0137758D01*
X0096082Y0137800D01*
X0096027Y0137845D01*
X0095976Y0137893D01*
X0095927Y0137944D01*
X0095881Y0137998D01*
X0095839Y0138054D01*
X0095799Y0138112D01*
X0095763Y0138173D01*
X0095730Y0138235D01*
X0095701Y0138299D01*
X0095676Y0138365D01*
X0095655Y0138432D01*
X0095637Y0138501D01*
X0095623Y0138570D01*
X0095613Y0138639D01*
X0095607Y0138710D01*
X0095605Y0138780D01*
D12*
X0127090Y0135083D02*
X0127090Y0132013D01*
X0130159Y0135083D01*
X0130159Y0132013D01*
X0129392Y0130479D02*
X0129392Y0127409D01*
X0127090Y0127409D02*
X0131694Y0127409D01*
X0131694Y0125875D02*
X0127090Y0125875D01*
X0130159Y0124340D02*
X0131694Y0125875D01*
X0130159Y0124340D02*
X0131694Y0122805D01*
X0127090Y0122805D01*
X0127857Y0121271D02*
X0127090Y0120504D01*
X0127090Y0118969D01*
X0127857Y0118202D01*
X0129392Y0118202D02*
X0130159Y0119736D01*
X0130159Y0120504D01*
X0129392Y0121271D01*
X0127857Y0121271D01*
X0129392Y0118202D02*
X0131694Y0118202D01*
X0131694Y0121271D01*
X0130926Y0116667D02*
X0131694Y0115900D01*
X0131694Y0114365D01*
X0130926Y0113598D01*
X0130926Y0116667D02*
X0130159Y0116667D01*
X0127090Y0113598D01*
X0127090Y0116667D01*
X0127090Y0130479D02*
X0131694Y0130479D01*
X0100740Y0106694D02*
X0097671Y0102090D01*
X0096136Y0102090D02*
X0093067Y0102090D01*
X0094602Y0102090D02*
X0094602Y0106694D01*
X0096136Y0105159D01*
X0097671Y0106694D02*
X0100740Y0102090D01*
X0041631Y0110968D02*
X0041631Y0115572D01*
X0039329Y0115572D01*
X0038561Y0114804D01*
X0038561Y0113270D01*
X0039329Y0112502D01*
X0041631Y0112502D01*
X0040096Y0112502D02*
X0038561Y0110968D01*
X0037027Y0110968D02*
X0033958Y0114037D01*
X0033958Y0114804D01*
X0034725Y0115572D01*
X0036259Y0115572D01*
X0037027Y0114804D01*
X0037027Y0110968D02*
X0033958Y0110968D01*
X0033958Y0123172D02*
X0037027Y0123172D01*
X0038561Y0123172D02*
X0040096Y0124707D01*
X0039329Y0124707D02*
X0041631Y0124707D01*
X0041631Y0123172D02*
X0041631Y0127776D01*
X0039329Y0127776D01*
X0038561Y0127009D01*
X0038561Y0125474D01*
X0039329Y0124707D01*
X0037027Y0126242D02*
X0035492Y0127776D01*
X0035492Y0123172D01*
X0209942Y0160830D02*
X0210709Y0160062D01*
X0212244Y0160062D01*
X0213011Y0160830D01*
X0214546Y0160830D02*
X0215313Y0160062D01*
X0216848Y0160062D01*
X0217615Y0160830D01*
X0217615Y0163899D01*
X0216848Y0164666D01*
X0215313Y0164666D01*
X0214546Y0163899D01*
X0213011Y0163899D02*
X0212244Y0164666D01*
X0210709Y0164666D01*
X0209942Y0163899D01*
X0209942Y0163131D01*
X0210709Y0162364D01*
X0209942Y0161597D01*
X0209942Y0160830D01*
X0210709Y0162364D02*
X0211476Y0162364D01*
D13*
X0144291Y0187236D02*
X0135630Y0178575D01*
X0135630Y0156882D01*
X0132638Y0156882D01*
X0132598Y0156882D02*
X0043150Y0156882D01*
X0043150Y0255110D01*
X0144291Y0255110D01*
X0144291Y0187236D01*
M02*
