%
M48
M72
T01C0.0236
T02C0.0360
T03C0.0433
T04C0.0630
T05C0.1772
%
T01
X3264Y10512
X2122Y9843
X5075Y13504
X3224Y16102
X9012Y14094
X8854Y12992
X11807Y12677
X13815Y14016
X12634Y14528
X13382Y15236
X13461Y16575
X13461Y17205
X13461Y17913
X11728Y17835
X11138Y19488
X11728Y20709
X11138Y21535
X12319Y21929
X13697Y20787
X13539Y19449
X15587Y18937
X15980Y18150
X18382Y19134
X20350Y18307
X20350Y17402
X20547Y15748
X22201Y14370
X22831Y14370
X23382Y14370
X24051Y14291
X24760Y12992
X26413Y12283
X26886Y13465
X29012Y15039
X30350Y15551
X31374Y16102
X29996Y16693
X29445Y17087
X31177Y17087
X31728Y17165
X31295Y17874
X32161Y17874
X32673Y17874
X33185Y17874
X33657Y16693
X35075Y17913
X35429Y17008
X36138Y16181
X35744Y15630
X35232Y14685
X34957Y14213
X34091Y15157
X33579Y15157
X32870Y15118
X32437Y14764
X32909Y14134
X32516Y13780
X32476Y12598
X33382Y12480
X33736Y12126
X34563Y12441
X35075Y11535
X34563Y11220
X36453Y10709
X36217Y10039
X37201Y10748
X37594Y11299
X36846Y11575
X37594Y12244
X37201Y12598
X36886Y13031
X37240Y13701
X37004Y14213
X37437Y17441
X36886Y19606
X37870Y19843
X37831Y21102
X37949Y21929
X37437Y22559
X35232Y22283
X34209Y22559
X33657Y22362
X33736Y22953
X32752Y22756
X32240Y22441
X30783Y22008
X29839Y22677
X28854Y22559
X27516Y23386
X26965Y24291
X25193Y23976
X24209Y24606
X21453Y23268
X20783Y22283
X22398Y22244
X24563Y21496
X22713Y20551
X23579Y20236
X23854Y19803
X24996Y19882
X24839Y19134
X23303Y17992
X22791Y18386
X22634Y20000
X21925Y19803
X21335Y20591
X18776Y20827
X18539Y21457
X18185Y21890
X18972Y22717
X19366Y24094
X17319Y24173
X16689Y24173
X15587Y23819
X15980Y23465
X12319Y23819
X11138Y23819
X7634Y22283
X7634Y21614
X5980Y21614
X5980Y22441
X9287Y20591
X17398Y14055
X19327Y13780
X20154Y13465
X21531Y13898
X22240Y13465
X25547Y16181
X25547Y17362
X25350Y17874
X28067Y19252
X28972Y18740
X30311Y20236
X31020Y19528
X30902Y20827
X32791Y20157
X34720Y19685
X34720Y20669
X29051Y24331
X30232Y24449
X30744Y24449
X31728Y24449
X33421Y24567
X35390Y24724
X38224Y24685
X28854Y20591
X28461Y20945
X26728Y21181
X30665Y13071
X30665Y12402
X32594Y11457
X30469Y11024
X31413Y9449
X32319Y9370
X32831Y8780
X33894Y8976
X33657Y8031
X35114Y7795
X36413Y8346
X37752Y8858
X36177Y9370
X38185Y7677
X37240Y6693
X36846Y7087
X35626Y6457
X31807Y5551
X29406Y4134
X28419Y4133
X27419Y4133
X26419Y4133
X25419Y4133
X24419Y4133
X23419Y4133
X22419Y4133
X21419Y4133
X20419Y4133
X19419Y4133
X18419Y4133
X17419Y4133
X16419Y4133
X15419Y4133
X14917Y4567
X14419Y4133
X15429Y5157
X15902Y5748
X16413Y6260
X16925Y6732
X17437Y7283
X17909Y7795
X18894Y7795
X19406Y7402
X19917Y7008
X20429Y6614
X20902Y6220
X22437Y6220
X22909Y7520
X21925Y8465
X23421Y9685
X23894Y9252
X25429Y6929
X24917Y6654
X24445Y6339
X26886Y6929
X27909Y6260
X27911Y6260
X19917Y8976
X19406Y9409
X18382Y8504
X13618Y7362
X13028Y6850
X12988Y5472
X12319Y5472
X10919Y5433
X13618Y9961
T02
X1569Y19433
X1569Y20433
X1569Y21433
X1569Y22433
X1569Y23433
X1569Y24433
T03
X4569Y12932
T04
X12837Y12932
T05
X10846Y8865
X32988Y6819
M30
